G04 #@! TF.GenerationSoftware,KiCad,Pcbnew,5.1.5+dfsg1-2build2*
G04 #@! TF.CreationDate,2020-06-17T01:42:46-04:00*
G04 #@! TF.ProjectId,RE_light,52455f6c-6967-4687-942e-6b696361645f,rev?*
G04 #@! TF.SameCoordinates,Original*
G04 #@! TF.FileFunction,Copper,L1,Top*
G04 #@! TF.FilePolarity,Positive*
%FSLAX46Y46*%
G04 Gerber Fmt 4.6, Leading zero omitted, Abs format (unit mm)*
G04 Created by KiCad (PCBNEW 5.1.5+dfsg1-2build2) date 2020-06-17 01:42:46*
%MOMM*%
%LPD*%
G04 APERTURE LIST*
%ADD10O,1.700000X1.700000*%
%ADD11R,1.700000X1.700000*%
%ADD12R,1.000000X1.500000*%
%ADD13R,1.727200X1.727200*%
%ADD14O,1.727200X1.727200*%
%ADD15C,1.500000*%
%ADD16C,0.250000*%
%ADD17C,0.254000*%
G04 APERTURE END LIST*
D10*
X48260000Y-88900000D03*
X48260000Y-91440000D03*
D11*
X48260000Y-93980000D03*
D12*
X98730000Y-95160000D03*
X101930000Y-95160000D03*
X98730000Y-90260000D03*
X101930000Y-90260000D03*
X110820000Y-90260000D03*
X107620000Y-90260000D03*
X110820000Y-95160000D03*
X107620000Y-95160000D03*
X128600000Y-90260000D03*
X125400000Y-90260000D03*
X128600000Y-95160000D03*
X125400000Y-95160000D03*
X152070000Y-95160000D03*
X155270000Y-95160000D03*
X152070000Y-90260000D03*
X155270000Y-90260000D03*
X199720000Y-90260000D03*
X196520000Y-90260000D03*
X199720000Y-95160000D03*
X196520000Y-95160000D03*
D13*
X53340000Y-88900000D03*
D14*
X55880000Y-88900000D03*
X53340000Y-91440000D03*
X55880000Y-91440000D03*
X53340000Y-93980000D03*
X55880000Y-93980000D03*
X53340000Y-96520000D03*
X55880000Y-96520000D03*
D12*
X93040000Y-90260000D03*
X89840000Y-90260000D03*
X93040000Y-95160000D03*
X89840000Y-95160000D03*
D11*
X30480000Y-91440000D03*
D10*
X30480000Y-93980000D03*
X30480000Y-96520000D03*
D11*
X226060000Y-90170000D03*
D10*
X226060000Y-92710000D03*
X226060000Y-95250000D03*
D12*
X80950000Y-95160000D03*
X84150000Y-95160000D03*
X80950000Y-90260000D03*
X84150000Y-90260000D03*
X116510000Y-95160000D03*
X119710000Y-95160000D03*
X116510000Y-90260000D03*
X119710000Y-90260000D03*
X134290000Y-95160000D03*
X137490000Y-95160000D03*
X134290000Y-90260000D03*
X137490000Y-90260000D03*
X146380000Y-90260000D03*
X143180000Y-90260000D03*
X146380000Y-95160000D03*
X143180000Y-95160000D03*
X164160000Y-90260000D03*
X160960000Y-90260000D03*
X164160000Y-95160000D03*
X160960000Y-95160000D03*
X169850000Y-95160000D03*
X173050000Y-95160000D03*
X169850000Y-90260000D03*
X173050000Y-90260000D03*
X181940000Y-90260000D03*
X178740000Y-90260000D03*
X181940000Y-95160000D03*
X178740000Y-95160000D03*
X187630000Y-95160000D03*
X190830000Y-95160000D03*
X187630000Y-90260000D03*
X190830000Y-90260000D03*
X204775000Y-95160000D03*
X207975000Y-95160000D03*
X204775000Y-90260000D03*
X207975000Y-90260000D03*
D15*
X80950000Y-99390000D02*
X80645000Y-99695000D01*
X80950000Y-95160000D02*
X80950000Y-99390000D01*
X89840000Y-95160000D02*
X89840000Y-99365000D01*
X89840000Y-99365000D02*
X90170000Y-99695000D01*
X80645000Y-99695000D02*
X90170000Y-99695000D01*
X98730000Y-99390000D02*
X98425000Y-99695000D01*
X98730000Y-95160000D02*
X98730000Y-99390000D01*
X90170000Y-99695000D02*
X98425000Y-99695000D01*
X107620000Y-99390000D02*
X107315000Y-99695000D01*
X107620000Y-95160000D02*
X107620000Y-99390000D01*
X98425000Y-99695000D02*
X107315000Y-99695000D01*
X116510000Y-99390000D02*
X116205000Y-99695000D01*
X116510000Y-95160000D02*
X116510000Y-99390000D01*
X107315000Y-99695000D02*
X116205000Y-99695000D01*
X125400000Y-99390000D02*
X125095000Y-99695000D01*
X125400000Y-95160000D02*
X125400000Y-99390000D01*
X116205000Y-99695000D02*
X125095000Y-99695000D01*
X134290000Y-99390000D02*
X133985000Y-99695000D01*
X134290000Y-95160000D02*
X134290000Y-99390000D01*
X125095000Y-99695000D02*
X133985000Y-99695000D01*
X226060000Y-97790000D02*
X226060000Y-95250000D01*
X224155000Y-99695000D02*
X226060000Y-97790000D01*
X59623491Y-99695000D02*
X58958481Y-100360010D01*
X58958481Y-100360010D02*
X31145010Y-100360010D01*
X80645000Y-99695000D02*
X59623491Y-99695000D01*
X30480000Y-99695000D02*
X30480000Y-96520000D01*
X31145010Y-100360010D02*
X30480000Y-99695000D01*
X143180000Y-99390000D02*
X142875000Y-99695000D01*
X143180000Y-95160000D02*
X143180000Y-99390000D01*
X133985000Y-99695000D02*
X142875000Y-99695000D01*
X152070000Y-99365000D02*
X152400000Y-99695000D01*
X152070000Y-95160000D02*
X152070000Y-99365000D01*
X142875000Y-99695000D02*
X152400000Y-99695000D01*
X160960000Y-95160000D02*
X160960000Y-99365000D01*
X160960000Y-99365000D02*
X161290000Y-99695000D01*
X152400000Y-99695000D02*
X161290000Y-99695000D01*
X161290000Y-99695000D02*
X169545000Y-99695000D01*
X178740000Y-99390000D02*
X178435000Y-99695000D01*
X178740000Y-95160000D02*
X178740000Y-99390000D01*
X169545000Y-99695000D02*
X178435000Y-99695000D01*
X187630000Y-99390000D02*
X187325000Y-99695000D01*
X187630000Y-95160000D02*
X187630000Y-99390000D01*
X178435000Y-99695000D02*
X187325000Y-99695000D01*
X196520000Y-99390000D02*
X196215000Y-99695000D01*
X196520000Y-95160000D02*
X196520000Y-99390000D01*
X187325000Y-99695000D02*
X196215000Y-99695000D01*
X204775000Y-99365000D02*
X205105000Y-99695000D01*
X204775000Y-95160000D02*
X204775000Y-99365000D01*
X205105000Y-99695000D02*
X224155000Y-99695000D01*
X196215000Y-99695000D02*
X205105000Y-99695000D01*
X169850000Y-95160000D02*
X169850000Y-99390000D01*
X169850000Y-99390000D02*
X169545000Y-99695000D01*
X90170000Y-82550000D02*
X99060000Y-82550000D01*
X226060000Y-88900000D02*
X226060000Y-90170000D01*
X219710000Y-82550000D02*
X226060000Y-88900000D01*
X82550000Y-82550000D02*
X84150000Y-84150000D01*
X84150000Y-84150000D02*
X84150000Y-90260000D01*
X82550000Y-82550000D02*
X90170000Y-82550000D01*
X93040000Y-85420000D02*
X93040000Y-90260000D01*
X90170000Y-82550000D02*
X93040000Y-85420000D01*
X101930000Y-84150000D02*
X101930000Y-90260000D01*
X100330000Y-82550000D02*
X101930000Y-84150000D01*
X99060000Y-82550000D02*
X100330000Y-82550000D01*
X100330000Y-82550000D02*
X107950000Y-82550000D01*
X110820000Y-82880000D02*
X110820000Y-90260000D01*
X110490000Y-82550000D02*
X110820000Y-82880000D01*
X107950000Y-82550000D02*
X110490000Y-82550000D01*
X110490000Y-82550000D02*
X116840000Y-82550000D01*
X119710000Y-84150000D02*
X119710000Y-90260000D01*
X118110000Y-82550000D02*
X119710000Y-84150000D01*
X116840000Y-82550000D02*
X118110000Y-82550000D01*
X118110000Y-82550000D02*
X125730000Y-82550000D01*
X128600000Y-82880000D02*
X128600000Y-90260000D01*
X128270000Y-82550000D02*
X128600000Y-82880000D01*
X125730000Y-82550000D02*
X128270000Y-82550000D01*
X128270000Y-82550000D02*
X134620000Y-82550000D01*
X135890000Y-82550000D02*
X137490000Y-84150000D01*
X134620000Y-82550000D02*
X135890000Y-82550000D01*
X137490000Y-84150000D02*
X137490000Y-90260000D01*
X135890000Y-82550000D02*
X143510000Y-82550000D01*
X146380000Y-82880000D02*
X146380000Y-90260000D01*
X146050000Y-82550000D02*
X146380000Y-82880000D01*
X143510000Y-82550000D02*
X146050000Y-82550000D01*
X146050000Y-82550000D02*
X152400000Y-82550000D01*
X155270000Y-83490000D02*
X155270000Y-90260000D01*
X152400000Y-82550000D02*
X156210000Y-82550000D01*
X156210000Y-82550000D02*
X155270000Y-83490000D01*
X156210000Y-82550000D02*
X160020000Y-82550000D01*
X163830000Y-82550000D02*
X164160000Y-82880000D01*
X160020000Y-82550000D02*
X163830000Y-82550000D01*
X164160000Y-82880000D02*
X164160000Y-90260000D01*
X163830000Y-82550000D02*
X170180000Y-82550000D01*
X173990000Y-82550000D02*
X173050000Y-83490000D01*
X173050000Y-83490000D02*
X173050000Y-90260000D01*
X170180000Y-82550000D02*
X173990000Y-82550000D01*
X173990000Y-82550000D02*
X179070000Y-82550000D01*
X181940000Y-82880000D02*
X181940000Y-90260000D01*
X181610000Y-82550000D02*
X181940000Y-82880000D01*
X179070000Y-82550000D02*
X181610000Y-82550000D01*
X181610000Y-82550000D02*
X187960000Y-82550000D01*
X190830000Y-84150000D02*
X190830000Y-90260000D01*
X189230000Y-82550000D02*
X190830000Y-84150000D01*
X187960000Y-82550000D02*
X189230000Y-82550000D01*
X189230000Y-82550000D02*
X196850000Y-82550000D01*
X199720000Y-82880000D02*
X199720000Y-90260000D01*
X199390000Y-82550000D02*
X199720000Y-82880000D01*
X196850000Y-82550000D02*
X199390000Y-82550000D01*
X199390000Y-82550000D02*
X205740000Y-82550000D01*
X207975000Y-83515000D02*
X207975000Y-90260000D01*
X205740000Y-82550000D02*
X207010000Y-82550000D01*
X207010000Y-82550000D02*
X207975000Y-83515000D01*
X207010000Y-82550000D02*
X219710000Y-82550000D01*
X82550000Y-82550000D02*
X52070000Y-82550000D01*
X52070000Y-82550000D02*
X48260000Y-86360000D01*
X48260000Y-86360000D02*
X48260000Y-88900000D01*
D16*
X80950000Y-91260000D02*
X83670000Y-93980000D01*
X80950000Y-90260000D02*
X80950000Y-91260000D01*
X93040000Y-94160000D02*
X93040000Y-95160000D01*
X92860000Y-93980000D02*
X93040000Y-94160000D01*
X83670000Y-93980000D02*
X92860000Y-93980000D01*
X173050000Y-94160000D02*
X173050000Y-95160000D01*
X172974999Y-94084999D02*
X173050000Y-94160000D01*
X165534999Y-94084999D02*
X172974999Y-94084999D01*
X161710000Y-90260000D02*
X165534999Y-94084999D01*
X160960000Y-90260000D02*
X161710000Y-90260000D01*
X54610000Y-92710000D02*
X55880000Y-91440000D01*
X52070000Y-92710000D02*
X54610000Y-92710000D01*
X49530000Y-95250000D02*
X52070000Y-92710000D01*
X49530000Y-99060000D02*
X49530000Y-95250000D01*
X35560000Y-99060000D02*
X49530000Y-99060000D01*
X30480000Y-93980000D02*
X35560000Y-99060000D01*
X83400000Y-95160000D02*
X84150000Y-95160000D01*
X83093590Y-95160000D02*
X83400000Y-95160000D01*
X79373590Y-91440000D02*
X83093590Y-95160000D01*
X55880000Y-91440000D02*
X79373590Y-91440000D01*
X164160000Y-94160000D02*
X164160000Y-95160000D01*
X163634989Y-93634989D02*
X164160000Y-94160000D01*
X152070000Y-91260000D02*
X154444989Y-93634989D01*
X154444989Y-93634989D02*
X163634989Y-93634989D01*
X152070000Y-90260000D02*
X152070000Y-91260000D01*
X101930000Y-94160000D02*
X101930000Y-95160000D01*
X101854999Y-94084999D02*
X101930000Y-94160000D01*
X94414999Y-94084999D02*
X101854999Y-94084999D01*
X90590000Y-90260000D02*
X94414999Y-94084999D01*
X89840000Y-90260000D02*
X90590000Y-90260000D01*
X110820000Y-94160000D02*
X110820000Y-95160000D01*
X110294989Y-93634989D02*
X110820000Y-94160000D01*
X101104989Y-93634989D02*
X110294989Y-93634989D01*
X98730000Y-91260000D02*
X101104989Y-93634989D01*
X98730000Y-90260000D02*
X98730000Y-91260000D01*
X119710000Y-94160000D02*
X119710000Y-95160000D01*
X119634999Y-94084999D02*
X119710000Y-94160000D01*
X112194999Y-94084999D02*
X119634999Y-94084999D01*
X108370000Y-90260000D02*
X112194999Y-94084999D01*
X107620000Y-90260000D02*
X108370000Y-90260000D01*
X128600000Y-94160000D02*
X128600000Y-95160000D01*
X128074989Y-93634989D02*
X128600000Y-94160000D01*
X118884989Y-93634989D02*
X128074989Y-93634989D01*
X116510000Y-91260000D02*
X118884989Y-93634989D01*
X116510000Y-90260000D02*
X116510000Y-91260000D01*
X137490000Y-94160000D02*
X137490000Y-95160000D01*
X137414999Y-94084999D02*
X137490000Y-94160000D01*
X129974999Y-94084999D02*
X137414999Y-94084999D01*
X126150000Y-90260000D02*
X129974999Y-94084999D01*
X125400000Y-90260000D02*
X126150000Y-90260000D01*
X146380000Y-94160000D02*
X146380000Y-95160000D01*
X145854989Y-93634989D02*
X146380000Y-94160000D01*
X136664989Y-93634989D02*
X145854989Y-93634989D01*
X134290000Y-91260000D02*
X136664989Y-93634989D01*
X134290000Y-90260000D02*
X134290000Y-91260000D01*
X155270000Y-94160000D02*
X155270000Y-95160000D01*
X147754999Y-94084999D02*
X155194999Y-94084999D01*
X155194999Y-94084999D02*
X155270000Y-94160000D01*
X143930000Y-90260000D02*
X147754999Y-94084999D01*
X143180000Y-90260000D02*
X143930000Y-90260000D01*
X181940000Y-94160000D02*
X181940000Y-95160000D01*
X181414989Y-93634989D02*
X181940000Y-94160000D01*
X172224989Y-93634989D02*
X181414989Y-93634989D01*
X169850000Y-91260000D02*
X172224989Y-93634989D01*
X169850000Y-90260000D02*
X169850000Y-91260000D01*
X190830000Y-94160000D02*
X190830000Y-95160000D01*
X183314999Y-94084999D02*
X190754999Y-94084999D01*
X179490000Y-90260000D02*
X183314999Y-94084999D01*
X190754999Y-94084999D02*
X190830000Y-94160000D01*
X178740000Y-90260000D02*
X179490000Y-90260000D01*
X199720000Y-94160000D02*
X199720000Y-95160000D01*
X199194989Y-93634989D02*
X199720000Y-94160000D01*
X190004989Y-93634989D02*
X199194989Y-93634989D01*
X187630000Y-91260000D02*
X190004989Y-93634989D01*
X187630000Y-90260000D02*
X187630000Y-91260000D01*
X207975000Y-94160000D02*
X207975000Y-95160000D01*
X207899999Y-94084999D02*
X207975000Y-94160000D01*
X201094999Y-94084999D02*
X207899999Y-94084999D01*
X197270000Y-90260000D02*
X201094999Y-94084999D01*
X196520000Y-90260000D02*
X197270000Y-90260000D01*
X204775000Y-90260000D02*
X205525000Y-90260000D01*
X205525000Y-90260000D02*
X206705000Y-91440000D01*
X208630002Y-91440000D02*
X213710002Y-86360000D01*
X206705000Y-91440000D02*
X208630002Y-91440000D01*
X213710002Y-86360000D02*
X218440000Y-86360000D01*
X224790000Y-92710000D02*
X226060000Y-92710000D01*
X218440000Y-86360000D02*
X224790000Y-92710000D01*
D17*
G36*
X47328765Y-85332550D02*
G01*
X47275919Y-85375920D01*
X47102843Y-85586813D01*
X47046883Y-85691507D01*
X46974236Y-85827420D01*
X46901332Y-86067753D01*
X46895040Y-86088494D01*
X46875000Y-86291964D01*
X46875000Y-86291971D01*
X46868300Y-86360000D01*
X46875000Y-86428030D01*
X46875001Y-88363193D01*
X46832068Y-88466842D01*
X46775000Y-88753740D01*
X46775000Y-89046260D01*
X46832068Y-89333158D01*
X46944010Y-89603411D01*
X47106525Y-89846632D01*
X47313368Y-90053475D01*
X47487760Y-90170000D01*
X47313368Y-90286525D01*
X47106525Y-90493368D01*
X46944010Y-90736589D01*
X46832068Y-91006842D01*
X46775000Y-91293740D01*
X46775000Y-91586260D01*
X46832068Y-91873158D01*
X46944010Y-92143411D01*
X47106525Y-92386632D01*
X47238380Y-92518487D01*
X47165820Y-92540498D01*
X47055506Y-92599463D01*
X46958815Y-92678815D01*
X46879463Y-92775506D01*
X46820498Y-92885820D01*
X46784188Y-93005518D01*
X46771928Y-93130000D01*
X46771928Y-94830000D01*
X46784188Y-94954482D01*
X46820498Y-95074180D01*
X46879463Y-95184494D01*
X46958815Y-95281185D01*
X47055506Y-95360537D01*
X47165820Y-95419502D01*
X47285518Y-95455812D01*
X47410000Y-95468072D01*
X48770001Y-95468072D01*
X48770000Y-98300000D01*
X35874802Y-98300000D01*
X31921209Y-94346408D01*
X31965000Y-94126260D01*
X31965000Y-93833740D01*
X31929736Y-93656456D01*
X37355000Y-93656456D01*
X37355000Y-94303544D01*
X37481240Y-94938199D01*
X37728871Y-95536031D01*
X38088374Y-96074066D01*
X38545934Y-96531626D01*
X39083969Y-96891129D01*
X39681801Y-97138760D01*
X40316456Y-97265000D01*
X40963544Y-97265000D01*
X41598199Y-97138760D01*
X42196031Y-96891129D01*
X42734066Y-96531626D01*
X43191626Y-96074066D01*
X43551129Y-95536031D01*
X43798760Y-94938199D01*
X43925000Y-94303544D01*
X43925000Y-93656456D01*
X43798760Y-93021801D01*
X43551129Y-92423969D01*
X43191626Y-91885934D01*
X42734066Y-91428374D01*
X42196031Y-91068871D01*
X41598199Y-90821240D01*
X40963544Y-90695000D01*
X40316456Y-90695000D01*
X39681801Y-90821240D01*
X39083969Y-91068871D01*
X38545934Y-91428374D01*
X38088374Y-91885934D01*
X37728871Y-92423969D01*
X37481240Y-93021801D01*
X37355000Y-93656456D01*
X31929736Y-93656456D01*
X31907932Y-93546842D01*
X31795990Y-93276589D01*
X31633475Y-93033368D01*
X31501620Y-92901513D01*
X31574180Y-92879502D01*
X31684494Y-92820537D01*
X31781185Y-92741185D01*
X31860537Y-92644494D01*
X31919502Y-92534180D01*
X31955812Y-92414482D01*
X31968072Y-92290000D01*
X31968072Y-90590000D01*
X31955812Y-90465518D01*
X31919502Y-90345820D01*
X31860537Y-90235506D01*
X31781185Y-90138815D01*
X31684494Y-90059463D01*
X31574180Y-90000498D01*
X31454482Y-89964188D01*
X31330000Y-89951928D01*
X29630000Y-89951928D01*
X29505518Y-89964188D01*
X29385820Y-90000498D01*
X29275506Y-90059463D01*
X29178815Y-90138815D01*
X29099463Y-90235506D01*
X29040498Y-90345820D01*
X29004188Y-90465518D01*
X28991928Y-90590000D01*
X28991928Y-92290000D01*
X29004188Y-92414482D01*
X29040498Y-92534180D01*
X29099463Y-92644494D01*
X29178815Y-92741185D01*
X29275506Y-92820537D01*
X29385820Y-92879502D01*
X29458380Y-92901513D01*
X29326525Y-93033368D01*
X29164010Y-93276589D01*
X29052068Y-93546842D01*
X28995000Y-93833740D01*
X28995000Y-94126260D01*
X29052068Y-94413158D01*
X29164010Y-94683411D01*
X29326525Y-94926632D01*
X29533368Y-95133475D01*
X29707760Y-95250000D01*
X29533368Y-95366525D01*
X29326525Y-95573368D01*
X29164010Y-95816589D01*
X29052068Y-96086842D01*
X28995000Y-96373740D01*
X28995000Y-96666260D01*
X29052068Y-96953158D01*
X29095001Y-97056807D01*
X29095000Y-99626971D01*
X29088300Y-99695000D01*
X29095000Y-99763029D01*
X29095000Y-99763036D01*
X29110714Y-99922580D01*
X29115040Y-99966507D01*
X29148317Y-100076207D01*
X29194236Y-100227580D01*
X29318138Y-100459383D01*
X29322844Y-100468188D01*
X29417719Y-100583793D01*
X29495919Y-100679080D01*
X29548765Y-100722450D01*
X30117556Y-101291241D01*
X30160929Y-101344091D01*
X30318005Y-101473000D01*
X28067000Y-101473000D01*
X28067000Y-81940000D01*
X50721314Y-81940000D01*
X47328765Y-85332550D01*
G37*
X47328765Y-85332550D02*
X47275919Y-85375920D01*
X47102843Y-85586813D01*
X47046883Y-85691507D01*
X46974236Y-85827420D01*
X46901332Y-86067753D01*
X46895040Y-86088494D01*
X46875000Y-86291964D01*
X46875000Y-86291971D01*
X46868300Y-86360000D01*
X46875000Y-86428030D01*
X46875001Y-88363193D01*
X46832068Y-88466842D01*
X46775000Y-88753740D01*
X46775000Y-89046260D01*
X46832068Y-89333158D01*
X46944010Y-89603411D01*
X47106525Y-89846632D01*
X47313368Y-90053475D01*
X47487760Y-90170000D01*
X47313368Y-90286525D01*
X47106525Y-90493368D01*
X46944010Y-90736589D01*
X46832068Y-91006842D01*
X46775000Y-91293740D01*
X46775000Y-91586260D01*
X46832068Y-91873158D01*
X46944010Y-92143411D01*
X47106525Y-92386632D01*
X47238380Y-92518487D01*
X47165820Y-92540498D01*
X47055506Y-92599463D01*
X46958815Y-92678815D01*
X46879463Y-92775506D01*
X46820498Y-92885820D01*
X46784188Y-93005518D01*
X46771928Y-93130000D01*
X46771928Y-94830000D01*
X46784188Y-94954482D01*
X46820498Y-95074180D01*
X46879463Y-95184494D01*
X46958815Y-95281185D01*
X47055506Y-95360537D01*
X47165820Y-95419502D01*
X47285518Y-95455812D01*
X47410000Y-95468072D01*
X48770001Y-95468072D01*
X48770000Y-98300000D01*
X35874802Y-98300000D01*
X31921209Y-94346408D01*
X31965000Y-94126260D01*
X31965000Y-93833740D01*
X31929736Y-93656456D01*
X37355000Y-93656456D01*
X37355000Y-94303544D01*
X37481240Y-94938199D01*
X37728871Y-95536031D01*
X38088374Y-96074066D01*
X38545934Y-96531626D01*
X39083969Y-96891129D01*
X39681801Y-97138760D01*
X40316456Y-97265000D01*
X40963544Y-97265000D01*
X41598199Y-97138760D01*
X42196031Y-96891129D01*
X42734066Y-96531626D01*
X43191626Y-96074066D01*
X43551129Y-95536031D01*
X43798760Y-94938199D01*
X43925000Y-94303544D01*
X43925000Y-93656456D01*
X43798760Y-93021801D01*
X43551129Y-92423969D01*
X43191626Y-91885934D01*
X42734066Y-91428374D01*
X42196031Y-91068871D01*
X41598199Y-90821240D01*
X40963544Y-90695000D01*
X40316456Y-90695000D01*
X39681801Y-90821240D01*
X39083969Y-91068871D01*
X38545934Y-91428374D01*
X38088374Y-91885934D01*
X37728871Y-92423969D01*
X37481240Y-93021801D01*
X37355000Y-93656456D01*
X31929736Y-93656456D01*
X31907932Y-93546842D01*
X31795990Y-93276589D01*
X31633475Y-93033368D01*
X31501620Y-92901513D01*
X31574180Y-92879502D01*
X31684494Y-92820537D01*
X31781185Y-92741185D01*
X31860537Y-92644494D01*
X31919502Y-92534180D01*
X31955812Y-92414482D01*
X31968072Y-92290000D01*
X31968072Y-90590000D01*
X31955812Y-90465518D01*
X31919502Y-90345820D01*
X31860537Y-90235506D01*
X31781185Y-90138815D01*
X31684494Y-90059463D01*
X31574180Y-90000498D01*
X31454482Y-89964188D01*
X31330000Y-89951928D01*
X29630000Y-89951928D01*
X29505518Y-89964188D01*
X29385820Y-90000498D01*
X29275506Y-90059463D01*
X29178815Y-90138815D01*
X29099463Y-90235506D01*
X29040498Y-90345820D01*
X29004188Y-90465518D01*
X28991928Y-90590000D01*
X28991928Y-92290000D01*
X29004188Y-92414482D01*
X29040498Y-92534180D01*
X29099463Y-92644494D01*
X29178815Y-92741185D01*
X29275506Y-92820537D01*
X29385820Y-92879502D01*
X29458380Y-92901513D01*
X29326525Y-93033368D01*
X29164010Y-93276589D01*
X29052068Y-93546842D01*
X28995000Y-93833740D01*
X28995000Y-94126260D01*
X29052068Y-94413158D01*
X29164010Y-94683411D01*
X29326525Y-94926632D01*
X29533368Y-95133475D01*
X29707760Y-95250000D01*
X29533368Y-95366525D01*
X29326525Y-95573368D01*
X29164010Y-95816589D01*
X29052068Y-96086842D01*
X28995000Y-96373740D01*
X28995000Y-96666260D01*
X29052068Y-96953158D01*
X29095001Y-97056807D01*
X29095000Y-99626971D01*
X29088300Y-99695000D01*
X29095000Y-99763029D01*
X29095000Y-99763036D01*
X29110714Y-99922580D01*
X29115040Y-99966507D01*
X29148317Y-100076207D01*
X29194236Y-100227580D01*
X29318138Y-100459383D01*
X29322844Y-100468188D01*
X29417719Y-100583793D01*
X29495919Y-100679080D01*
X29548765Y-100722450D01*
X30117556Y-101291241D01*
X30160929Y-101344091D01*
X30318005Y-101473000D01*
X28067000Y-101473000D01*
X28067000Y-81940000D01*
X50721314Y-81940000D01*
X47328765Y-85332550D01*
G36*
X227940000Y-87662418D02*
G01*
X227940001Y-87662428D01*
X227940000Y-97822418D01*
X227940001Y-97822428D01*
X227940000Y-100362418D01*
X227940001Y-100362428D01*
X227940001Y-101473000D01*
X59785486Y-101473000D01*
X59942562Y-101344091D01*
X59985935Y-101291241D01*
X60197176Y-101080000D01*
X80576971Y-101080000D01*
X80645000Y-101086700D01*
X80713029Y-101080000D01*
X90101972Y-101080000D01*
X90169999Y-101086700D01*
X90238026Y-101080000D01*
X98356971Y-101080000D01*
X98425000Y-101086700D01*
X98493029Y-101080000D01*
X107246971Y-101080000D01*
X107315000Y-101086700D01*
X107383029Y-101080000D01*
X116136971Y-101080000D01*
X116205000Y-101086700D01*
X116273029Y-101080000D01*
X125026971Y-101080000D01*
X125095000Y-101086700D01*
X125163029Y-101080000D01*
X133916971Y-101080000D01*
X133985000Y-101086700D01*
X134053029Y-101080000D01*
X142806971Y-101080000D01*
X142875000Y-101086700D01*
X142943029Y-101080000D01*
X152331972Y-101080000D01*
X152399999Y-101086700D01*
X152468026Y-101080000D01*
X161221972Y-101080000D01*
X161289999Y-101086700D01*
X161358026Y-101080000D01*
X169476971Y-101080000D01*
X169545000Y-101086700D01*
X169613029Y-101080000D01*
X178366971Y-101080000D01*
X178435000Y-101086700D01*
X178503029Y-101080000D01*
X187256971Y-101080000D01*
X187325000Y-101086700D01*
X187393029Y-101080000D01*
X196146971Y-101080000D01*
X196215000Y-101086700D01*
X196283029Y-101080000D01*
X205036972Y-101080000D01*
X205104999Y-101086700D01*
X205173026Y-101080000D01*
X224086971Y-101080000D01*
X224155000Y-101086700D01*
X224223029Y-101080000D01*
X224223037Y-101080000D01*
X224426507Y-101059960D01*
X224687581Y-100980764D01*
X224928188Y-100852157D01*
X225139081Y-100679081D01*
X225182454Y-100626231D01*
X226991241Y-98817445D01*
X227044080Y-98774081D01*
X227087445Y-98721241D01*
X227087452Y-98721234D01*
X227217157Y-98563188D01*
X227345764Y-98322581D01*
X227424960Y-98061507D01*
X227426705Y-98043792D01*
X227445000Y-97858037D01*
X227445000Y-97858029D01*
X227451700Y-97790000D01*
X227445000Y-97721971D01*
X227445000Y-95786805D01*
X227487932Y-95683158D01*
X227545000Y-95396260D01*
X227545000Y-95103740D01*
X227487932Y-94816842D01*
X227375990Y-94546589D01*
X227213475Y-94303368D01*
X227006632Y-94096525D01*
X226832240Y-93980000D01*
X227006632Y-93863475D01*
X227213475Y-93656632D01*
X227375990Y-93413411D01*
X227487932Y-93143158D01*
X227545000Y-92856260D01*
X227545000Y-92563740D01*
X227487932Y-92276842D01*
X227375990Y-92006589D01*
X227213475Y-91763368D01*
X227081620Y-91631513D01*
X227154180Y-91609502D01*
X227264494Y-91550537D01*
X227361185Y-91471185D01*
X227440537Y-91374494D01*
X227499502Y-91264180D01*
X227535812Y-91144482D01*
X227548072Y-91020000D01*
X227548072Y-89320000D01*
X227535812Y-89195518D01*
X227499502Y-89075820D01*
X227445000Y-88973856D01*
X227445000Y-88968026D01*
X227451700Y-88899999D01*
X227445000Y-88831972D01*
X227445000Y-88831963D01*
X227424960Y-88628493D01*
X227345764Y-88367419D01*
X227217157Y-88126812D01*
X227194289Y-88098948D01*
X227087452Y-87968766D01*
X227087445Y-87968759D01*
X227044080Y-87915919D01*
X226991241Y-87872555D01*
X221058685Y-81940000D01*
X227940001Y-81940000D01*
X227940000Y-87662418D01*
G37*
X227940000Y-87662418D02*
X227940001Y-87662428D01*
X227940000Y-97822418D01*
X227940001Y-97822428D01*
X227940000Y-100362418D01*
X227940001Y-100362428D01*
X227940001Y-101473000D01*
X59785486Y-101473000D01*
X59942562Y-101344091D01*
X59985935Y-101291241D01*
X60197176Y-101080000D01*
X80576971Y-101080000D01*
X80645000Y-101086700D01*
X80713029Y-101080000D01*
X90101972Y-101080000D01*
X90169999Y-101086700D01*
X90238026Y-101080000D01*
X98356971Y-101080000D01*
X98425000Y-101086700D01*
X98493029Y-101080000D01*
X107246971Y-101080000D01*
X107315000Y-101086700D01*
X107383029Y-101080000D01*
X116136971Y-101080000D01*
X116205000Y-101086700D01*
X116273029Y-101080000D01*
X125026971Y-101080000D01*
X125095000Y-101086700D01*
X125163029Y-101080000D01*
X133916971Y-101080000D01*
X133985000Y-101086700D01*
X134053029Y-101080000D01*
X142806971Y-101080000D01*
X142875000Y-101086700D01*
X142943029Y-101080000D01*
X152331972Y-101080000D01*
X152399999Y-101086700D01*
X152468026Y-101080000D01*
X161221972Y-101080000D01*
X161289999Y-101086700D01*
X161358026Y-101080000D01*
X169476971Y-101080000D01*
X169545000Y-101086700D01*
X169613029Y-101080000D01*
X178366971Y-101080000D01*
X178435000Y-101086700D01*
X178503029Y-101080000D01*
X187256971Y-101080000D01*
X187325000Y-101086700D01*
X187393029Y-101080000D01*
X196146971Y-101080000D01*
X196215000Y-101086700D01*
X196283029Y-101080000D01*
X205036972Y-101080000D01*
X205104999Y-101086700D01*
X205173026Y-101080000D01*
X224086971Y-101080000D01*
X224155000Y-101086700D01*
X224223029Y-101080000D01*
X224223037Y-101080000D01*
X224426507Y-101059960D01*
X224687581Y-100980764D01*
X224928188Y-100852157D01*
X225139081Y-100679081D01*
X225182454Y-100626231D01*
X226991241Y-98817445D01*
X227044080Y-98774081D01*
X227087445Y-98721241D01*
X227087452Y-98721234D01*
X227217157Y-98563188D01*
X227345764Y-98322581D01*
X227424960Y-98061507D01*
X227426705Y-98043792D01*
X227445000Y-97858037D01*
X227445000Y-97858029D01*
X227451700Y-97790000D01*
X227445000Y-97721971D01*
X227445000Y-95786805D01*
X227487932Y-95683158D01*
X227545000Y-95396260D01*
X227545000Y-95103740D01*
X227487932Y-94816842D01*
X227375990Y-94546589D01*
X227213475Y-94303368D01*
X227006632Y-94096525D01*
X226832240Y-93980000D01*
X227006632Y-93863475D01*
X227213475Y-93656632D01*
X227375990Y-93413411D01*
X227487932Y-93143158D01*
X227545000Y-92856260D01*
X227545000Y-92563740D01*
X227487932Y-92276842D01*
X227375990Y-92006589D01*
X227213475Y-91763368D01*
X227081620Y-91631513D01*
X227154180Y-91609502D01*
X227264494Y-91550537D01*
X227361185Y-91471185D01*
X227440537Y-91374494D01*
X227499502Y-91264180D01*
X227535812Y-91144482D01*
X227548072Y-91020000D01*
X227548072Y-89320000D01*
X227535812Y-89195518D01*
X227499502Y-89075820D01*
X227445000Y-88973856D01*
X227445000Y-88968026D01*
X227451700Y-88899999D01*
X227445000Y-88831972D01*
X227445000Y-88831963D01*
X227424960Y-88628493D01*
X227345764Y-88367419D01*
X227217157Y-88126812D01*
X227194289Y-88098948D01*
X227087452Y-87968766D01*
X227087445Y-87968759D01*
X227044080Y-87915919D01*
X226991241Y-87872555D01*
X221058685Y-81940000D01*
X227940001Y-81940000D01*
X227940000Y-87662418D01*
G36*
X80630716Y-93771928D02*
G01*
X80450000Y-93771928D01*
X80325518Y-93784188D01*
X80205820Y-93820498D01*
X80095506Y-93879463D01*
X79998815Y-93958815D01*
X79919463Y-94055506D01*
X79860498Y-94165820D01*
X79824188Y-94285518D01*
X79817126Y-94357224D01*
X79792843Y-94386813D01*
X79664236Y-94627420D01*
X79585040Y-94888494D01*
X79565000Y-95091964D01*
X79565001Y-98310000D01*
X59691517Y-98310000D01*
X59623490Y-98303300D01*
X59555463Y-98310000D01*
X59555454Y-98310000D01*
X59351984Y-98330040D01*
X59090910Y-98409236D01*
X58850303Y-98537843D01*
X58639410Y-98710919D01*
X58596039Y-98763767D01*
X58384796Y-98975010D01*
X50290000Y-98975010D01*
X50290000Y-95564801D01*
X51841400Y-94013402D01*
X51841400Y-94127599D01*
X51898990Y-94417125D01*
X52011958Y-94689853D01*
X52175961Y-94935302D01*
X52384698Y-95144039D01*
X52543281Y-95250000D01*
X52384698Y-95355961D01*
X52175961Y-95564698D01*
X52011958Y-95810147D01*
X51898990Y-96082875D01*
X51841400Y-96372401D01*
X51841400Y-96667599D01*
X51898990Y-96957125D01*
X52011958Y-97229853D01*
X52175961Y-97475302D01*
X52384698Y-97684039D01*
X52630147Y-97848042D01*
X52902875Y-97961010D01*
X53192401Y-98018600D01*
X53487599Y-98018600D01*
X53777125Y-97961010D01*
X54049853Y-97848042D01*
X54295302Y-97684039D01*
X54504039Y-97475302D01*
X54610000Y-97316719D01*
X54715961Y-97475302D01*
X54924698Y-97684039D01*
X55170147Y-97848042D01*
X55442875Y-97961010D01*
X55732401Y-98018600D01*
X56027599Y-98018600D01*
X56317125Y-97961010D01*
X56589853Y-97848042D01*
X56835302Y-97684039D01*
X57044039Y-97475302D01*
X57208042Y-97229853D01*
X57321010Y-96957125D01*
X57378600Y-96667599D01*
X57378600Y-96372401D01*
X57321010Y-96082875D01*
X57208042Y-95810147D01*
X57044039Y-95564698D01*
X56835302Y-95355961D01*
X56676719Y-95250000D01*
X56835302Y-95144039D01*
X57044039Y-94935302D01*
X57208042Y-94689853D01*
X57321010Y-94417125D01*
X57378600Y-94127599D01*
X57378600Y-93832401D01*
X57321010Y-93542875D01*
X57208042Y-93270147D01*
X57044039Y-93024698D01*
X56835302Y-92815961D01*
X56676719Y-92710000D01*
X56835302Y-92604039D01*
X57044039Y-92395302D01*
X57174535Y-92200000D01*
X79058789Y-92200000D01*
X80630716Y-93771928D01*
G37*
X80630716Y-93771928D02*
X80450000Y-93771928D01*
X80325518Y-93784188D01*
X80205820Y-93820498D01*
X80095506Y-93879463D01*
X79998815Y-93958815D01*
X79919463Y-94055506D01*
X79860498Y-94165820D01*
X79824188Y-94285518D01*
X79817126Y-94357224D01*
X79792843Y-94386813D01*
X79664236Y-94627420D01*
X79585040Y-94888494D01*
X79565000Y-95091964D01*
X79565001Y-98310000D01*
X59691517Y-98310000D01*
X59623490Y-98303300D01*
X59555463Y-98310000D01*
X59555454Y-98310000D01*
X59351984Y-98330040D01*
X59090910Y-98409236D01*
X58850303Y-98537843D01*
X58639410Y-98710919D01*
X58596039Y-98763767D01*
X58384796Y-98975010D01*
X50290000Y-98975010D01*
X50290000Y-95564801D01*
X51841400Y-94013402D01*
X51841400Y-94127599D01*
X51898990Y-94417125D01*
X52011958Y-94689853D01*
X52175961Y-94935302D01*
X52384698Y-95144039D01*
X52543281Y-95250000D01*
X52384698Y-95355961D01*
X52175961Y-95564698D01*
X52011958Y-95810147D01*
X51898990Y-96082875D01*
X51841400Y-96372401D01*
X51841400Y-96667599D01*
X51898990Y-96957125D01*
X52011958Y-97229853D01*
X52175961Y-97475302D01*
X52384698Y-97684039D01*
X52630147Y-97848042D01*
X52902875Y-97961010D01*
X53192401Y-98018600D01*
X53487599Y-98018600D01*
X53777125Y-97961010D01*
X54049853Y-97848042D01*
X54295302Y-97684039D01*
X54504039Y-97475302D01*
X54610000Y-97316719D01*
X54715961Y-97475302D01*
X54924698Y-97684039D01*
X55170147Y-97848042D01*
X55442875Y-97961010D01*
X55732401Y-98018600D01*
X56027599Y-98018600D01*
X56317125Y-97961010D01*
X56589853Y-97848042D01*
X56835302Y-97684039D01*
X57044039Y-97475302D01*
X57208042Y-97229853D01*
X57321010Y-96957125D01*
X57378600Y-96667599D01*
X57378600Y-96372401D01*
X57321010Y-96082875D01*
X57208042Y-95810147D01*
X57044039Y-95564698D01*
X56835302Y-95355961D01*
X56676719Y-95250000D01*
X56835302Y-95144039D01*
X57044039Y-94935302D01*
X57208042Y-94689853D01*
X57321010Y-94417125D01*
X57378600Y-94127599D01*
X57378600Y-93832401D01*
X57321010Y-93542875D01*
X57208042Y-93270147D01*
X57044039Y-93024698D01*
X56835302Y-92815961D01*
X56676719Y-92710000D01*
X56835302Y-92604039D01*
X57044039Y-92395302D01*
X57174535Y-92200000D01*
X79058789Y-92200000D01*
X80630716Y-93771928D01*
G36*
X34400208Y-98975010D02*
G01*
X31865000Y-98975010D01*
X31865000Y-97056805D01*
X31907932Y-96953158D01*
X31965000Y-96666260D01*
X31965000Y-96539801D01*
X34400208Y-98975010D01*
G37*
X34400208Y-98975010D02*
X31865000Y-98975010D01*
X31865000Y-97056805D01*
X31907932Y-96953158D01*
X31965000Y-96666260D01*
X31965000Y-96539801D01*
X34400208Y-98975010D01*
G36*
X91901928Y-95910000D02*
G01*
X91914188Y-96034482D01*
X91950498Y-96154180D01*
X92009463Y-96264494D01*
X92088815Y-96361185D01*
X92185506Y-96440537D01*
X92295820Y-96499502D01*
X92415518Y-96535812D01*
X92540000Y-96548072D01*
X93540000Y-96548072D01*
X93664482Y-96535812D01*
X93784180Y-96499502D01*
X93894494Y-96440537D01*
X93991185Y-96361185D01*
X94070537Y-96264494D01*
X94129502Y-96154180D01*
X94165812Y-96034482D01*
X94178072Y-95910000D01*
X94178072Y-94807326D01*
X94266013Y-94834002D01*
X94377666Y-94844999D01*
X94377675Y-94844999D01*
X94414998Y-94848675D01*
X94452321Y-94844999D01*
X97378234Y-94844999D01*
X97365040Y-94888494D01*
X97345000Y-95091964D01*
X97345001Y-98310000D01*
X91225000Y-98310000D01*
X91225000Y-95091963D01*
X91204960Y-94888493D01*
X91159915Y-94740000D01*
X91901928Y-94740000D01*
X91901928Y-95910000D01*
G37*
X91901928Y-95910000D02*
X91914188Y-96034482D01*
X91950498Y-96154180D01*
X92009463Y-96264494D01*
X92088815Y-96361185D01*
X92185506Y-96440537D01*
X92295820Y-96499502D01*
X92415518Y-96535812D01*
X92540000Y-96548072D01*
X93540000Y-96548072D01*
X93664482Y-96535812D01*
X93784180Y-96499502D01*
X93894494Y-96440537D01*
X93991185Y-96361185D01*
X94070537Y-96264494D01*
X94129502Y-96154180D01*
X94165812Y-96034482D01*
X94178072Y-95910000D01*
X94178072Y-94807326D01*
X94266013Y-94834002D01*
X94377666Y-94844999D01*
X94377675Y-94844999D01*
X94414998Y-94848675D01*
X94452321Y-94844999D01*
X97378234Y-94844999D01*
X97365040Y-94888494D01*
X97345000Y-95091964D01*
X97345001Y-98310000D01*
X91225000Y-98310000D01*
X91225000Y-95091963D01*
X91204960Y-94888493D01*
X91159915Y-94740000D01*
X91901928Y-94740000D01*
X91901928Y-95910000D01*
G36*
X177454236Y-94627420D02*
G01*
X177375040Y-94888494D01*
X177355000Y-95091964D01*
X177355001Y-98310000D01*
X171235000Y-98310000D01*
X171235000Y-95091963D01*
X171214960Y-94888493D01*
X171201766Y-94844999D01*
X171911928Y-94844999D01*
X171911928Y-95910000D01*
X171924188Y-96034482D01*
X171960498Y-96154180D01*
X172019463Y-96264494D01*
X172098815Y-96361185D01*
X172195506Y-96440537D01*
X172305820Y-96499502D01*
X172425518Y-96535812D01*
X172550000Y-96548072D01*
X173550000Y-96548072D01*
X173674482Y-96535812D01*
X173794180Y-96499502D01*
X173904494Y-96440537D01*
X174001185Y-96361185D01*
X174080537Y-96264494D01*
X174139502Y-96154180D01*
X174175812Y-96034482D01*
X174188072Y-95910000D01*
X174188072Y-94410000D01*
X174186594Y-94394989D01*
X177578473Y-94394989D01*
X177454236Y-94627420D01*
G37*
X177454236Y-94627420D02*
X177375040Y-94888494D01*
X177355000Y-95091964D01*
X177355001Y-98310000D01*
X171235000Y-98310000D01*
X171235000Y-95091963D01*
X171214960Y-94888493D01*
X171201766Y-94844999D01*
X171911928Y-94844999D01*
X171911928Y-95910000D01*
X171924188Y-96034482D01*
X171960498Y-96154180D01*
X172019463Y-96264494D01*
X172098815Y-96361185D01*
X172195506Y-96440537D01*
X172305820Y-96499502D01*
X172425518Y-96535812D01*
X172550000Y-96548072D01*
X173550000Y-96548072D01*
X173674482Y-96535812D01*
X173794180Y-96499502D01*
X173904494Y-96440537D01*
X174001185Y-96361185D01*
X174080537Y-96264494D01*
X174139502Y-96154180D01*
X174175812Y-96034482D01*
X174188072Y-95910000D01*
X174188072Y-94410000D01*
X174186594Y-94394989D01*
X177578473Y-94394989D01*
X177454236Y-94627420D01*
G36*
X163021928Y-94410000D02*
G01*
X163021928Y-95910000D01*
X163034188Y-96034482D01*
X163070498Y-96154180D01*
X163129463Y-96264494D01*
X163208815Y-96361185D01*
X163305506Y-96440537D01*
X163415820Y-96499502D01*
X163535518Y-96535812D01*
X163660000Y-96548072D01*
X164660000Y-96548072D01*
X164784482Y-96535812D01*
X164904180Y-96499502D01*
X165014494Y-96440537D01*
X165111185Y-96361185D01*
X165190537Y-96264494D01*
X165249502Y-96154180D01*
X165285812Y-96034482D01*
X165298072Y-95910000D01*
X165298072Y-94807326D01*
X165386013Y-94834002D01*
X165497666Y-94844999D01*
X165497675Y-94844999D01*
X165534998Y-94848675D01*
X165572321Y-94844999D01*
X168498234Y-94844999D01*
X168485040Y-94888494D01*
X168465000Y-95091964D01*
X168465001Y-98310000D01*
X162345000Y-98310000D01*
X162345000Y-95091963D01*
X162324960Y-94888493D01*
X162245764Y-94627419D01*
X162121528Y-94394989D01*
X163023406Y-94394989D01*
X163021928Y-94410000D01*
G37*
X163021928Y-94410000D02*
X163021928Y-95910000D01*
X163034188Y-96034482D01*
X163070498Y-96154180D01*
X163129463Y-96264494D01*
X163208815Y-96361185D01*
X163305506Y-96440537D01*
X163415820Y-96499502D01*
X163535518Y-96535812D01*
X163660000Y-96548072D01*
X164660000Y-96548072D01*
X164784482Y-96535812D01*
X164904180Y-96499502D01*
X165014494Y-96440537D01*
X165111185Y-96361185D01*
X165190537Y-96264494D01*
X165249502Y-96154180D01*
X165285812Y-96034482D01*
X165298072Y-95910000D01*
X165298072Y-94807326D01*
X165386013Y-94834002D01*
X165497666Y-94844999D01*
X165497675Y-94844999D01*
X165534998Y-94848675D01*
X165572321Y-94844999D01*
X168498234Y-94844999D01*
X168485040Y-94888494D01*
X168465000Y-95091964D01*
X168465001Y-98310000D01*
X162345000Y-98310000D01*
X162345000Y-95091963D01*
X162324960Y-94888493D01*
X162245764Y-94627419D01*
X162121528Y-94394989D01*
X163023406Y-94394989D01*
X163021928Y-94410000D01*
G36*
X198581928Y-94410000D02*
G01*
X198581928Y-95910000D01*
X198594188Y-96034482D01*
X198630498Y-96154180D01*
X198689463Y-96264494D01*
X198768815Y-96361185D01*
X198865506Y-96440537D01*
X198975820Y-96499502D01*
X199095518Y-96535812D01*
X199220000Y-96548072D01*
X200220000Y-96548072D01*
X200344482Y-96535812D01*
X200464180Y-96499502D01*
X200574494Y-96440537D01*
X200671185Y-96361185D01*
X200750537Y-96264494D01*
X200809502Y-96154180D01*
X200845812Y-96034482D01*
X200858072Y-95910000D01*
X200858072Y-94807326D01*
X200946013Y-94834002D01*
X201057666Y-94844999D01*
X201057675Y-94844999D01*
X201094998Y-94848675D01*
X201132321Y-94844999D01*
X203423234Y-94844999D01*
X203410040Y-94888494D01*
X203390000Y-95091964D01*
X203390001Y-98310000D01*
X197905000Y-98310000D01*
X197905000Y-95091963D01*
X197884960Y-94888493D01*
X197805764Y-94627419D01*
X197681528Y-94394989D01*
X198583406Y-94394989D01*
X198581928Y-94410000D01*
G37*
X198581928Y-94410000D02*
X198581928Y-95910000D01*
X198594188Y-96034482D01*
X198630498Y-96154180D01*
X198689463Y-96264494D01*
X198768815Y-96361185D01*
X198865506Y-96440537D01*
X198975820Y-96499502D01*
X199095518Y-96535812D01*
X199220000Y-96548072D01*
X200220000Y-96548072D01*
X200344482Y-96535812D01*
X200464180Y-96499502D01*
X200574494Y-96440537D01*
X200671185Y-96361185D01*
X200750537Y-96264494D01*
X200809502Y-96154180D01*
X200845812Y-96034482D01*
X200858072Y-95910000D01*
X200858072Y-94807326D01*
X200946013Y-94834002D01*
X201057666Y-94844999D01*
X201057675Y-94844999D01*
X201094998Y-94848675D01*
X201132321Y-94844999D01*
X203423234Y-94844999D01*
X203410040Y-94888494D01*
X203390000Y-95091964D01*
X203390001Y-98310000D01*
X197905000Y-98310000D01*
X197905000Y-95091963D01*
X197884960Y-94888493D01*
X197805764Y-94627419D01*
X197681528Y-94394989D01*
X198583406Y-94394989D01*
X198581928Y-94410000D01*
G36*
X141894236Y-94627420D02*
G01*
X141815040Y-94888494D01*
X141795000Y-95091964D01*
X141795001Y-98310000D01*
X135675000Y-98310000D01*
X135675000Y-95091963D01*
X135654960Y-94888493D01*
X135641766Y-94844999D01*
X136351928Y-94844999D01*
X136351928Y-95910000D01*
X136364188Y-96034482D01*
X136400498Y-96154180D01*
X136459463Y-96264494D01*
X136538815Y-96361185D01*
X136635506Y-96440537D01*
X136745820Y-96499502D01*
X136865518Y-96535812D01*
X136990000Y-96548072D01*
X137990000Y-96548072D01*
X138114482Y-96535812D01*
X138234180Y-96499502D01*
X138344494Y-96440537D01*
X138441185Y-96361185D01*
X138520537Y-96264494D01*
X138579502Y-96154180D01*
X138615812Y-96034482D01*
X138628072Y-95910000D01*
X138628072Y-94410000D01*
X138626594Y-94394989D01*
X142018473Y-94394989D01*
X141894236Y-94627420D01*
G37*
X141894236Y-94627420D02*
X141815040Y-94888494D01*
X141795000Y-95091964D01*
X141795001Y-98310000D01*
X135675000Y-98310000D01*
X135675000Y-95091963D01*
X135654960Y-94888493D01*
X135641766Y-94844999D01*
X136351928Y-94844999D01*
X136351928Y-95910000D01*
X136364188Y-96034482D01*
X136400498Y-96154180D01*
X136459463Y-96264494D01*
X136538815Y-96361185D01*
X136635506Y-96440537D01*
X136745820Y-96499502D01*
X136865518Y-96535812D01*
X136990000Y-96548072D01*
X137990000Y-96548072D01*
X138114482Y-96535812D01*
X138234180Y-96499502D01*
X138344494Y-96440537D01*
X138441185Y-96361185D01*
X138520537Y-96264494D01*
X138579502Y-96154180D01*
X138615812Y-96034482D01*
X138628072Y-95910000D01*
X138628072Y-94410000D01*
X138626594Y-94394989D01*
X142018473Y-94394989D01*
X141894236Y-94627420D01*
G36*
X159674236Y-94627420D02*
G01*
X159595040Y-94888494D01*
X159575000Y-95091964D01*
X159575001Y-98310000D01*
X153455000Y-98310000D01*
X153455000Y-95091963D01*
X153434960Y-94888493D01*
X153421766Y-94844999D01*
X154131928Y-94844999D01*
X154131928Y-95910000D01*
X154144188Y-96034482D01*
X154180498Y-96154180D01*
X154239463Y-96264494D01*
X154318815Y-96361185D01*
X154415506Y-96440537D01*
X154525820Y-96499502D01*
X154645518Y-96535812D01*
X154770000Y-96548072D01*
X155770000Y-96548072D01*
X155894482Y-96535812D01*
X156014180Y-96499502D01*
X156124494Y-96440537D01*
X156221185Y-96361185D01*
X156300537Y-96264494D01*
X156359502Y-96154180D01*
X156395812Y-96034482D01*
X156408072Y-95910000D01*
X156408072Y-94410000D01*
X156406594Y-94394989D01*
X159798473Y-94394989D01*
X159674236Y-94627420D01*
G37*
X159674236Y-94627420D02*
X159595040Y-94888494D01*
X159575000Y-95091964D01*
X159575001Y-98310000D01*
X153455000Y-98310000D01*
X153455000Y-95091963D01*
X153434960Y-94888493D01*
X153421766Y-94844999D01*
X154131928Y-94844999D01*
X154131928Y-95910000D01*
X154144188Y-96034482D01*
X154180498Y-96154180D01*
X154239463Y-96264494D01*
X154318815Y-96361185D01*
X154415506Y-96440537D01*
X154525820Y-96499502D01*
X154645518Y-96535812D01*
X154770000Y-96548072D01*
X155770000Y-96548072D01*
X155894482Y-96535812D01*
X156014180Y-96499502D01*
X156124494Y-96440537D01*
X156221185Y-96361185D01*
X156300537Y-96264494D01*
X156359502Y-96154180D01*
X156395812Y-96034482D01*
X156408072Y-95910000D01*
X156408072Y-94410000D01*
X156406594Y-94394989D01*
X159798473Y-94394989D01*
X159674236Y-94627420D01*
G36*
X180801928Y-94410000D02*
G01*
X180801928Y-95910000D01*
X180814188Y-96034482D01*
X180850498Y-96154180D01*
X180909463Y-96264494D01*
X180988815Y-96361185D01*
X181085506Y-96440537D01*
X181195820Y-96499502D01*
X181315518Y-96535812D01*
X181440000Y-96548072D01*
X182440000Y-96548072D01*
X182564482Y-96535812D01*
X182684180Y-96499502D01*
X182794494Y-96440537D01*
X182891185Y-96361185D01*
X182970537Y-96264494D01*
X183029502Y-96154180D01*
X183065812Y-96034482D01*
X183078072Y-95910000D01*
X183078072Y-94807326D01*
X183166013Y-94834002D01*
X183277666Y-94844999D01*
X183277675Y-94844999D01*
X183314998Y-94848675D01*
X183352321Y-94844999D01*
X186278234Y-94844999D01*
X186265040Y-94888494D01*
X186245000Y-95091964D01*
X186245001Y-98310000D01*
X180125000Y-98310000D01*
X180125000Y-95091963D01*
X180104960Y-94888493D01*
X180025764Y-94627419D01*
X179901528Y-94394989D01*
X180803406Y-94394989D01*
X180801928Y-94410000D01*
G37*
X180801928Y-94410000D02*
X180801928Y-95910000D01*
X180814188Y-96034482D01*
X180850498Y-96154180D01*
X180909463Y-96264494D01*
X180988815Y-96361185D01*
X181085506Y-96440537D01*
X181195820Y-96499502D01*
X181315518Y-96535812D01*
X181440000Y-96548072D01*
X182440000Y-96548072D01*
X182564482Y-96535812D01*
X182684180Y-96499502D01*
X182794494Y-96440537D01*
X182891185Y-96361185D01*
X182970537Y-96264494D01*
X183029502Y-96154180D01*
X183065812Y-96034482D01*
X183078072Y-95910000D01*
X183078072Y-94807326D01*
X183166013Y-94834002D01*
X183277666Y-94844999D01*
X183277675Y-94844999D01*
X183314998Y-94848675D01*
X183352321Y-94844999D01*
X186278234Y-94844999D01*
X186265040Y-94888494D01*
X186245000Y-95091964D01*
X186245001Y-98310000D01*
X180125000Y-98310000D01*
X180125000Y-95091963D01*
X180104960Y-94888493D01*
X180025764Y-94627419D01*
X179901528Y-94394989D01*
X180803406Y-94394989D01*
X180801928Y-94410000D01*
G36*
X145241928Y-94410000D02*
G01*
X145241928Y-95910000D01*
X145254188Y-96034482D01*
X145290498Y-96154180D01*
X145349463Y-96264494D01*
X145428815Y-96361185D01*
X145525506Y-96440537D01*
X145635820Y-96499502D01*
X145755518Y-96535812D01*
X145880000Y-96548072D01*
X146880000Y-96548072D01*
X147004482Y-96535812D01*
X147124180Y-96499502D01*
X147234494Y-96440537D01*
X147331185Y-96361185D01*
X147410537Y-96264494D01*
X147469502Y-96154180D01*
X147505812Y-96034482D01*
X147518072Y-95910000D01*
X147518072Y-94807326D01*
X147606013Y-94834002D01*
X147717666Y-94844999D01*
X147717675Y-94844999D01*
X147754998Y-94848675D01*
X147792321Y-94844999D01*
X150718234Y-94844999D01*
X150705040Y-94888494D01*
X150685000Y-95091964D01*
X150685001Y-98310000D01*
X144565000Y-98310000D01*
X144565000Y-95091963D01*
X144544960Y-94888493D01*
X144465764Y-94627419D01*
X144341528Y-94394989D01*
X145243406Y-94394989D01*
X145241928Y-94410000D01*
G37*
X145241928Y-94410000D02*
X145241928Y-95910000D01*
X145254188Y-96034482D01*
X145290498Y-96154180D01*
X145349463Y-96264494D01*
X145428815Y-96361185D01*
X145525506Y-96440537D01*
X145635820Y-96499502D01*
X145755518Y-96535812D01*
X145880000Y-96548072D01*
X146880000Y-96548072D01*
X147004482Y-96535812D01*
X147124180Y-96499502D01*
X147234494Y-96440537D01*
X147331185Y-96361185D01*
X147410537Y-96264494D01*
X147469502Y-96154180D01*
X147505812Y-96034482D01*
X147518072Y-95910000D01*
X147518072Y-94807326D01*
X147606013Y-94834002D01*
X147717666Y-94844999D01*
X147717675Y-94844999D01*
X147754998Y-94848675D01*
X147792321Y-94844999D01*
X150718234Y-94844999D01*
X150705040Y-94888494D01*
X150685000Y-95091964D01*
X150685001Y-98310000D01*
X144565000Y-98310000D01*
X144565000Y-95091963D01*
X144544960Y-94888493D01*
X144465764Y-94627419D01*
X144341528Y-94394989D01*
X145243406Y-94394989D01*
X145241928Y-94410000D01*
G36*
X106334236Y-94627420D02*
G01*
X106255040Y-94888494D01*
X106235000Y-95091964D01*
X106235001Y-98310000D01*
X100115000Y-98310000D01*
X100115000Y-95091963D01*
X100094960Y-94888493D01*
X100081766Y-94844999D01*
X100791928Y-94844999D01*
X100791928Y-95910000D01*
X100804188Y-96034482D01*
X100840498Y-96154180D01*
X100899463Y-96264494D01*
X100978815Y-96361185D01*
X101075506Y-96440537D01*
X101185820Y-96499502D01*
X101305518Y-96535812D01*
X101430000Y-96548072D01*
X102430000Y-96548072D01*
X102554482Y-96535812D01*
X102674180Y-96499502D01*
X102784494Y-96440537D01*
X102881185Y-96361185D01*
X102960537Y-96264494D01*
X103019502Y-96154180D01*
X103055812Y-96034482D01*
X103068072Y-95910000D01*
X103068072Y-94410000D01*
X103066594Y-94394989D01*
X106458473Y-94394989D01*
X106334236Y-94627420D01*
G37*
X106334236Y-94627420D02*
X106255040Y-94888494D01*
X106235000Y-95091964D01*
X106235001Y-98310000D01*
X100115000Y-98310000D01*
X100115000Y-95091963D01*
X100094960Y-94888493D01*
X100081766Y-94844999D01*
X100791928Y-94844999D01*
X100791928Y-95910000D01*
X100804188Y-96034482D01*
X100840498Y-96154180D01*
X100899463Y-96264494D01*
X100978815Y-96361185D01*
X101075506Y-96440537D01*
X101185820Y-96499502D01*
X101305518Y-96535812D01*
X101430000Y-96548072D01*
X102430000Y-96548072D01*
X102554482Y-96535812D01*
X102674180Y-96499502D01*
X102784494Y-96440537D01*
X102881185Y-96361185D01*
X102960537Y-96264494D01*
X103019502Y-96154180D01*
X103055812Y-96034482D01*
X103068072Y-95910000D01*
X103068072Y-94410000D01*
X103066594Y-94394989D01*
X106458473Y-94394989D01*
X106334236Y-94627420D01*
G36*
X195234236Y-94627420D02*
G01*
X195155040Y-94888494D01*
X195135000Y-95091964D01*
X195135001Y-98310000D01*
X189015000Y-98310000D01*
X189015000Y-95091963D01*
X188994960Y-94888493D01*
X188981766Y-94844999D01*
X189691928Y-94844999D01*
X189691928Y-95910000D01*
X189704188Y-96034482D01*
X189740498Y-96154180D01*
X189799463Y-96264494D01*
X189878815Y-96361185D01*
X189975506Y-96440537D01*
X190085820Y-96499502D01*
X190205518Y-96535812D01*
X190330000Y-96548072D01*
X191330000Y-96548072D01*
X191454482Y-96535812D01*
X191574180Y-96499502D01*
X191684494Y-96440537D01*
X191781185Y-96361185D01*
X191860537Y-96264494D01*
X191919502Y-96154180D01*
X191955812Y-96034482D01*
X191968072Y-95910000D01*
X191968072Y-94410000D01*
X191966594Y-94394989D01*
X195358473Y-94394989D01*
X195234236Y-94627420D01*
G37*
X195234236Y-94627420D02*
X195155040Y-94888494D01*
X195135000Y-95091964D01*
X195135001Y-98310000D01*
X189015000Y-98310000D01*
X189015000Y-95091963D01*
X188994960Y-94888493D01*
X188981766Y-94844999D01*
X189691928Y-94844999D01*
X189691928Y-95910000D01*
X189704188Y-96034482D01*
X189740498Y-96154180D01*
X189799463Y-96264494D01*
X189878815Y-96361185D01*
X189975506Y-96440537D01*
X190085820Y-96499502D01*
X190205518Y-96535812D01*
X190330000Y-96548072D01*
X191330000Y-96548072D01*
X191454482Y-96535812D01*
X191574180Y-96499502D01*
X191684494Y-96440537D01*
X191781185Y-96361185D01*
X191860537Y-96264494D01*
X191919502Y-96154180D01*
X191955812Y-96034482D01*
X191968072Y-95910000D01*
X191968072Y-94410000D01*
X191966594Y-94394989D01*
X195358473Y-94394989D01*
X195234236Y-94627420D01*
G36*
X109681928Y-94410000D02*
G01*
X109681928Y-95910000D01*
X109694188Y-96034482D01*
X109730498Y-96154180D01*
X109789463Y-96264494D01*
X109868815Y-96361185D01*
X109965506Y-96440537D01*
X110075820Y-96499502D01*
X110195518Y-96535812D01*
X110320000Y-96548072D01*
X111320000Y-96548072D01*
X111444482Y-96535812D01*
X111564180Y-96499502D01*
X111674494Y-96440537D01*
X111771185Y-96361185D01*
X111850537Y-96264494D01*
X111909502Y-96154180D01*
X111945812Y-96034482D01*
X111958072Y-95910000D01*
X111958072Y-94807326D01*
X112046013Y-94834002D01*
X112157666Y-94844999D01*
X112157675Y-94844999D01*
X112194998Y-94848675D01*
X112232321Y-94844999D01*
X115158234Y-94844999D01*
X115145040Y-94888494D01*
X115125000Y-95091964D01*
X115125001Y-98310000D01*
X109005000Y-98310000D01*
X109005000Y-95091963D01*
X108984960Y-94888493D01*
X108905764Y-94627419D01*
X108781528Y-94394989D01*
X109683406Y-94394989D01*
X109681928Y-94410000D01*
G37*
X109681928Y-94410000D02*
X109681928Y-95910000D01*
X109694188Y-96034482D01*
X109730498Y-96154180D01*
X109789463Y-96264494D01*
X109868815Y-96361185D01*
X109965506Y-96440537D01*
X110075820Y-96499502D01*
X110195518Y-96535812D01*
X110320000Y-96548072D01*
X111320000Y-96548072D01*
X111444482Y-96535812D01*
X111564180Y-96499502D01*
X111674494Y-96440537D01*
X111771185Y-96361185D01*
X111850537Y-96264494D01*
X111909502Y-96154180D01*
X111945812Y-96034482D01*
X111958072Y-95910000D01*
X111958072Y-94807326D01*
X112046013Y-94834002D01*
X112157666Y-94844999D01*
X112157675Y-94844999D01*
X112194998Y-94848675D01*
X112232321Y-94844999D01*
X115158234Y-94844999D01*
X115145040Y-94888494D01*
X115125000Y-95091964D01*
X115125001Y-98310000D01*
X109005000Y-98310000D01*
X109005000Y-95091963D01*
X108984960Y-94888493D01*
X108905764Y-94627419D01*
X108781528Y-94394989D01*
X109683406Y-94394989D01*
X109681928Y-94410000D01*
G36*
X206590000Y-84088686D02*
G01*
X206590001Y-90250200D01*
X206088804Y-89749003D01*
X206065001Y-89719999D01*
X205949276Y-89625026D01*
X205913072Y-89605674D01*
X205913072Y-89510000D01*
X205900812Y-89385518D01*
X205864502Y-89265820D01*
X205805537Y-89155506D01*
X205726185Y-89058815D01*
X205629494Y-88979463D01*
X205519180Y-88920498D01*
X205399482Y-88884188D01*
X205275000Y-88871928D01*
X204275000Y-88871928D01*
X204150518Y-88884188D01*
X204030820Y-88920498D01*
X203920506Y-88979463D01*
X203823815Y-89058815D01*
X203744463Y-89155506D01*
X203685498Y-89265820D01*
X203649188Y-89385518D01*
X203636928Y-89510000D01*
X203636928Y-91010000D01*
X203649188Y-91134482D01*
X203685498Y-91254180D01*
X203744463Y-91364494D01*
X203823815Y-91461185D01*
X203920506Y-91540537D01*
X204030820Y-91599502D01*
X204150518Y-91635812D01*
X204275000Y-91648072D01*
X205275000Y-91648072D01*
X205399482Y-91635812D01*
X205519180Y-91599502D01*
X205629494Y-91540537D01*
X205685100Y-91494902D01*
X206141200Y-91951002D01*
X206164999Y-91980001D01*
X206193997Y-92003799D01*
X206280723Y-92074974D01*
X206408759Y-92143411D01*
X206412753Y-92145546D01*
X206556014Y-92189003D01*
X206667667Y-92200000D01*
X206667677Y-92200000D01*
X206704999Y-92203676D01*
X206742322Y-92200000D01*
X208592680Y-92200000D01*
X208630002Y-92203676D01*
X208667324Y-92200000D01*
X208667335Y-92200000D01*
X208778988Y-92189003D01*
X208922249Y-92145546D01*
X209054278Y-92074974D01*
X209170003Y-91980001D01*
X209193806Y-91950997D01*
X214024804Y-87120000D01*
X218125199Y-87120000D01*
X224226201Y-93221003D01*
X224249999Y-93250001D01*
X224278997Y-93273799D01*
X224365723Y-93344974D01*
X224493759Y-93413411D01*
X224497753Y-93415546D01*
X224641014Y-93459003D01*
X224752667Y-93470000D01*
X224752676Y-93470000D01*
X224783875Y-93473073D01*
X224906525Y-93656632D01*
X225113368Y-93863475D01*
X225287760Y-93980000D01*
X225113368Y-94096525D01*
X224906525Y-94303368D01*
X224744010Y-94546589D01*
X224632068Y-94816842D01*
X224575000Y-95103740D01*
X224575000Y-95396260D01*
X224632068Y-95683158D01*
X224675001Y-95786807D01*
X224675000Y-97216314D01*
X223581315Y-98310000D01*
X206160000Y-98310000D01*
X206160000Y-95091963D01*
X206139960Y-94888493D01*
X206126766Y-94844999D01*
X206836928Y-94844999D01*
X206836928Y-95910000D01*
X206849188Y-96034482D01*
X206885498Y-96154180D01*
X206944463Y-96264494D01*
X207023815Y-96361185D01*
X207120506Y-96440537D01*
X207230820Y-96499502D01*
X207350518Y-96535812D01*
X207475000Y-96548072D01*
X208475000Y-96548072D01*
X208599482Y-96535812D01*
X208719180Y-96499502D01*
X208829494Y-96440537D01*
X208926185Y-96361185D01*
X209005537Y-96264494D01*
X209064502Y-96154180D01*
X209100812Y-96034482D01*
X209113072Y-95910000D01*
X209113072Y-94410000D01*
X209100812Y-94285518D01*
X209064502Y-94165820D01*
X209005537Y-94055506D01*
X208926185Y-93958815D01*
X208829494Y-93879463D01*
X208719180Y-93820498D01*
X208642923Y-93797366D01*
X208609974Y-93735724D01*
X208544921Y-93656456D01*
X213885000Y-93656456D01*
X213885000Y-94303544D01*
X214011240Y-94938199D01*
X214258871Y-95536031D01*
X214618374Y-96074066D01*
X215075934Y-96531626D01*
X215613969Y-96891129D01*
X216211801Y-97138760D01*
X216846456Y-97265000D01*
X217493544Y-97265000D01*
X218128199Y-97138760D01*
X218726031Y-96891129D01*
X219264066Y-96531626D01*
X219721626Y-96074066D01*
X220081129Y-95536031D01*
X220328760Y-94938199D01*
X220455000Y-94303544D01*
X220455000Y-93656456D01*
X220328760Y-93021801D01*
X220081129Y-92423969D01*
X219721626Y-91885934D01*
X219264066Y-91428374D01*
X218726031Y-91068871D01*
X218128199Y-90821240D01*
X217493544Y-90695000D01*
X216846456Y-90695000D01*
X216211801Y-90821240D01*
X215613969Y-91068871D01*
X215075934Y-91428374D01*
X214618374Y-91885934D01*
X214258871Y-92423969D01*
X214011240Y-93021801D01*
X213885000Y-93656456D01*
X208544921Y-93656456D01*
X208515001Y-93619999D01*
X208486002Y-93596200D01*
X208463801Y-93573999D01*
X208440000Y-93544998D01*
X208324275Y-93450025D01*
X208192246Y-93379453D01*
X208048985Y-93335996D01*
X207937332Y-93324999D01*
X207937321Y-93324999D01*
X207899999Y-93321323D01*
X207862677Y-93324999D01*
X201409802Y-93324999D01*
X199735023Y-91650221D01*
X199756846Y-91648072D01*
X200220000Y-91648072D01*
X200344482Y-91635812D01*
X200464180Y-91599502D01*
X200574494Y-91540537D01*
X200671185Y-91461185D01*
X200750537Y-91364494D01*
X200809502Y-91254180D01*
X200845812Y-91134482D01*
X200852874Y-91062777D01*
X200877157Y-91033188D01*
X201005764Y-90792581D01*
X201084960Y-90531507D01*
X201105000Y-90328037D01*
X201105000Y-83935000D01*
X206436315Y-83935000D01*
X206590000Y-84088686D01*
G37*
X206590000Y-84088686D02*
X206590001Y-90250200D01*
X206088804Y-89749003D01*
X206065001Y-89719999D01*
X205949276Y-89625026D01*
X205913072Y-89605674D01*
X205913072Y-89510000D01*
X205900812Y-89385518D01*
X205864502Y-89265820D01*
X205805537Y-89155506D01*
X205726185Y-89058815D01*
X205629494Y-88979463D01*
X205519180Y-88920498D01*
X205399482Y-88884188D01*
X205275000Y-88871928D01*
X204275000Y-88871928D01*
X204150518Y-88884188D01*
X204030820Y-88920498D01*
X203920506Y-88979463D01*
X203823815Y-89058815D01*
X203744463Y-89155506D01*
X203685498Y-89265820D01*
X203649188Y-89385518D01*
X203636928Y-89510000D01*
X203636928Y-91010000D01*
X203649188Y-91134482D01*
X203685498Y-91254180D01*
X203744463Y-91364494D01*
X203823815Y-91461185D01*
X203920506Y-91540537D01*
X204030820Y-91599502D01*
X204150518Y-91635812D01*
X204275000Y-91648072D01*
X205275000Y-91648072D01*
X205399482Y-91635812D01*
X205519180Y-91599502D01*
X205629494Y-91540537D01*
X205685100Y-91494902D01*
X206141200Y-91951002D01*
X206164999Y-91980001D01*
X206193997Y-92003799D01*
X206280723Y-92074974D01*
X206408759Y-92143411D01*
X206412753Y-92145546D01*
X206556014Y-92189003D01*
X206667667Y-92200000D01*
X206667677Y-92200000D01*
X206704999Y-92203676D01*
X206742322Y-92200000D01*
X208592680Y-92200000D01*
X208630002Y-92203676D01*
X208667324Y-92200000D01*
X208667335Y-92200000D01*
X208778988Y-92189003D01*
X208922249Y-92145546D01*
X209054278Y-92074974D01*
X209170003Y-91980001D01*
X209193806Y-91950997D01*
X214024804Y-87120000D01*
X218125199Y-87120000D01*
X224226201Y-93221003D01*
X224249999Y-93250001D01*
X224278997Y-93273799D01*
X224365723Y-93344974D01*
X224493759Y-93413411D01*
X224497753Y-93415546D01*
X224641014Y-93459003D01*
X224752667Y-93470000D01*
X224752676Y-93470000D01*
X224783875Y-93473073D01*
X224906525Y-93656632D01*
X225113368Y-93863475D01*
X225287760Y-93980000D01*
X225113368Y-94096525D01*
X224906525Y-94303368D01*
X224744010Y-94546589D01*
X224632068Y-94816842D01*
X224575000Y-95103740D01*
X224575000Y-95396260D01*
X224632068Y-95683158D01*
X224675001Y-95786807D01*
X224675000Y-97216314D01*
X223581315Y-98310000D01*
X206160000Y-98310000D01*
X206160000Y-95091963D01*
X206139960Y-94888493D01*
X206126766Y-94844999D01*
X206836928Y-94844999D01*
X206836928Y-95910000D01*
X206849188Y-96034482D01*
X206885498Y-96154180D01*
X206944463Y-96264494D01*
X207023815Y-96361185D01*
X207120506Y-96440537D01*
X207230820Y-96499502D01*
X207350518Y-96535812D01*
X207475000Y-96548072D01*
X208475000Y-96548072D01*
X208599482Y-96535812D01*
X208719180Y-96499502D01*
X208829494Y-96440537D01*
X208926185Y-96361185D01*
X209005537Y-96264494D01*
X209064502Y-96154180D01*
X209100812Y-96034482D01*
X209113072Y-95910000D01*
X209113072Y-94410000D01*
X209100812Y-94285518D01*
X209064502Y-94165820D01*
X209005537Y-94055506D01*
X208926185Y-93958815D01*
X208829494Y-93879463D01*
X208719180Y-93820498D01*
X208642923Y-93797366D01*
X208609974Y-93735724D01*
X208544921Y-93656456D01*
X213885000Y-93656456D01*
X213885000Y-94303544D01*
X214011240Y-94938199D01*
X214258871Y-95536031D01*
X214618374Y-96074066D01*
X215075934Y-96531626D01*
X215613969Y-96891129D01*
X216211801Y-97138760D01*
X216846456Y-97265000D01*
X217493544Y-97265000D01*
X218128199Y-97138760D01*
X218726031Y-96891129D01*
X219264066Y-96531626D01*
X219721626Y-96074066D01*
X220081129Y-95536031D01*
X220328760Y-94938199D01*
X220455000Y-94303544D01*
X220455000Y-93656456D01*
X220328760Y-93021801D01*
X220081129Y-92423969D01*
X219721626Y-91885934D01*
X219264066Y-91428374D01*
X218726031Y-91068871D01*
X218128199Y-90821240D01*
X217493544Y-90695000D01*
X216846456Y-90695000D01*
X216211801Y-90821240D01*
X215613969Y-91068871D01*
X215075934Y-91428374D01*
X214618374Y-91885934D01*
X214258871Y-92423969D01*
X214011240Y-93021801D01*
X213885000Y-93656456D01*
X208544921Y-93656456D01*
X208515001Y-93619999D01*
X208486002Y-93596200D01*
X208463801Y-93573999D01*
X208440000Y-93544998D01*
X208324275Y-93450025D01*
X208192246Y-93379453D01*
X208048985Y-93335996D01*
X207937332Y-93324999D01*
X207937321Y-93324999D01*
X207899999Y-93321323D01*
X207862677Y-93324999D01*
X201409802Y-93324999D01*
X199735023Y-91650221D01*
X199756846Y-91648072D01*
X200220000Y-91648072D01*
X200344482Y-91635812D01*
X200464180Y-91599502D01*
X200574494Y-91540537D01*
X200671185Y-91461185D01*
X200750537Y-91364494D01*
X200809502Y-91254180D01*
X200845812Y-91134482D01*
X200852874Y-91062777D01*
X200877157Y-91033188D01*
X201005764Y-90792581D01*
X201084960Y-90531507D01*
X201105000Y-90328037D01*
X201105000Y-83935000D01*
X206436315Y-83935000D01*
X206590000Y-84088686D01*
G36*
X124114236Y-94627420D02*
G01*
X124035040Y-94888494D01*
X124015000Y-95091964D01*
X124015001Y-98310000D01*
X117895000Y-98310000D01*
X117895000Y-95091963D01*
X117874960Y-94888493D01*
X117861766Y-94844999D01*
X118571928Y-94844999D01*
X118571928Y-95910000D01*
X118584188Y-96034482D01*
X118620498Y-96154180D01*
X118679463Y-96264494D01*
X118758815Y-96361185D01*
X118855506Y-96440537D01*
X118965820Y-96499502D01*
X119085518Y-96535812D01*
X119210000Y-96548072D01*
X120210000Y-96548072D01*
X120334482Y-96535812D01*
X120454180Y-96499502D01*
X120564494Y-96440537D01*
X120661185Y-96361185D01*
X120740537Y-96264494D01*
X120799502Y-96154180D01*
X120835812Y-96034482D01*
X120848072Y-95910000D01*
X120848072Y-94410000D01*
X120846594Y-94394989D01*
X124238473Y-94394989D01*
X124114236Y-94627420D01*
G37*
X124114236Y-94627420D02*
X124035040Y-94888494D01*
X124015000Y-95091964D01*
X124015001Y-98310000D01*
X117895000Y-98310000D01*
X117895000Y-95091963D01*
X117874960Y-94888493D01*
X117861766Y-94844999D01*
X118571928Y-94844999D01*
X118571928Y-95910000D01*
X118584188Y-96034482D01*
X118620498Y-96154180D01*
X118679463Y-96264494D01*
X118758815Y-96361185D01*
X118855506Y-96440537D01*
X118965820Y-96499502D01*
X119085518Y-96535812D01*
X119210000Y-96548072D01*
X120210000Y-96548072D01*
X120334482Y-96535812D01*
X120454180Y-96499502D01*
X120564494Y-96440537D01*
X120661185Y-96361185D01*
X120740537Y-96264494D01*
X120799502Y-96154180D01*
X120835812Y-96034482D01*
X120848072Y-95910000D01*
X120848072Y-94410000D01*
X120846594Y-94394989D01*
X124238473Y-94394989D01*
X124114236Y-94627420D01*
G36*
X127461928Y-94410000D02*
G01*
X127461928Y-95910000D01*
X127474188Y-96034482D01*
X127510498Y-96154180D01*
X127569463Y-96264494D01*
X127648815Y-96361185D01*
X127745506Y-96440537D01*
X127855820Y-96499502D01*
X127975518Y-96535812D01*
X128100000Y-96548072D01*
X129100000Y-96548072D01*
X129224482Y-96535812D01*
X129344180Y-96499502D01*
X129454494Y-96440537D01*
X129551185Y-96361185D01*
X129630537Y-96264494D01*
X129689502Y-96154180D01*
X129725812Y-96034482D01*
X129738072Y-95910000D01*
X129738072Y-94807326D01*
X129826013Y-94834002D01*
X129937666Y-94844999D01*
X129937675Y-94844999D01*
X129974998Y-94848675D01*
X130012321Y-94844999D01*
X132938234Y-94844999D01*
X132925040Y-94888494D01*
X132905000Y-95091964D01*
X132905001Y-98310000D01*
X126785000Y-98310000D01*
X126785000Y-95091963D01*
X126764960Y-94888493D01*
X126685764Y-94627419D01*
X126561528Y-94394989D01*
X127463406Y-94394989D01*
X127461928Y-94410000D01*
G37*
X127461928Y-94410000D02*
X127461928Y-95910000D01*
X127474188Y-96034482D01*
X127510498Y-96154180D01*
X127569463Y-96264494D01*
X127648815Y-96361185D01*
X127745506Y-96440537D01*
X127855820Y-96499502D01*
X127975518Y-96535812D01*
X128100000Y-96548072D01*
X129100000Y-96548072D01*
X129224482Y-96535812D01*
X129344180Y-96499502D01*
X129454494Y-96440537D01*
X129551185Y-96361185D01*
X129630537Y-96264494D01*
X129689502Y-96154180D01*
X129725812Y-96034482D01*
X129738072Y-95910000D01*
X129738072Y-94807326D01*
X129826013Y-94834002D01*
X129937666Y-94844999D01*
X129937675Y-94844999D01*
X129974998Y-94848675D01*
X130012321Y-94844999D01*
X132938234Y-94844999D01*
X132925040Y-94888494D01*
X132905000Y-95091964D01*
X132905001Y-98310000D01*
X126785000Y-98310000D01*
X126785000Y-95091963D01*
X126764960Y-94888493D01*
X126685764Y-94627419D01*
X126561528Y-94394989D01*
X127463406Y-94394989D01*
X127461928Y-94410000D01*
G36*
X88475040Y-94888494D02*
G01*
X88455000Y-95091964D01*
X88455001Y-98310000D01*
X82335000Y-98310000D01*
X82335000Y-95476213D01*
X82529795Y-95671008D01*
X82553589Y-95700001D01*
X82582582Y-95723795D01*
X82582586Y-95723799D01*
X82610628Y-95746812D01*
X82669314Y-95794974D01*
X82801343Y-95865546D01*
X82944604Y-95909003D01*
X83012488Y-95915689D01*
X83024188Y-96034482D01*
X83060498Y-96154180D01*
X83119463Y-96264494D01*
X83198815Y-96361185D01*
X83295506Y-96440537D01*
X83405820Y-96499502D01*
X83525518Y-96535812D01*
X83650000Y-96548072D01*
X84650000Y-96548072D01*
X84774482Y-96535812D01*
X84894180Y-96499502D01*
X85004494Y-96440537D01*
X85101185Y-96361185D01*
X85180537Y-96264494D01*
X85239502Y-96154180D01*
X85275812Y-96034482D01*
X85288072Y-95910000D01*
X85288072Y-94740000D01*
X88520085Y-94740000D01*
X88475040Y-94888494D01*
G37*
X88475040Y-94888494D02*
X88455000Y-95091964D01*
X88455001Y-98310000D01*
X82335000Y-98310000D01*
X82335000Y-95476213D01*
X82529795Y-95671008D01*
X82553589Y-95700001D01*
X82582582Y-95723795D01*
X82582586Y-95723799D01*
X82610628Y-95746812D01*
X82669314Y-95794974D01*
X82801343Y-95865546D01*
X82944604Y-95909003D01*
X83012488Y-95915689D01*
X83024188Y-96034482D01*
X83060498Y-96154180D01*
X83119463Y-96264494D01*
X83198815Y-96361185D01*
X83295506Y-96440537D01*
X83405820Y-96499502D01*
X83525518Y-96535812D01*
X83650000Y-96548072D01*
X84650000Y-96548072D01*
X84774482Y-96535812D01*
X84894180Y-96499502D01*
X85004494Y-96440537D01*
X85101185Y-96361185D01*
X85180537Y-96264494D01*
X85239502Y-96154180D01*
X85275812Y-96034482D01*
X85288072Y-95910000D01*
X85288072Y-94740000D01*
X88520085Y-94740000D01*
X88475040Y-94888494D01*
G36*
X54715961Y-94935302D02*
G01*
X54924698Y-95144039D01*
X55083281Y-95250000D01*
X54924698Y-95355961D01*
X54715961Y-95564698D01*
X54610000Y-95723281D01*
X54504039Y-95564698D01*
X54295302Y-95355961D01*
X54136719Y-95250000D01*
X54295302Y-95144039D01*
X54504039Y-94935302D01*
X54610000Y-94776719D01*
X54715961Y-94935302D01*
G37*
X54715961Y-94935302D02*
X54924698Y-95144039D01*
X55083281Y-95250000D01*
X54924698Y-95355961D01*
X54715961Y-95564698D01*
X54610000Y-95723281D01*
X54504039Y-95564698D01*
X54295302Y-95355961D01*
X54136719Y-95250000D01*
X54295302Y-95144039D01*
X54504039Y-94935302D01*
X54610000Y-94776719D01*
X54715961Y-94935302D01*
G36*
X82765000Y-84723686D02*
G01*
X82765001Y-90328037D01*
X82785041Y-90531507D01*
X82864237Y-90792581D01*
X82992844Y-91033188D01*
X83017126Y-91062775D01*
X83024188Y-91134482D01*
X83060498Y-91254180D01*
X83119463Y-91364494D01*
X83198815Y-91461185D01*
X83295506Y-91540537D01*
X83405820Y-91599502D01*
X83525518Y-91635812D01*
X83650000Y-91648072D01*
X84113154Y-91648072D01*
X84150000Y-91651701D01*
X84186846Y-91648072D01*
X84650000Y-91648072D01*
X84774482Y-91635812D01*
X84894180Y-91599502D01*
X85004494Y-91540537D01*
X85101185Y-91461185D01*
X85180537Y-91364494D01*
X85239502Y-91254180D01*
X85275812Y-91134482D01*
X85282874Y-91062777D01*
X85307157Y-91033188D01*
X85435764Y-90792581D01*
X85514960Y-90531507D01*
X85535000Y-90328037D01*
X85535000Y-84218029D01*
X85541700Y-84150000D01*
X85535000Y-84081971D01*
X85535000Y-84081963D01*
X85520525Y-83935000D01*
X89596315Y-83935000D01*
X91655000Y-85993686D01*
X91655001Y-90250200D01*
X91153804Y-89749003D01*
X91130001Y-89719999D01*
X91014276Y-89625026D01*
X90978072Y-89605674D01*
X90978072Y-89510000D01*
X90965812Y-89385518D01*
X90929502Y-89265820D01*
X90870537Y-89155506D01*
X90791185Y-89058815D01*
X90694494Y-88979463D01*
X90584180Y-88920498D01*
X90464482Y-88884188D01*
X90340000Y-88871928D01*
X89340000Y-88871928D01*
X89215518Y-88884188D01*
X89095820Y-88920498D01*
X88985506Y-88979463D01*
X88888815Y-89058815D01*
X88809463Y-89155506D01*
X88750498Y-89265820D01*
X88714188Y-89385518D01*
X88701928Y-89510000D01*
X88701928Y-91010000D01*
X88714188Y-91134482D01*
X88750498Y-91254180D01*
X88809463Y-91364494D01*
X88888815Y-91461185D01*
X88985506Y-91540537D01*
X89095820Y-91599502D01*
X89215518Y-91635812D01*
X89340000Y-91648072D01*
X90340000Y-91648072D01*
X90464482Y-91635812D01*
X90584180Y-91599502D01*
X90694494Y-91540537D01*
X90750101Y-91494902D01*
X92475198Y-93220000D01*
X83984802Y-93220000D01*
X82032354Y-91267553D01*
X82039502Y-91254180D01*
X82075812Y-91134482D01*
X82088072Y-91010000D01*
X82088072Y-89510000D01*
X82075812Y-89385518D01*
X82039502Y-89265820D01*
X81980537Y-89155506D01*
X81901185Y-89058815D01*
X81804494Y-88979463D01*
X81694180Y-88920498D01*
X81574482Y-88884188D01*
X81450000Y-88871928D01*
X80450000Y-88871928D01*
X80325518Y-88884188D01*
X80205820Y-88920498D01*
X80095506Y-88979463D01*
X79998815Y-89058815D01*
X79919463Y-89155506D01*
X79860498Y-89265820D01*
X79824188Y-89385518D01*
X79811928Y-89510000D01*
X79811928Y-90816566D01*
X79797866Y-90805026D01*
X79665837Y-90734454D01*
X79522576Y-90690997D01*
X79410923Y-90680000D01*
X79410912Y-90680000D01*
X79373590Y-90676324D01*
X79336268Y-90680000D01*
X57174535Y-90680000D01*
X57044039Y-90484698D01*
X56835302Y-90275961D01*
X56676719Y-90170000D01*
X56835302Y-90064039D01*
X57044039Y-89855302D01*
X57208042Y-89609853D01*
X57321010Y-89337125D01*
X57378600Y-89047599D01*
X57378600Y-88752401D01*
X57321010Y-88462875D01*
X57208042Y-88190147D01*
X57044039Y-87944698D01*
X56835302Y-87735961D01*
X56589853Y-87571958D01*
X56317125Y-87458990D01*
X56027599Y-87401400D01*
X55732401Y-87401400D01*
X55442875Y-87458990D01*
X55170147Y-87571958D01*
X54924698Y-87735961D01*
X54810636Y-87850023D01*
X54793102Y-87792220D01*
X54734137Y-87681906D01*
X54654785Y-87585215D01*
X54558094Y-87505863D01*
X54447780Y-87446898D01*
X54328082Y-87410588D01*
X54203600Y-87398328D01*
X52476400Y-87398328D01*
X52351918Y-87410588D01*
X52232220Y-87446898D01*
X52121906Y-87505863D01*
X52025215Y-87585215D01*
X51945863Y-87681906D01*
X51886898Y-87792220D01*
X51850588Y-87911918D01*
X51838328Y-88036400D01*
X51838328Y-89763600D01*
X51850588Y-89888082D01*
X51886898Y-90007780D01*
X51945863Y-90118094D01*
X52025215Y-90214785D01*
X52121906Y-90294137D01*
X52232220Y-90353102D01*
X52290023Y-90370636D01*
X52175961Y-90484698D01*
X52011958Y-90730147D01*
X51898990Y-91002875D01*
X51841400Y-91292401D01*
X51841400Y-91587599D01*
X51898990Y-91877125D01*
X51933233Y-91959794D01*
X51921014Y-91960997D01*
X51777753Y-92004454D01*
X51645724Y-92075026D01*
X51645722Y-92075027D01*
X51645723Y-92075027D01*
X51558996Y-92146201D01*
X51558992Y-92146205D01*
X51529999Y-92169999D01*
X51506205Y-92198992D01*
X49748072Y-93957126D01*
X49748072Y-93130000D01*
X49735812Y-93005518D01*
X49699502Y-92885820D01*
X49640537Y-92775506D01*
X49561185Y-92678815D01*
X49464494Y-92599463D01*
X49354180Y-92540498D01*
X49281620Y-92518487D01*
X49413475Y-92386632D01*
X49575990Y-92143411D01*
X49687932Y-91873158D01*
X49745000Y-91586260D01*
X49745000Y-91293740D01*
X49687932Y-91006842D01*
X49575990Y-90736589D01*
X49413475Y-90493368D01*
X49206632Y-90286525D01*
X49032240Y-90170000D01*
X49206632Y-90053475D01*
X49413475Y-89846632D01*
X49575990Y-89603411D01*
X49687932Y-89333158D01*
X49745000Y-89046260D01*
X49745000Y-88753740D01*
X49687932Y-88466842D01*
X49645000Y-88363195D01*
X49645000Y-86933685D01*
X52643686Y-83935000D01*
X81976315Y-83935000D01*
X82765000Y-84723686D01*
G37*
X82765000Y-84723686D02*
X82765001Y-90328037D01*
X82785041Y-90531507D01*
X82864237Y-90792581D01*
X82992844Y-91033188D01*
X83017126Y-91062775D01*
X83024188Y-91134482D01*
X83060498Y-91254180D01*
X83119463Y-91364494D01*
X83198815Y-91461185D01*
X83295506Y-91540537D01*
X83405820Y-91599502D01*
X83525518Y-91635812D01*
X83650000Y-91648072D01*
X84113154Y-91648072D01*
X84150000Y-91651701D01*
X84186846Y-91648072D01*
X84650000Y-91648072D01*
X84774482Y-91635812D01*
X84894180Y-91599502D01*
X85004494Y-91540537D01*
X85101185Y-91461185D01*
X85180537Y-91364494D01*
X85239502Y-91254180D01*
X85275812Y-91134482D01*
X85282874Y-91062777D01*
X85307157Y-91033188D01*
X85435764Y-90792581D01*
X85514960Y-90531507D01*
X85535000Y-90328037D01*
X85535000Y-84218029D01*
X85541700Y-84150000D01*
X85535000Y-84081971D01*
X85535000Y-84081963D01*
X85520525Y-83935000D01*
X89596315Y-83935000D01*
X91655000Y-85993686D01*
X91655001Y-90250200D01*
X91153804Y-89749003D01*
X91130001Y-89719999D01*
X91014276Y-89625026D01*
X90978072Y-89605674D01*
X90978072Y-89510000D01*
X90965812Y-89385518D01*
X90929502Y-89265820D01*
X90870537Y-89155506D01*
X90791185Y-89058815D01*
X90694494Y-88979463D01*
X90584180Y-88920498D01*
X90464482Y-88884188D01*
X90340000Y-88871928D01*
X89340000Y-88871928D01*
X89215518Y-88884188D01*
X89095820Y-88920498D01*
X88985506Y-88979463D01*
X88888815Y-89058815D01*
X88809463Y-89155506D01*
X88750498Y-89265820D01*
X88714188Y-89385518D01*
X88701928Y-89510000D01*
X88701928Y-91010000D01*
X88714188Y-91134482D01*
X88750498Y-91254180D01*
X88809463Y-91364494D01*
X88888815Y-91461185D01*
X88985506Y-91540537D01*
X89095820Y-91599502D01*
X89215518Y-91635812D01*
X89340000Y-91648072D01*
X90340000Y-91648072D01*
X90464482Y-91635812D01*
X90584180Y-91599502D01*
X90694494Y-91540537D01*
X90750101Y-91494902D01*
X92475198Y-93220000D01*
X83984802Y-93220000D01*
X82032354Y-91267553D01*
X82039502Y-91254180D01*
X82075812Y-91134482D01*
X82088072Y-91010000D01*
X82088072Y-89510000D01*
X82075812Y-89385518D01*
X82039502Y-89265820D01*
X81980537Y-89155506D01*
X81901185Y-89058815D01*
X81804494Y-88979463D01*
X81694180Y-88920498D01*
X81574482Y-88884188D01*
X81450000Y-88871928D01*
X80450000Y-88871928D01*
X80325518Y-88884188D01*
X80205820Y-88920498D01*
X80095506Y-88979463D01*
X79998815Y-89058815D01*
X79919463Y-89155506D01*
X79860498Y-89265820D01*
X79824188Y-89385518D01*
X79811928Y-89510000D01*
X79811928Y-90816566D01*
X79797866Y-90805026D01*
X79665837Y-90734454D01*
X79522576Y-90690997D01*
X79410923Y-90680000D01*
X79410912Y-90680000D01*
X79373590Y-90676324D01*
X79336268Y-90680000D01*
X57174535Y-90680000D01*
X57044039Y-90484698D01*
X56835302Y-90275961D01*
X56676719Y-90170000D01*
X56835302Y-90064039D01*
X57044039Y-89855302D01*
X57208042Y-89609853D01*
X57321010Y-89337125D01*
X57378600Y-89047599D01*
X57378600Y-88752401D01*
X57321010Y-88462875D01*
X57208042Y-88190147D01*
X57044039Y-87944698D01*
X56835302Y-87735961D01*
X56589853Y-87571958D01*
X56317125Y-87458990D01*
X56027599Y-87401400D01*
X55732401Y-87401400D01*
X55442875Y-87458990D01*
X55170147Y-87571958D01*
X54924698Y-87735961D01*
X54810636Y-87850023D01*
X54793102Y-87792220D01*
X54734137Y-87681906D01*
X54654785Y-87585215D01*
X54558094Y-87505863D01*
X54447780Y-87446898D01*
X54328082Y-87410588D01*
X54203600Y-87398328D01*
X52476400Y-87398328D01*
X52351918Y-87410588D01*
X52232220Y-87446898D01*
X52121906Y-87505863D01*
X52025215Y-87585215D01*
X51945863Y-87681906D01*
X51886898Y-87792220D01*
X51850588Y-87911918D01*
X51838328Y-88036400D01*
X51838328Y-89763600D01*
X51850588Y-89888082D01*
X51886898Y-90007780D01*
X51945863Y-90118094D01*
X52025215Y-90214785D01*
X52121906Y-90294137D01*
X52232220Y-90353102D01*
X52290023Y-90370636D01*
X52175961Y-90484698D01*
X52011958Y-90730147D01*
X51898990Y-91002875D01*
X51841400Y-91292401D01*
X51841400Y-91587599D01*
X51898990Y-91877125D01*
X51933233Y-91959794D01*
X51921014Y-91960997D01*
X51777753Y-92004454D01*
X51645724Y-92075026D01*
X51645722Y-92075027D01*
X51645723Y-92075027D01*
X51558996Y-92146201D01*
X51558992Y-92146205D01*
X51529999Y-92169999D01*
X51506205Y-92198992D01*
X49748072Y-93957126D01*
X49748072Y-93130000D01*
X49735812Y-93005518D01*
X49699502Y-92885820D01*
X49640537Y-92775506D01*
X49561185Y-92678815D01*
X49464494Y-92599463D01*
X49354180Y-92540498D01*
X49281620Y-92518487D01*
X49413475Y-92386632D01*
X49575990Y-92143411D01*
X49687932Y-91873158D01*
X49745000Y-91586260D01*
X49745000Y-91293740D01*
X49687932Y-91006842D01*
X49575990Y-90736589D01*
X49413475Y-90493368D01*
X49206632Y-90286525D01*
X49032240Y-90170000D01*
X49206632Y-90053475D01*
X49413475Y-89846632D01*
X49575990Y-89603411D01*
X49687932Y-89333158D01*
X49745000Y-89046260D01*
X49745000Y-88753740D01*
X49687932Y-88466842D01*
X49645000Y-88363195D01*
X49645000Y-86933685D01*
X52643686Y-83935000D01*
X81976315Y-83935000D01*
X82765000Y-84723686D01*
G36*
X136105000Y-84723686D02*
G01*
X136105001Y-90328037D01*
X136125041Y-90531507D01*
X136204237Y-90792581D01*
X136332844Y-91033188D01*
X136357126Y-91062775D01*
X136364188Y-91134482D01*
X136400498Y-91254180D01*
X136459463Y-91364494D01*
X136538815Y-91461185D01*
X136635506Y-91540537D01*
X136745820Y-91599502D01*
X136865518Y-91635812D01*
X136990000Y-91648072D01*
X137453154Y-91648072D01*
X137490000Y-91651701D01*
X137526846Y-91648072D01*
X137990000Y-91648072D01*
X138114482Y-91635812D01*
X138234180Y-91599502D01*
X138344494Y-91540537D01*
X138441185Y-91461185D01*
X138520537Y-91364494D01*
X138579502Y-91254180D01*
X138615812Y-91134482D01*
X138622874Y-91062777D01*
X138647157Y-91033188D01*
X138775764Y-90792581D01*
X138854960Y-90531507D01*
X138875000Y-90328037D01*
X138875000Y-84218029D01*
X138881700Y-84150000D01*
X138875000Y-84081971D01*
X138875000Y-84081963D01*
X138860525Y-83935000D01*
X144995000Y-83935000D01*
X144995001Y-90250200D01*
X144493804Y-89749003D01*
X144470001Y-89719999D01*
X144354276Y-89625026D01*
X144318072Y-89605674D01*
X144318072Y-89510000D01*
X144305812Y-89385518D01*
X144269502Y-89265820D01*
X144210537Y-89155506D01*
X144131185Y-89058815D01*
X144034494Y-88979463D01*
X143924180Y-88920498D01*
X143804482Y-88884188D01*
X143680000Y-88871928D01*
X142680000Y-88871928D01*
X142555518Y-88884188D01*
X142435820Y-88920498D01*
X142325506Y-88979463D01*
X142228815Y-89058815D01*
X142149463Y-89155506D01*
X142090498Y-89265820D01*
X142054188Y-89385518D01*
X142041928Y-89510000D01*
X142041928Y-91010000D01*
X142054188Y-91134482D01*
X142090498Y-91254180D01*
X142149463Y-91364494D01*
X142228815Y-91461185D01*
X142325506Y-91540537D01*
X142435820Y-91599502D01*
X142555518Y-91635812D01*
X142680000Y-91648072D01*
X143680000Y-91648072D01*
X143804482Y-91635812D01*
X143924180Y-91599502D01*
X144034494Y-91540537D01*
X144090101Y-91494902D01*
X145470187Y-92874989D01*
X136979791Y-92874989D01*
X135372354Y-91267553D01*
X135379502Y-91254180D01*
X135415812Y-91134482D01*
X135428072Y-91010000D01*
X135428072Y-89510000D01*
X135415812Y-89385518D01*
X135379502Y-89265820D01*
X135320537Y-89155506D01*
X135241185Y-89058815D01*
X135144494Y-88979463D01*
X135034180Y-88920498D01*
X134914482Y-88884188D01*
X134790000Y-88871928D01*
X133790000Y-88871928D01*
X133665518Y-88884188D01*
X133545820Y-88920498D01*
X133435506Y-88979463D01*
X133338815Y-89058815D01*
X133259463Y-89155506D01*
X133200498Y-89265820D01*
X133164188Y-89385518D01*
X133151928Y-89510000D01*
X133151928Y-91010000D01*
X133164188Y-91134482D01*
X133200498Y-91254180D01*
X133259463Y-91364494D01*
X133338815Y-91461185D01*
X133435506Y-91540537D01*
X133545820Y-91599502D01*
X133622078Y-91622635D01*
X133655026Y-91684276D01*
X133719936Y-91763368D01*
X133750000Y-91800001D01*
X133778998Y-91823799D01*
X135280197Y-93324999D01*
X130289802Y-93324999D01*
X128615023Y-91650221D01*
X128636846Y-91648072D01*
X129100000Y-91648072D01*
X129224482Y-91635812D01*
X129344180Y-91599502D01*
X129454494Y-91540537D01*
X129551185Y-91461185D01*
X129630537Y-91364494D01*
X129689502Y-91254180D01*
X129725812Y-91134482D01*
X129732874Y-91062777D01*
X129757157Y-91033188D01*
X129885764Y-90792581D01*
X129964960Y-90531507D01*
X129985000Y-90328037D01*
X129985000Y-83935000D01*
X135316315Y-83935000D01*
X136105000Y-84723686D01*
G37*
X136105000Y-84723686D02*
X136105001Y-90328037D01*
X136125041Y-90531507D01*
X136204237Y-90792581D01*
X136332844Y-91033188D01*
X136357126Y-91062775D01*
X136364188Y-91134482D01*
X136400498Y-91254180D01*
X136459463Y-91364494D01*
X136538815Y-91461185D01*
X136635506Y-91540537D01*
X136745820Y-91599502D01*
X136865518Y-91635812D01*
X136990000Y-91648072D01*
X137453154Y-91648072D01*
X137490000Y-91651701D01*
X137526846Y-91648072D01*
X137990000Y-91648072D01*
X138114482Y-91635812D01*
X138234180Y-91599502D01*
X138344494Y-91540537D01*
X138441185Y-91461185D01*
X138520537Y-91364494D01*
X138579502Y-91254180D01*
X138615812Y-91134482D01*
X138622874Y-91062777D01*
X138647157Y-91033188D01*
X138775764Y-90792581D01*
X138854960Y-90531507D01*
X138875000Y-90328037D01*
X138875000Y-84218029D01*
X138881700Y-84150000D01*
X138875000Y-84081971D01*
X138875000Y-84081963D01*
X138860525Y-83935000D01*
X144995000Y-83935000D01*
X144995001Y-90250200D01*
X144493804Y-89749003D01*
X144470001Y-89719999D01*
X144354276Y-89625026D01*
X144318072Y-89605674D01*
X144318072Y-89510000D01*
X144305812Y-89385518D01*
X144269502Y-89265820D01*
X144210537Y-89155506D01*
X144131185Y-89058815D01*
X144034494Y-88979463D01*
X143924180Y-88920498D01*
X143804482Y-88884188D01*
X143680000Y-88871928D01*
X142680000Y-88871928D01*
X142555518Y-88884188D01*
X142435820Y-88920498D01*
X142325506Y-88979463D01*
X142228815Y-89058815D01*
X142149463Y-89155506D01*
X142090498Y-89265820D01*
X142054188Y-89385518D01*
X142041928Y-89510000D01*
X142041928Y-91010000D01*
X142054188Y-91134482D01*
X142090498Y-91254180D01*
X142149463Y-91364494D01*
X142228815Y-91461185D01*
X142325506Y-91540537D01*
X142435820Y-91599502D01*
X142555518Y-91635812D01*
X142680000Y-91648072D01*
X143680000Y-91648072D01*
X143804482Y-91635812D01*
X143924180Y-91599502D01*
X144034494Y-91540537D01*
X144090101Y-91494902D01*
X145470187Y-92874989D01*
X136979791Y-92874989D01*
X135372354Y-91267553D01*
X135379502Y-91254180D01*
X135415812Y-91134482D01*
X135428072Y-91010000D01*
X135428072Y-89510000D01*
X135415812Y-89385518D01*
X135379502Y-89265820D01*
X135320537Y-89155506D01*
X135241185Y-89058815D01*
X135144494Y-88979463D01*
X135034180Y-88920498D01*
X134914482Y-88884188D01*
X134790000Y-88871928D01*
X133790000Y-88871928D01*
X133665518Y-88884188D01*
X133545820Y-88920498D01*
X133435506Y-88979463D01*
X133338815Y-89058815D01*
X133259463Y-89155506D01*
X133200498Y-89265820D01*
X133164188Y-89385518D01*
X133151928Y-89510000D01*
X133151928Y-91010000D01*
X133164188Y-91134482D01*
X133200498Y-91254180D01*
X133259463Y-91364494D01*
X133338815Y-91461185D01*
X133435506Y-91540537D01*
X133545820Y-91599502D01*
X133622078Y-91622635D01*
X133655026Y-91684276D01*
X133719936Y-91763368D01*
X133750000Y-91800001D01*
X133778998Y-91823799D01*
X135280197Y-93324999D01*
X130289802Y-93324999D01*
X128615023Y-91650221D01*
X128636846Y-91648072D01*
X129100000Y-91648072D01*
X129224482Y-91635812D01*
X129344180Y-91599502D01*
X129454494Y-91540537D01*
X129551185Y-91461185D01*
X129630537Y-91364494D01*
X129689502Y-91254180D01*
X129725812Y-91134482D01*
X129732874Y-91062777D01*
X129757157Y-91033188D01*
X129885764Y-90792581D01*
X129964960Y-90531507D01*
X129985000Y-90328037D01*
X129985000Y-83935000D01*
X135316315Y-83935000D01*
X136105000Y-84723686D01*
G36*
X100545000Y-84723686D02*
G01*
X100545001Y-90328037D01*
X100565041Y-90531507D01*
X100644237Y-90792581D01*
X100772844Y-91033188D01*
X100797126Y-91062775D01*
X100804188Y-91134482D01*
X100840498Y-91254180D01*
X100899463Y-91364494D01*
X100978815Y-91461185D01*
X101075506Y-91540537D01*
X101185820Y-91599502D01*
X101305518Y-91635812D01*
X101430000Y-91648072D01*
X101893154Y-91648072D01*
X101930000Y-91651701D01*
X101966846Y-91648072D01*
X102430000Y-91648072D01*
X102554482Y-91635812D01*
X102674180Y-91599502D01*
X102784494Y-91540537D01*
X102881185Y-91461185D01*
X102960537Y-91364494D01*
X103019502Y-91254180D01*
X103055812Y-91134482D01*
X103062874Y-91062777D01*
X103087157Y-91033188D01*
X103215764Y-90792581D01*
X103294960Y-90531507D01*
X103315000Y-90328037D01*
X103315000Y-84218029D01*
X103321700Y-84150000D01*
X103315000Y-84081971D01*
X103315000Y-84081963D01*
X103300525Y-83935000D01*
X109435000Y-83935000D01*
X109435001Y-90250200D01*
X108933804Y-89749003D01*
X108910001Y-89719999D01*
X108794276Y-89625026D01*
X108758072Y-89605674D01*
X108758072Y-89510000D01*
X108745812Y-89385518D01*
X108709502Y-89265820D01*
X108650537Y-89155506D01*
X108571185Y-89058815D01*
X108474494Y-88979463D01*
X108364180Y-88920498D01*
X108244482Y-88884188D01*
X108120000Y-88871928D01*
X107120000Y-88871928D01*
X106995518Y-88884188D01*
X106875820Y-88920498D01*
X106765506Y-88979463D01*
X106668815Y-89058815D01*
X106589463Y-89155506D01*
X106530498Y-89265820D01*
X106494188Y-89385518D01*
X106481928Y-89510000D01*
X106481928Y-91010000D01*
X106494188Y-91134482D01*
X106530498Y-91254180D01*
X106589463Y-91364494D01*
X106668815Y-91461185D01*
X106765506Y-91540537D01*
X106875820Y-91599502D01*
X106995518Y-91635812D01*
X107120000Y-91648072D01*
X108120000Y-91648072D01*
X108244482Y-91635812D01*
X108364180Y-91599502D01*
X108474494Y-91540537D01*
X108530101Y-91494902D01*
X109910187Y-92874989D01*
X101419791Y-92874989D01*
X99812354Y-91267553D01*
X99819502Y-91254180D01*
X99855812Y-91134482D01*
X99868072Y-91010000D01*
X99868072Y-89510000D01*
X99855812Y-89385518D01*
X99819502Y-89265820D01*
X99760537Y-89155506D01*
X99681185Y-89058815D01*
X99584494Y-88979463D01*
X99474180Y-88920498D01*
X99354482Y-88884188D01*
X99230000Y-88871928D01*
X98230000Y-88871928D01*
X98105518Y-88884188D01*
X97985820Y-88920498D01*
X97875506Y-88979463D01*
X97778815Y-89058815D01*
X97699463Y-89155506D01*
X97640498Y-89265820D01*
X97604188Y-89385518D01*
X97591928Y-89510000D01*
X97591928Y-91010000D01*
X97604188Y-91134482D01*
X97640498Y-91254180D01*
X97699463Y-91364494D01*
X97778815Y-91461185D01*
X97875506Y-91540537D01*
X97985820Y-91599502D01*
X98062078Y-91622635D01*
X98095026Y-91684276D01*
X98159936Y-91763368D01*
X98190000Y-91800001D01*
X98218998Y-91823799D01*
X99720197Y-93324999D01*
X94729802Y-93324999D01*
X93055023Y-91650221D01*
X93076846Y-91648072D01*
X93540000Y-91648072D01*
X93664482Y-91635812D01*
X93784180Y-91599502D01*
X93894494Y-91540537D01*
X93991185Y-91461185D01*
X94070537Y-91364494D01*
X94129502Y-91254180D01*
X94165812Y-91134482D01*
X94172874Y-91062777D01*
X94197157Y-91033188D01*
X94325764Y-90792581D01*
X94404960Y-90531507D01*
X94425000Y-90328037D01*
X94425000Y-85488029D01*
X94431700Y-85420000D01*
X94425000Y-85351971D01*
X94425000Y-85351963D01*
X94404960Y-85148493D01*
X94382435Y-85074236D01*
X94325764Y-84887419D01*
X94266083Y-84775764D01*
X94197157Y-84646812D01*
X94137932Y-84574647D01*
X94067452Y-84488766D01*
X94067445Y-84488759D01*
X94024080Y-84435919D01*
X93971241Y-84392555D01*
X93513686Y-83935000D01*
X99756315Y-83935000D01*
X100545000Y-84723686D01*
G37*
X100545000Y-84723686D02*
X100545001Y-90328037D01*
X100565041Y-90531507D01*
X100644237Y-90792581D01*
X100772844Y-91033188D01*
X100797126Y-91062775D01*
X100804188Y-91134482D01*
X100840498Y-91254180D01*
X100899463Y-91364494D01*
X100978815Y-91461185D01*
X101075506Y-91540537D01*
X101185820Y-91599502D01*
X101305518Y-91635812D01*
X101430000Y-91648072D01*
X101893154Y-91648072D01*
X101930000Y-91651701D01*
X101966846Y-91648072D01*
X102430000Y-91648072D01*
X102554482Y-91635812D01*
X102674180Y-91599502D01*
X102784494Y-91540537D01*
X102881185Y-91461185D01*
X102960537Y-91364494D01*
X103019502Y-91254180D01*
X103055812Y-91134482D01*
X103062874Y-91062777D01*
X103087157Y-91033188D01*
X103215764Y-90792581D01*
X103294960Y-90531507D01*
X103315000Y-90328037D01*
X103315000Y-84218029D01*
X103321700Y-84150000D01*
X103315000Y-84081971D01*
X103315000Y-84081963D01*
X103300525Y-83935000D01*
X109435000Y-83935000D01*
X109435001Y-90250200D01*
X108933804Y-89749003D01*
X108910001Y-89719999D01*
X108794276Y-89625026D01*
X108758072Y-89605674D01*
X108758072Y-89510000D01*
X108745812Y-89385518D01*
X108709502Y-89265820D01*
X108650537Y-89155506D01*
X108571185Y-89058815D01*
X108474494Y-88979463D01*
X108364180Y-88920498D01*
X108244482Y-88884188D01*
X108120000Y-88871928D01*
X107120000Y-88871928D01*
X106995518Y-88884188D01*
X106875820Y-88920498D01*
X106765506Y-88979463D01*
X106668815Y-89058815D01*
X106589463Y-89155506D01*
X106530498Y-89265820D01*
X106494188Y-89385518D01*
X106481928Y-89510000D01*
X106481928Y-91010000D01*
X106494188Y-91134482D01*
X106530498Y-91254180D01*
X106589463Y-91364494D01*
X106668815Y-91461185D01*
X106765506Y-91540537D01*
X106875820Y-91599502D01*
X106995518Y-91635812D01*
X107120000Y-91648072D01*
X108120000Y-91648072D01*
X108244482Y-91635812D01*
X108364180Y-91599502D01*
X108474494Y-91540537D01*
X108530101Y-91494902D01*
X109910187Y-92874989D01*
X101419791Y-92874989D01*
X99812354Y-91267553D01*
X99819502Y-91254180D01*
X99855812Y-91134482D01*
X99868072Y-91010000D01*
X99868072Y-89510000D01*
X99855812Y-89385518D01*
X99819502Y-89265820D01*
X99760537Y-89155506D01*
X99681185Y-89058815D01*
X99584494Y-88979463D01*
X99474180Y-88920498D01*
X99354482Y-88884188D01*
X99230000Y-88871928D01*
X98230000Y-88871928D01*
X98105518Y-88884188D01*
X97985820Y-88920498D01*
X97875506Y-88979463D01*
X97778815Y-89058815D01*
X97699463Y-89155506D01*
X97640498Y-89265820D01*
X97604188Y-89385518D01*
X97591928Y-89510000D01*
X97591928Y-91010000D01*
X97604188Y-91134482D01*
X97640498Y-91254180D01*
X97699463Y-91364494D01*
X97778815Y-91461185D01*
X97875506Y-91540537D01*
X97985820Y-91599502D01*
X98062078Y-91622635D01*
X98095026Y-91684276D01*
X98159936Y-91763368D01*
X98190000Y-91800001D01*
X98218998Y-91823799D01*
X99720197Y-93324999D01*
X94729802Y-93324999D01*
X93055023Y-91650221D01*
X93076846Y-91648072D01*
X93540000Y-91648072D01*
X93664482Y-91635812D01*
X93784180Y-91599502D01*
X93894494Y-91540537D01*
X93991185Y-91461185D01*
X94070537Y-91364494D01*
X94129502Y-91254180D01*
X94165812Y-91134482D01*
X94172874Y-91062777D01*
X94197157Y-91033188D01*
X94325764Y-90792581D01*
X94404960Y-90531507D01*
X94425000Y-90328037D01*
X94425000Y-85488029D01*
X94431700Y-85420000D01*
X94425000Y-85351971D01*
X94425000Y-85351963D01*
X94404960Y-85148493D01*
X94382435Y-85074236D01*
X94325764Y-84887419D01*
X94266083Y-84775764D01*
X94197157Y-84646812D01*
X94137932Y-84574647D01*
X94067452Y-84488766D01*
X94067445Y-84488759D01*
X94024080Y-84435919D01*
X93971241Y-84392555D01*
X93513686Y-83935000D01*
X99756315Y-83935000D01*
X100545000Y-84723686D01*
G36*
X153885001Y-90328037D02*
G01*
X153905041Y-90531507D01*
X153984237Y-90792581D01*
X154112844Y-91033188D01*
X154137126Y-91062775D01*
X154144188Y-91134482D01*
X154180498Y-91254180D01*
X154239463Y-91364494D01*
X154318815Y-91461185D01*
X154415506Y-91540537D01*
X154525820Y-91599502D01*
X154645518Y-91635812D01*
X154770000Y-91648072D01*
X155233154Y-91648072D01*
X155270000Y-91651701D01*
X155306846Y-91648072D01*
X155770000Y-91648072D01*
X155894482Y-91635812D01*
X156014180Y-91599502D01*
X156124494Y-91540537D01*
X156221185Y-91461185D01*
X156300537Y-91364494D01*
X156359502Y-91254180D01*
X156395812Y-91134482D01*
X156402874Y-91062777D01*
X156427157Y-91033188D01*
X156555764Y-90792581D01*
X156634960Y-90531507D01*
X156655000Y-90328037D01*
X156655000Y-84063685D01*
X156783686Y-83935000D01*
X162775000Y-83935000D01*
X162775001Y-90250200D01*
X162273804Y-89749003D01*
X162250001Y-89719999D01*
X162134276Y-89625026D01*
X162098072Y-89605674D01*
X162098072Y-89510000D01*
X162085812Y-89385518D01*
X162049502Y-89265820D01*
X161990537Y-89155506D01*
X161911185Y-89058815D01*
X161814494Y-88979463D01*
X161704180Y-88920498D01*
X161584482Y-88884188D01*
X161460000Y-88871928D01*
X160460000Y-88871928D01*
X160335518Y-88884188D01*
X160215820Y-88920498D01*
X160105506Y-88979463D01*
X160008815Y-89058815D01*
X159929463Y-89155506D01*
X159870498Y-89265820D01*
X159834188Y-89385518D01*
X159821928Y-89510000D01*
X159821928Y-91010000D01*
X159834188Y-91134482D01*
X159870498Y-91254180D01*
X159929463Y-91364494D01*
X160008815Y-91461185D01*
X160105506Y-91540537D01*
X160215820Y-91599502D01*
X160335518Y-91635812D01*
X160460000Y-91648072D01*
X161460000Y-91648072D01*
X161584482Y-91635812D01*
X161704180Y-91599502D01*
X161814494Y-91540537D01*
X161870101Y-91494902D01*
X163250187Y-92874989D01*
X154759791Y-92874989D01*
X153152354Y-91267553D01*
X153159502Y-91254180D01*
X153195812Y-91134482D01*
X153208072Y-91010000D01*
X153208072Y-89510000D01*
X153195812Y-89385518D01*
X153159502Y-89265820D01*
X153100537Y-89155506D01*
X153021185Y-89058815D01*
X152924494Y-88979463D01*
X152814180Y-88920498D01*
X152694482Y-88884188D01*
X152570000Y-88871928D01*
X151570000Y-88871928D01*
X151445518Y-88884188D01*
X151325820Y-88920498D01*
X151215506Y-88979463D01*
X151118815Y-89058815D01*
X151039463Y-89155506D01*
X150980498Y-89265820D01*
X150944188Y-89385518D01*
X150931928Y-89510000D01*
X150931928Y-91010000D01*
X150944188Y-91134482D01*
X150980498Y-91254180D01*
X151039463Y-91364494D01*
X151118815Y-91461185D01*
X151215506Y-91540537D01*
X151325820Y-91599502D01*
X151402078Y-91622635D01*
X151435026Y-91684276D01*
X151499936Y-91763368D01*
X151530000Y-91800001D01*
X151558998Y-91823799D01*
X153060197Y-93324999D01*
X148069802Y-93324999D01*
X146395023Y-91650221D01*
X146416846Y-91648072D01*
X146880000Y-91648072D01*
X147004482Y-91635812D01*
X147124180Y-91599502D01*
X147234494Y-91540537D01*
X147331185Y-91461185D01*
X147410537Y-91364494D01*
X147469502Y-91254180D01*
X147505812Y-91134482D01*
X147512874Y-91062777D01*
X147537157Y-91033188D01*
X147665764Y-90792581D01*
X147744960Y-90531507D01*
X147765000Y-90328037D01*
X147765000Y-83935000D01*
X153885000Y-83935000D01*
X153885001Y-90328037D01*
G37*
X153885001Y-90328037D02*
X153905041Y-90531507D01*
X153984237Y-90792581D01*
X154112844Y-91033188D01*
X154137126Y-91062775D01*
X154144188Y-91134482D01*
X154180498Y-91254180D01*
X154239463Y-91364494D01*
X154318815Y-91461185D01*
X154415506Y-91540537D01*
X154525820Y-91599502D01*
X154645518Y-91635812D01*
X154770000Y-91648072D01*
X155233154Y-91648072D01*
X155270000Y-91651701D01*
X155306846Y-91648072D01*
X155770000Y-91648072D01*
X155894482Y-91635812D01*
X156014180Y-91599502D01*
X156124494Y-91540537D01*
X156221185Y-91461185D01*
X156300537Y-91364494D01*
X156359502Y-91254180D01*
X156395812Y-91134482D01*
X156402874Y-91062777D01*
X156427157Y-91033188D01*
X156555764Y-90792581D01*
X156634960Y-90531507D01*
X156655000Y-90328037D01*
X156655000Y-84063685D01*
X156783686Y-83935000D01*
X162775000Y-83935000D01*
X162775001Y-90250200D01*
X162273804Y-89749003D01*
X162250001Y-89719999D01*
X162134276Y-89625026D01*
X162098072Y-89605674D01*
X162098072Y-89510000D01*
X162085812Y-89385518D01*
X162049502Y-89265820D01*
X161990537Y-89155506D01*
X161911185Y-89058815D01*
X161814494Y-88979463D01*
X161704180Y-88920498D01*
X161584482Y-88884188D01*
X161460000Y-88871928D01*
X160460000Y-88871928D01*
X160335518Y-88884188D01*
X160215820Y-88920498D01*
X160105506Y-88979463D01*
X160008815Y-89058815D01*
X159929463Y-89155506D01*
X159870498Y-89265820D01*
X159834188Y-89385518D01*
X159821928Y-89510000D01*
X159821928Y-91010000D01*
X159834188Y-91134482D01*
X159870498Y-91254180D01*
X159929463Y-91364494D01*
X160008815Y-91461185D01*
X160105506Y-91540537D01*
X160215820Y-91599502D01*
X160335518Y-91635812D01*
X160460000Y-91648072D01*
X161460000Y-91648072D01*
X161584482Y-91635812D01*
X161704180Y-91599502D01*
X161814494Y-91540537D01*
X161870101Y-91494902D01*
X163250187Y-92874989D01*
X154759791Y-92874989D01*
X153152354Y-91267553D01*
X153159502Y-91254180D01*
X153195812Y-91134482D01*
X153208072Y-91010000D01*
X153208072Y-89510000D01*
X153195812Y-89385518D01*
X153159502Y-89265820D01*
X153100537Y-89155506D01*
X153021185Y-89058815D01*
X152924494Y-88979463D01*
X152814180Y-88920498D01*
X152694482Y-88884188D01*
X152570000Y-88871928D01*
X151570000Y-88871928D01*
X151445518Y-88884188D01*
X151325820Y-88920498D01*
X151215506Y-88979463D01*
X151118815Y-89058815D01*
X151039463Y-89155506D01*
X150980498Y-89265820D01*
X150944188Y-89385518D01*
X150931928Y-89510000D01*
X150931928Y-91010000D01*
X150944188Y-91134482D01*
X150980498Y-91254180D01*
X151039463Y-91364494D01*
X151118815Y-91461185D01*
X151215506Y-91540537D01*
X151325820Y-91599502D01*
X151402078Y-91622635D01*
X151435026Y-91684276D01*
X151499936Y-91763368D01*
X151530000Y-91800001D01*
X151558998Y-91823799D01*
X153060197Y-93324999D01*
X148069802Y-93324999D01*
X146395023Y-91650221D01*
X146416846Y-91648072D01*
X146880000Y-91648072D01*
X147004482Y-91635812D01*
X147124180Y-91599502D01*
X147234494Y-91540537D01*
X147331185Y-91461185D01*
X147410537Y-91364494D01*
X147469502Y-91254180D01*
X147505812Y-91134482D01*
X147512874Y-91062777D01*
X147537157Y-91033188D01*
X147665764Y-90792581D01*
X147744960Y-90531507D01*
X147765000Y-90328037D01*
X147765000Y-83935000D01*
X153885000Y-83935000D01*
X153885001Y-90328037D01*
G36*
X171665001Y-90328037D02*
G01*
X171685041Y-90531507D01*
X171764237Y-90792581D01*
X171892844Y-91033188D01*
X171917126Y-91062775D01*
X171924188Y-91134482D01*
X171960498Y-91254180D01*
X172019463Y-91364494D01*
X172098815Y-91461185D01*
X172195506Y-91540537D01*
X172305820Y-91599502D01*
X172425518Y-91635812D01*
X172550000Y-91648072D01*
X173013154Y-91648072D01*
X173050000Y-91651701D01*
X173086846Y-91648072D01*
X173550000Y-91648072D01*
X173674482Y-91635812D01*
X173794180Y-91599502D01*
X173904494Y-91540537D01*
X174001185Y-91461185D01*
X174080537Y-91364494D01*
X174139502Y-91254180D01*
X174175812Y-91134482D01*
X174182874Y-91062777D01*
X174207157Y-91033188D01*
X174335764Y-90792581D01*
X174414960Y-90531507D01*
X174435000Y-90328037D01*
X174435000Y-84063685D01*
X174563686Y-83935000D01*
X180555000Y-83935000D01*
X180555001Y-90250200D01*
X180053804Y-89749003D01*
X180030001Y-89719999D01*
X179914276Y-89625026D01*
X179878072Y-89605674D01*
X179878072Y-89510000D01*
X179865812Y-89385518D01*
X179829502Y-89265820D01*
X179770537Y-89155506D01*
X179691185Y-89058815D01*
X179594494Y-88979463D01*
X179484180Y-88920498D01*
X179364482Y-88884188D01*
X179240000Y-88871928D01*
X178240000Y-88871928D01*
X178115518Y-88884188D01*
X177995820Y-88920498D01*
X177885506Y-88979463D01*
X177788815Y-89058815D01*
X177709463Y-89155506D01*
X177650498Y-89265820D01*
X177614188Y-89385518D01*
X177601928Y-89510000D01*
X177601928Y-91010000D01*
X177614188Y-91134482D01*
X177650498Y-91254180D01*
X177709463Y-91364494D01*
X177788815Y-91461185D01*
X177885506Y-91540537D01*
X177995820Y-91599502D01*
X178115518Y-91635812D01*
X178240000Y-91648072D01*
X179240000Y-91648072D01*
X179364482Y-91635812D01*
X179484180Y-91599502D01*
X179594494Y-91540537D01*
X179650101Y-91494902D01*
X181030187Y-92874989D01*
X172539791Y-92874989D01*
X170932354Y-91267553D01*
X170939502Y-91254180D01*
X170975812Y-91134482D01*
X170988072Y-91010000D01*
X170988072Y-89510000D01*
X170975812Y-89385518D01*
X170939502Y-89265820D01*
X170880537Y-89155506D01*
X170801185Y-89058815D01*
X170704494Y-88979463D01*
X170594180Y-88920498D01*
X170474482Y-88884188D01*
X170350000Y-88871928D01*
X169350000Y-88871928D01*
X169225518Y-88884188D01*
X169105820Y-88920498D01*
X168995506Y-88979463D01*
X168898815Y-89058815D01*
X168819463Y-89155506D01*
X168760498Y-89265820D01*
X168724188Y-89385518D01*
X168711928Y-89510000D01*
X168711928Y-91010000D01*
X168724188Y-91134482D01*
X168760498Y-91254180D01*
X168819463Y-91364494D01*
X168898815Y-91461185D01*
X168995506Y-91540537D01*
X169105820Y-91599502D01*
X169182078Y-91622635D01*
X169215026Y-91684276D01*
X169279936Y-91763368D01*
X169310000Y-91800001D01*
X169338998Y-91823799D01*
X170840197Y-93324999D01*
X165849802Y-93324999D01*
X164175023Y-91650221D01*
X164196846Y-91648072D01*
X164660000Y-91648072D01*
X164784482Y-91635812D01*
X164904180Y-91599502D01*
X165014494Y-91540537D01*
X165111185Y-91461185D01*
X165190537Y-91364494D01*
X165249502Y-91254180D01*
X165285812Y-91134482D01*
X165292874Y-91062777D01*
X165317157Y-91033188D01*
X165445764Y-90792581D01*
X165524960Y-90531507D01*
X165545000Y-90328037D01*
X165545000Y-83935000D01*
X171665000Y-83935000D01*
X171665001Y-90328037D01*
G37*
X171665001Y-90328037D02*
X171685041Y-90531507D01*
X171764237Y-90792581D01*
X171892844Y-91033188D01*
X171917126Y-91062775D01*
X171924188Y-91134482D01*
X171960498Y-91254180D01*
X172019463Y-91364494D01*
X172098815Y-91461185D01*
X172195506Y-91540537D01*
X172305820Y-91599502D01*
X172425518Y-91635812D01*
X172550000Y-91648072D01*
X173013154Y-91648072D01*
X173050000Y-91651701D01*
X173086846Y-91648072D01*
X173550000Y-91648072D01*
X173674482Y-91635812D01*
X173794180Y-91599502D01*
X173904494Y-91540537D01*
X174001185Y-91461185D01*
X174080537Y-91364494D01*
X174139502Y-91254180D01*
X174175812Y-91134482D01*
X174182874Y-91062777D01*
X174207157Y-91033188D01*
X174335764Y-90792581D01*
X174414960Y-90531507D01*
X174435000Y-90328037D01*
X174435000Y-84063685D01*
X174563686Y-83935000D01*
X180555000Y-83935000D01*
X180555001Y-90250200D01*
X180053804Y-89749003D01*
X180030001Y-89719999D01*
X179914276Y-89625026D01*
X179878072Y-89605674D01*
X179878072Y-89510000D01*
X179865812Y-89385518D01*
X179829502Y-89265820D01*
X179770537Y-89155506D01*
X179691185Y-89058815D01*
X179594494Y-88979463D01*
X179484180Y-88920498D01*
X179364482Y-88884188D01*
X179240000Y-88871928D01*
X178240000Y-88871928D01*
X178115518Y-88884188D01*
X177995820Y-88920498D01*
X177885506Y-88979463D01*
X177788815Y-89058815D01*
X177709463Y-89155506D01*
X177650498Y-89265820D01*
X177614188Y-89385518D01*
X177601928Y-89510000D01*
X177601928Y-91010000D01*
X177614188Y-91134482D01*
X177650498Y-91254180D01*
X177709463Y-91364494D01*
X177788815Y-91461185D01*
X177885506Y-91540537D01*
X177995820Y-91599502D01*
X178115518Y-91635812D01*
X178240000Y-91648072D01*
X179240000Y-91648072D01*
X179364482Y-91635812D01*
X179484180Y-91599502D01*
X179594494Y-91540537D01*
X179650101Y-91494902D01*
X181030187Y-92874989D01*
X172539791Y-92874989D01*
X170932354Y-91267553D01*
X170939502Y-91254180D01*
X170975812Y-91134482D01*
X170988072Y-91010000D01*
X170988072Y-89510000D01*
X170975812Y-89385518D01*
X170939502Y-89265820D01*
X170880537Y-89155506D01*
X170801185Y-89058815D01*
X170704494Y-88979463D01*
X170594180Y-88920498D01*
X170474482Y-88884188D01*
X170350000Y-88871928D01*
X169350000Y-88871928D01*
X169225518Y-88884188D01*
X169105820Y-88920498D01*
X168995506Y-88979463D01*
X168898815Y-89058815D01*
X168819463Y-89155506D01*
X168760498Y-89265820D01*
X168724188Y-89385518D01*
X168711928Y-89510000D01*
X168711928Y-91010000D01*
X168724188Y-91134482D01*
X168760498Y-91254180D01*
X168819463Y-91364494D01*
X168898815Y-91461185D01*
X168995506Y-91540537D01*
X169105820Y-91599502D01*
X169182078Y-91622635D01*
X169215026Y-91684276D01*
X169279936Y-91763368D01*
X169310000Y-91800001D01*
X169338998Y-91823799D01*
X170840197Y-93324999D01*
X165849802Y-93324999D01*
X164175023Y-91650221D01*
X164196846Y-91648072D01*
X164660000Y-91648072D01*
X164784482Y-91635812D01*
X164904180Y-91599502D01*
X165014494Y-91540537D01*
X165111185Y-91461185D01*
X165190537Y-91364494D01*
X165249502Y-91254180D01*
X165285812Y-91134482D01*
X165292874Y-91062777D01*
X165317157Y-91033188D01*
X165445764Y-90792581D01*
X165524960Y-90531507D01*
X165545000Y-90328037D01*
X165545000Y-83935000D01*
X171665000Y-83935000D01*
X171665001Y-90328037D01*
G36*
X118325000Y-84723686D02*
G01*
X118325001Y-90328037D01*
X118345041Y-90531507D01*
X118424237Y-90792581D01*
X118552844Y-91033188D01*
X118577126Y-91062775D01*
X118584188Y-91134482D01*
X118620498Y-91254180D01*
X118679463Y-91364494D01*
X118758815Y-91461185D01*
X118855506Y-91540537D01*
X118965820Y-91599502D01*
X119085518Y-91635812D01*
X119210000Y-91648072D01*
X119673154Y-91648072D01*
X119710000Y-91651701D01*
X119746846Y-91648072D01*
X120210000Y-91648072D01*
X120334482Y-91635812D01*
X120454180Y-91599502D01*
X120564494Y-91540537D01*
X120661185Y-91461185D01*
X120740537Y-91364494D01*
X120799502Y-91254180D01*
X120835812Y-91134482D01*
X120842874Y-91062777D01*
X120867157Y-91033188D01*
X120995764Y-90792581D01*
X121074960Y-90531507D01*
X121095000Y-90328037D01*
X121095000Y-84218029D01*
X121101700Y-84150000D01*
X121095000Y-84081971D01*
X121095000Y-84081963D01*
X121080525Y-83935000D01*
X127215000Y-83935000D01*
X127215001Y-90250200D01*
X126713804Y-89749003D01*
X126690001Y-89719999D01*
X126574276Y-89625026D01*
X126538072Y-89605674D01*
X126538072Y-89510000D01*
X126525812Y-89385518D01*
X126489502Y-89265820D01*
X126430537Y-89155506D01*
X126351185Y-89058815D01*
X126254494Y-88979463D01*
X126144180Y-88920498D01*
X126024482Y-88884188D01*
X125900000Y-88871928D01*
X124900000Y-88871928D01*
X124775518Y-88884188D01*
X124655820Y-88920498D01*
X124545506Y-88979463D01*
X124448815Y-89058815D01*
X124369463Y-89155506D01*
X124310498Y-89265820D01*
X124274188Y-89385518D01*
X124261928Y-89510000D01*
X124261928Y-91010000D01*
X124274188Y-91134482D01*
X124310498Y-91254180D01*
X124369463Y-91364494D01*
X124448815Y-91461185D01*
X124545506Y-91540537D01*
X124655820Y-91599502D01*
X124775518Y-91635812D01*
X124900000Y-91648072D01*
X125900000Y-91648072D01*
X126024482Y-91635812D01*
X126144180Y-91599502D01*
X126254494Y-91540537D01*
X126310101Y-91494902D01*
X127690187Y-92874989D01*
X119199791Y-92874989D01*
X117592354Y-91267553D01*
X117599502Y-91254180D01*
X117635812Y-91134482D01*
X117648072Y-91010000D01*
X117648072Y-89510000D01*
X117635812Y-89385518D01*
X117599502Y-89265820D01*
X117540537Y-89155506D01*
X117461185Y-89058815D01*
X117364494Y-88979463D01*
X117254180Y-88920498D01*
X117134482Y-88884188D01*
X117010000Y-88871928D01*
X116010000Y-88871928D01*
X115885518Y-88884188D01*
X115765820Y-88920498D01*
X115655506Y-88979463D01*
X115558815Y-89058815D01*
X115479463Y-89155506D01*
X115420498Y-89265820D01*
X115384188Y-89385518D01*
X115371928Y-89510000D01*
X115371928Y-91010000D01*
X115384188Y-91134482D01*
X115420498Y-91254180D01*
X115479463Y-91364494D01*
X115558815Y-91461185D01*
X115655506Y-91540537D01*
X115765820Y-91599502D01*
X115842078Y-91622635D01*
X115875026Y-91684276D01*
X115939936Y-91763368D01*
X115970000Y-91800001D01*
X115998998Y-91823799D01*
X117500197Y-93324999D01*
X112509802Y-93324999D01*
X110835023Y-91650221D01*
X110856846Y-91648072D01*
X111320000Y-91648072D01*
X111444482Y-91635812D01*
X111564180Y-91599502D01*
X111674494Y-91540537D01*
X111771185Y-91461185D01*
X111850537Y-91364494D01*
X111909502Y-91254180D01*
X111945812Y-91134482D01*
X111952874Y-91062777D01*
X111977157Y-91033188D01*
X112105764Y-90792581D01*
X112184960Y-90531507D01*
X112205000Y-90328037D01*
X112205000Y-83935000D01*
X117536315Y-83935000D01*
X118325000Y-84723686D01*
G37*
X118325000Y-84723686D02*
X118325001Y-90328037D01*
X118345041Y-90531507D01*
X118424237Y-90792581D01*
X118552844Y-91033188D01*
X118577126Y-91062775D01*
X118584188Y-91134482D01*
X118620498Y-91254180D01*
X118679463Y-91364494D01*
X118758815Y-91461185D01*
X118855506Y-91540537D01*
X118965820Y-91599502D01*
X119085518Y-91635812D01*
X119210000Y-91648072D01*
X119673154Y-91648072D01*
X119710000Y-91651701D01*
X119746846Y-91648072D01*
X120210000Y-91648072D01*
X120334482Y-91635812D01*
X120454180Y-91599502D01*
X120564494Y-91540537D01*
X120661185Y-91461185D01*
X120740537Y-91364494D01*
X120799502Y-91254180D01*
X120835812Y-91134482D01*
X120842874Y-91062777D01*
X120867157Y-91033188D01*
X120995764Y-90792581D01*
X121074960Y-90531507D01*
X121095000Y-90328037D01*
X121095000Y-84218029D01*
X121101700Y-84150000D01*
X121095000Y-84081971D01*
X121095000Y-84081963D01*
X121080525Y-83935000D01*
X127215000Y-83935000D01*
X127215001Y-90250200D01*
X126713804Y-89749003D01*
X126690001Y-89719999D01*
X126574276Y-89625026D01*
X126538072Y-89605674D01*
X126538072Y-89510000D01*
X126525812Y-89385518D01*
X126489502Y-89265820D01*
X126430537Y-89155506D01*
X126351185Y-89058815D01*
X126254494Y-88979463D01*
X126144180Y-88920498D01*
X126024482Y-88884188D01*
X125900000Y-88871928D01*
X124900000Y-88871928D01*
X124775518Y-88884188D01*
X124655820Y-88920498D01*
X124545506Y-88979463D01*
X124448815Y-89058815D01*
X124369463Y-89155506D01*
X124310498Y-89265820D01*
X124274188Y-89385518D01*
X124261928Y-89510000D01*
X124261928Y-91010000D01*
X124274188Y-91134482D01*
X124310498Y-91254180D01*
X124369463Y-91364494D01*
X124448815Y-91461185D01*
X124545506Y-91540537D01*
X124655820Y-91599502D01*
X124775518Y-91635812D01*
X124900000Y-91648072D01*
X125900000Y-91648072D01*
X126024482Y-91635812D01*
X126144180Y-91599502D01*
X126254494Y-91540537D01*
X126310101Y-91494902D01*
X127690187Y-92874989D01*
X119199791Y-92874989D01*
X117592354Y-91267553D01*
X117599502Y-91254180D01*
X117635812Y-91134482D01*
X117648072Y-91010000D01*
X117648072Y-89510000D01*
X117635812Y-89385518D01*
X117599502Y-89265820D01*
X117540537Y-89155506D01*
X117461185Y-89058815D01*
X117364494Y-88979463D01*
X117254180Y-88920498D01*
X117134482Y-88884188D01*
X117010000Y-88871928D01*
X116010000Y-88871928D01*
X115885518Y-88884188D01*
X115765820Y-88920498D01*
X115655506Y-88979463D01*
X115558815Y-89058815D01*
X115479463Y-89155506D01*
X115420498Y-89265820D01*
X115384188Y-89385518D01*
X115371928Y-89510000D01*
X115371928Y-91010000D01*
X115384188Y-91134482D01*
X115420498Y-91254180D01*
X115479463Y-91364494D01*
X115558815Y-91461185D01*
X115655506Y-91540537D01*
X115765820Y-91599502D01*
X115842078Y-91622635D01*
X115875026Y-91684276D01*
X115939936Y-91763368D01*
X115970000Y-91800001D01*
X115998998Y-91823799D01*
X117500197Y-93324999D01*
X112509802Y-93324999D01*
X110835023Y-91650221D01*
X110856846Y-91648072D01*
X111320000Y-91648072D01*
X111444482Y-91635812D01*
X111564180Y-91599502D01*
X111674494Y-91540537D01*
X111771185Y-91461185D01*
X111850537Y-91364494D01*
X111909502Y-91254180D01*
X111945812Y-91134482D01*
X111952874Y-91062777D01*
X111977157Y-91033188D01*
X112105764Y-90792581D01*
X112184960Y-90531507D01*
X112205000Y-90328037D01*
X112205000Y-83935000D01*
X117536315Y-83935000D01*
X118325000Y-84723686D01*
G36*
X189445000Y-84723686D02*
G01*
X189445001Y-90328037D01*
X189465041Y-90531507D01*
X189544237Y-90792581D01*
X189672844Y-91033188D01*
X189697126Y-91062775D01*
X189704188Y-91134482D01*
X189740498Y-91254180D01*
X189799463Y-91364494D01*
X189878815Y-91461185D01*
X189975506Y-91540537D01*
X190085820Y-91599502D01*
X190205518Y-91635812D01*
X190330000Y-91648072D01*
X190793154Y-91648072D01*
X190830000Y-91651701D01*
X190866846Y-91648072D01*
X191330000Y-91648072D01*
X191454482Y-91635812D01*
X191574180Y-91599502D01*
X191684494Y-91540537D01*
X191781185Y-91461185D01*
X191860537Y-91364494D01*
X191919502Y-91254180D01*
X191955812Y-91134482D01*
X191962874Y-91062777D01*
X191987157Y-91033188D01*
X192115764Y-90792581D01*
X192194960Y-90531507D01*
X192215000Y-90328037D01*
X192215000Y-84218029D01*
X192221700Y-84150000D01*
X192215000Y-84081971D01*
X192215000Y-84081963D01*
X192200525Y-83935000D01*
X198335000Y-83935000D01*
X198335001Y-90250200D01*
X197833804Y-89749003D01*
X197810001Y-89719999D01*
X197694276Y-89625026D01*
X197658072Y-89605674D01*
X197658072Y-89510000D01*
X197645812Y-89385518D01*
X197609502Y-89265820D01*
X197550537Y-89155506D01*
X197471185Y-89058815D01*
X197374494Y-88979463D01*
X197264180Y-88920498D01*
X197144482Y-88884188D01*
X197020000Y-88871928D01*
X196020000Y-88871928D01*
X195895518Y-88884188D01*
X195775820Y-88920498D01*
X195665506Y-88979463D01*
X195568815Y-89058815D01*
X195489463Y-89155506D01*
X195430498Y-89265820D01*
X195394188Y-89385518D01*
X195381928Y-89510000D01*
X195381928Y-91010000D01*
X195394188Y-91134482D01*
X195430498Y-91254180D01*
X195489463Y-91364494D01*
X195568815Y-91461185D01*
X195665506Y-91540537D01*
X195775820Y-91599502D01*
X195895518Y-91635812D01*
X196020000Y-91648072D01*
X197020000Y-91648072D01*
X197144482Y-91635812D01*
X197264180Y-91599502D01*
X197374494Y-91540537D01*
X197430101Y-91494902D01*
X198810187Y-92874989D01*
X190319791Y-92874989D01*
X188712354Y-91267553D01*
X188719502Y-91254180D01*
X188755812Y-91134482D01*
X188768072Y-91010000D01*
X188768072Y-89510000D01*
X188755812Y-89385518D01*
X188719502Y-89265820D01*
X188660537Y-89155506D01*
X188581185Y-89058815D01*
X188484494Y-88979463D01*
X188374180Y-88920498D01*
X188254482Y-88884188D01*
X188130000Y-88871928D01*
X187130000Y-88871928D01*
X187005518Y-88884188D01*
X186885820Y-88920498D01*
X186775506Y-88979463D01*
X186678815Y-89058815D01*
X186599463Y-89155506D01*
X186540498Y-89265820D01*
X186504188Y-89385518D01*
X186491928Y-89510000D01*
X186491928Y-91010000D01*
X186504188Y-91134482D01*
X186540498Y-91254180D01*
X186599463Y-91364494D01*
X186678815Y-91461185D01*
X186775506Y-91540537D01*
X186885820Y-91599502D01*
X186962078Y-91622635D01*
X186995026Y-91684276D01*
X187059936Y-91763368D01*
X187090000Y-91800001D01*
X187118998Y-91823799D01*
X188620197Y-93324999D01*
X183629802Y-93324999D01*
X181955023Y-91650221D01*
X181976846Y-91648072D01*
X182440000Y-91648072D01*
X182564482Y-91635812D01*
X182684180Y-91599502D01*
X182794494Y-91540537D01*
X182891185Y-91461185D01*
X182970537Y-91364494D01*
X183029502Y-91254180D01*
X183065812Y-91134482D01*
X183072874Y-91062777D01*
X183097157Y-91033188D01*
X183225764Y-90792581D01*
X183304960Y-90531507D01*
X183325000Y-90328037D01*
X183325000Y-83935000D01*
X188656315Y-83935000D01*
X189445000Y-84723686D01*
G37*
X189445000Y-84723686D02*
X189445001Y-90328037D01*
X189465041Y-90531507D01*
X189544237Y-90792581D01*
X189672844Y-91033188D01*
X189697126Y-91062775D01*
X189704188Y-91134482D01*
X189740498Y-91254180D01*
X189799463Y-91364494D01*
X189878815Y-91461185D01*
X189975506Y-91540537D01*
X190085820Y-91599502D01*
X190205518Y-91635812D01*
X190330000Y-91648072D01*
X190793154Y-91648072D01*
X190830000Y-91651701D01*
X190866846Y-91648072D01*
X191330000Y-91648072D01*
X191454482Y-91635812D01*
X191574180Y-91599502D01*
X191684494Y-91540537D01*
X191781185Y-91461185D01*
X191860537Y-91364494D01*
X191919502Y-91254180D01*
X191955812Y-91134482D01*
X191962874Y-91062777D01*
X191987157Y-91033188D01*
X192115764Y-90792581D01*
X192194960Y-90531507D01*
X192215000Y-90328037D01*
X192215000Y-84218029D01*
X192221700Y-84150000D01*
X192215000Y-84081971D01*
X192215000Y-84081963D01*
X192200525Y-83935000D01*
X198335000Y-83935000D01*
X198335001Y-90250200D01*
X197833804Y-89749003D01*
X197810001Y-89719999D01*
X197694276Y-89625026D01*
X197658072Y-89605674D01*
X197658072Y-89510000D01*
X197645812Y-89385518D01*
X197609502Y-89265820D01*
X197550537Y-89155506D01*
X197471185Y-89058815D01*
X197374494Y-88979463D01*
X197264180Y-88920498D01*
X197144482Y-88884188D01*
X197020000Y-88871928D01*
X196020000Y-88871928D01*
X195895518Y-88884188D01*
X195775820Y-88920498D01*
X195665506Y-88979463D01*
X195568815Y-89058815D01*
X195489463Y-89155506D01*
X195430498Y-89265820D01*
X195394188Y-89385518D01*
X195381928Y-89510000D01*
X195381928Y-91010000D01*
X195394188Y-91134482D01*
X195430498Y-91254180D01*
X195489463Y-91364494D01*
X195568815Y-91461185D01*
X195665506Y-91540537D01*
X195775820Y-91599502D01*
X195895518Y-91635812D01*
X196020000Y-91648072D01*
X197020000Y-91648072D01*
X197144482Y-91635812D01*
X197264180Y-91599502D01*
X197374494Y-91540537D01*
X197430101Y-91494902D01*
X198810187Y-92874989D01*
X190319791Y-92874989D01*
X188712354Y-91267553D01*
X188719502Y-91254180D01*
X188755812Y-91134482D01*
X188768072Y-91010000D01*
X188768072Y-89510000D01*
X188755812Y-89385518D01*
X188719502Y-89265820D01*
X188660537Y-89155506D01*
X188581185Y-89058815D01*
X188484494Y-88979463D01*
X188374180Y-88920498D01*
X188254482Y-88884188D01*
X188130000Y-88871928D01*
X187130000Y-88871928D01*
X187005518Y-88884188D01*
X186885820Y-88920498D01*
X186775506Y-88979463D01*
X186678815Y-89058815D01*
X186599463Y-89155506D01*
X186540498Y-89265820D01*
X186504188Y-89385518D01*
X186491928Y-89510000D01*
X186491928Y-91010000D01*
X186504188Y-91134482D01*
X186540498Y-91254180D01*
X186599463Y-91364494D01*
X186678815Y-91461185D01*
X186775506Y-91540537D01*
X186885820Y-91599502D01*
X186962078Y-91622635D01*
X186995026Y-91684276D01*
X187059936Y-91763368D01*
X187090000Y-91800001D01*
X187118998Y-91823799D01*
X188620197Y-93324999D01*
X183629802Y-93324999D01*
X181955023Y-91650221D01*
X181976846Y-91648072D01*
X182440000Y-91648072D01*
X182564482Y-91635812D01*
X182684180Y-91599502D01*
X182794494Y-91540537D01*
X182891185Y-91461185D01*
X182970537Y-91364494D01*
X183029502Y-91254180D01*
X183065812Y-91134482D01*
X183072874Y-91062777D01*
X183097157Y-91033188D01*
X183225764Y-90792581D01*
X183304960Y-90531507D01*
X183325000Y-90328037D01*
X183325000Y-83935000D01*
X188656315Y-83935000D01*
X189445000Y-84723686D01*
G36*
X224571928Y-89370614D02*
G01*
X224571928Y-91020000D01*
X224584188Y-91144482D01*
X224620498Y-91264180D01*
X224679463Y-91374494D01*
X224758815Y-91471185D01*
X224855506Y-91550537D01*
X224965820Y-91609502D01*
X225038380Y-91631513D01*
X224912347Y-91757546D01*
X219003804Y-85849003D01*
X218980001Y-85819999D01*
X218864276Y-85725026D01*
X218732247Y-85654454D01*
X218588986Y-85610997D01*
X218477333Y-85600000D01*
X218477322Y-85600000D01*
X218440000Y-85596324D01*
X218402678Y-85600000D01*
X213747325Y-85600000D01*
X213710002Y-85596324D01*
X213672679Y-85600000D01*
X213672669Y-85600000D01*
X213561016Y-85610997D01*
X213417755Y-85654454D01*
X213285725Y-85725026D01*
X213202085Y-85793668D01*
X213170001Y-85819999D01*
X213146203Y-85848997D01*
X209360000Y-89635201D01*
X209360000Y-83935000D01*
X219136315Y-83935000D01*
X224571928Y-89370614D01*
G37*
X224571928Y-89370614D02*
X224571928Y-91020000D01*
X224584188Y-91144482D01*
X224620498Y-91264180D01*
X224679463Y-91374494D01*
X224758815Y-91471185D01*
X224855506Y-91550537D01*
X224965820Y-91609502D01*
X225038380Y-91631513D01*
X224912347Y-91757546D01*
X219003804Y-85849003D01*
X218980001Y-85819999D01*
X218864276Y-85725026D01*
X218732247Y-85654454D01*
X218588986Y-85610997D01*
X218477333Y-85600000D01*
X218477322Y-85600000D01*
X218440000Y-85596324D01*
X218402678Y-85600000D01*
X213747325Y-85600000D01*
X213710002Y-85596324D01*
X213672679Y-85600000D01*
X213672669Y-85600000D01*
X213561016Y-85610997D01*
X213417755Y-85654454D01*
X213285725Y-85725026D01*
X213202085Y-85793668D01*
X213170001Y-85819999D01*
X213146203Y-85848997D01*
X209360000Y-89635201D01*
X209360000Y-83935000D01*
X219136315Y-83935000D01*
X224571928Y-89370614D01*
G36*
X54924698Y-90064039D02*
G01*
X55083281Y-90170000D01*
X54924698Y-90275961D01*
X54715961Y-90484698D01*
X54610000Y-90643281D01*
X54504039Y-90484698D01*
X54389977Y-90370636D01*
X54447780Y-90353102D01*
X54558094Y-90294137D01*
X54654785Y-90214785D01*
X54734137Y-90118094D01*
X54793102Y-90007780D01*
X54810636Y-89949977D01*
X54924698Y-90064039D01*
G37*
X54924698Y-90064039D02*
X55083281Y-90170000D01*
X54924698Y-90275961D01*
X54715961Y-90484698D01*
X54610000Y-90643281D01*
X54504039Y-90484698D01*
X54389977Y-90370636D01*
X54447780Y-90353102D01*
X54558094Y-90294137D01*
X54654785Y-90214785D01*
X54734137Y-90118094D01*
X54793102Y-90007780D01*
X54810636Y-89949977D01*
X54924698Y-90064039D01*
M02*
