G04 #@! TF.GenerationSoftware,KiCad,Pcbnew,5.1.5+dfsg1-2build2*
G04 #@! TF.CreationDate,2020-06-17T01:27:21-04:00*
G04 #@! TF.ProjectId,RE_light,52455f6c-6967-4687-942e-6b696361645f,rev?*
G04 #@! TF.SameCoordinates,Original*
G04 #@! TF.FileFunction,Legend,Top*
G04 #@! TF.FilePolarity,Positive*
%FSLAX46Y46*%
G04 Gerber Fmt 4.6, Leading zero omitted, Abs format (unit mm)*
G04 Created by KiCad (PCBNEW 5.1.5+dfsg1-2build2) date 2020-06-17 01:27:21*
%MOMM*%
%LPD*%
G04 APERTURE LIST*
%ADD10C,0.150000*%
%ADD11C,0.125000*%
%ADD12C,0.022500*%
%ADD13C,0.120000*%
%ADD14C,0.152400*%
G04 APERTURE END LIST*
D10*
X221488095Y-94750000D02*
X221392857Y-94702380D01*
X221250000Y-94702380D01*
X221107142Y-94750000D01*
X221011904Y-94845238D01*
X220964285Y-94940476D01*
X220916666Y-95130952D01*
X220916666Y-95273809D01*
X220964285Y-95464285D01*
X221011904Y-95559523D01*
X221107142Y-95654761D01*
X221250000Y-95702380D01*
X221345238Y-95702380D01*
X221488095Y-95654761D01*
X221535714Y-95607142D01*
X221535714Y-95273809D01*
X221345238Y-95273809D01*
X221964285Y-95702380D02*
X221964285Y-94702380D01*
X222535714Y-95702380D01*
X222535714Y-94702380D01*
X223011904Y-95702380D02*
X223011904Y-94702380D01*
X223250000Y-94702380D01*
X223392857Y-94750000D01*
X223488095Y-94845238D01*
X223535714Y-94940476D01*
X223583333Y-95130952D01*
X223583333Y-95273809D01*
X223535714Y-95464285D01*
X223488095Y-95559523D01*
X223392857Y-95654761D01*
X223250000Y-95702380D01*
X223011904Y-95702380D01*
X220559523Y-93162380D02*
X220559523Y-92162380D01*
X220797619Y-92162380D01*
X220940476Y-92210000D01*
X221035714Y-92305238D01*
X221083333Y-92400476D01*
X221130952Y-92590952D01*
X221130952Y-92733809D01*
X221083333Y-92924285D01*
X221035714Y-93019523D01*
X220940476Y-93114761D01*
X220797619Y-93162380D01*
X220559523Y-93162380D01*
X221750000Y-92162380D02*
X221940476Y-92162380D01*
X222035714Y-92210000D01*
X222130952Y-92305238D01*
X222178571Y-92495714D01*
X222178571Y-92829047D01*
X222130952Y-93019523D01*
X222035714Y-93114761D01*
X221940476Y-93162380D01*
X221750000Y-93162380D01*
X221654761Y-93114761D01*
X221559523Y-93019523D01*
X221511904Y-92829047D01*
X221511904Y-92495714D01*
X221559523Y-92305238D01*
X221654761Y-92210000D01*
X221750000Y-92162380D01*
X222607142Y-92162380D02*
X222607142Y-92971904D01*
X222654761Y-93067142D01*
X222702380Y-93114761D01*
X222797619Y-93162380D01*
X222988095Y-93162380D01*
X223083333Y-93114761D01*
X223130952Y-93067142D01*
X223178571Y-92971904D01*
X223178571Y-92162380D01*
X223511904Y-92162380D02*
X224083333Y-92162380D01*
X223797619Y-93162380D02*
X223797619Y-92162380D01*
X222059523Y-89622380D02*
X221583333Y-89622380D01*
X221535714Y-90098571D01*
X221583333Y-90050952D01*
X221678571Y-90003333D01*
X221916666Y-90003333D01*
X222011904Y-90050952D01*
X222059523Y-90098571D01*
X222107142Y-90193809D01*
X222107142Y-90431904D01*
X222059523Y-90527142D01*
X222011904Y-90574761D01*
X221916666Y-90622380D01*
X221678571Y-90622380D01*
X221583333Y-90574761D01*
X221535714Y-90527142D01*
X222392857Y-89622380D02*
X222726190Y-90622380D01*
X223059523Y-89622380D01*
X33528095Y-96020000D02*
X33432857Y-95972380D01*
X33290000Y-95972380D01*
X33147142Y-96020000D01*
X33051904Y-96115238D01*
X33004285Y-96210476D01*
X32956666Y-96400952D01*
X32956666Y-96543809D01*
X33004285Y-96734285D01*
X33051904Y-96829523D01*
X33147142Y-96924761D01*
X33290000Y-96972380D01*
X33385238Y-96972380D01*
X33528095Y-96924761D01*
X33575714Y-96877142D01*
X33575714Y-96543809D01*
X33385238Y-96543809D01*
X34004285Y-96972380D02*
X34004285Y-95972380D01*
X34575714Y-96972380D01*
X34575714Y-95972380D01*
X35051904Y-96972380D02*
X35051904Y-95972380D01*
X35290000Y-95972380D01*
X35432857Y-96020000D01*
X35528095Y-96115238D01*
X35575714Y-96210476D01*
X35623333Y-96400952D01*
X35623333Y-96543809D01*
X35575714Y-96734285D01*
X35528095Y-96829523D01*
X35432857Y-96924761D01*
X35290000Y-96972380D01*
X35051904Y-96972380D01*
X33266190Y-94432380D02*
X33266190Y-93432380D01*
X33504285Y-93432380D01*
X33647142Y-93480000D01*
X33742380Y-93575238D01*
X33790000Y-93670476D01*
X33837619Y-93860952D01*
X33837619Y-94003809D01*
X33790000Y-94194285D01*
X33742380Y-94289523D01*
X33647142Y-94384761D01*
X33504285Y-94432380D01*
X33266190Y-94432380D01*
X34266190Y-94432380D02*
X34266190Y-93432380D01*
X34742380Y-94432380D02*
X34742380Y-93432380D01*
X35313809Y-94432380D01*
X35313809Y-93432380D01*
X34099523Y-90892380D02*
X33623333Y-90892380D01*
X33575714Y-91368571D01*
X33623333Y-91320952D01*
X33718571Y-91273333D01*
X33956666Y-91273333D01*
X34051904Y-91320952D01*
X34099523Y-91368571D01*
X34147142Y-91463809D01*
X34147142Y-91701904D01*
X34099523Y-91797142D01*
X34051904Y-91844761D01*
X33956666Y-91892380D01*
X33718571Y-91892380D01*
X33623333Y-91844761D01*
X33575714Y-91797142D01*
X34432857Y-90892380D02*
X34766190Y-91892380D01*
X35099523Y-90892380D01*
D11*
X58556190Y-96746190D02*
X58556190Y-96246190D01*
X58794285Y-96246190D01*
X58937142Y-96270000D01*
X59032380Y-96317619D01*
X59079999Y-96365238D01*
X59127619Y-96460476D01*
X59127619Y-96531904D01*
X59079999Y-96627142D01*
X59032380Y-96674761D01*
X58937142Y-96722380D01*
X58794285Y-96746190D01*
X58556190Y-96746190D01*
X59937142Y-96722380D02*
X59841904Y-96746190D01*
X59651428Y-96746190D01*
X59556190Y-96722380D01*
X59508571Y-96674761D01*
X59508571Y-96484285D01*
X59556190Y-96436666D01*
X59651428Y-96412857D01*
X59841904Y-96412857D01*
X59937142Y-96436666D01*
X59984761Y-96484285D01*
X59984761Y-96531904D01*
X59508571Y-96579523D01*
X60365714Y-96722380D02*
X60460952Y-96746190D01*
X60651428Y-96746190D01*
X60746666Y-96722380D01*
X60794285Y-96674761D01*
X60794285Y-96650952D01*
X60746666Y-96603333D01*
X60651428Y-96579523D01*
X60508571Y-96579523D01*
X60413333Y-96555714D01*
X60365714Y-96508095D01*
X60365714Y-96484285D01*
X60413333Y-96436666D01*
X60508571Y-96412857D01*
X60651428Y-96412857D01*
X60746666Y-96436666D01*
X61222857Y-96746190D02*
X61222857Y-96412857D01*
X61222857Y-96246190D02*
X61175238Y-96270000D01*
X61222857Y-96293809D01*
X61270476Y-96270000D01*
X61222857Y-96246190D01*
X61222857Y-96293809D01*
X62127619Y-96412857D02*
X62127619Y-96817619D01*
X62079999Y-96865238D01*
X62032380Y-96889047D01*
X61937142Y-96912857D01*
X61794285Y-96912857D01*
X61699047Y-96889047D01*
X62127619Y-96722380D02*
X62032380Y-96746190D01*
X61841904Y-96746190D01*
X61746666Y-96722380D01*
X61699047Y-96698571D01*
X61651428Y-96650952D01*
X61651428Y-96508095D01*
X61699047Y-96460476D01*
X61746666Y-96436666D01*
X61841904Y-96412857D01*
X62032380Y-96412857D01*
X62127619Y-96436666D01*
X62603809Y-96412857D02*
X62603809Y-96746190D01*
X62603809Y-96460476D02*
X62651428Y-96436666D01*
X62746666Y-96412857D01*
X62889523Y-96412857D01*
X62984761Y-96436666D01*
X63032380Y-96484285D01*
X63032380Y-96746190D01*
X63889523Y-96722380D02*
X63794285Y-96746190D01*
X63603809Y-96746190D01*
X63508571Y-96722380D01*
X63460952Y-96674761D01*
X63460952Y-96484285D01*
X63508571Y-96436666D01*
X63603809Y-96412857D01*
X63794285Y-96412857D01*
X63889523Y-96436666D01*
X63937142Y-96484285D01*
X63937142Y-96531904D01*
X63460952Y-96579523D01*
X64794285Y-96746190D02*
X64794285Y-96246190D01*
X64794285Y-96722380D02*
X64699047Y-96746190D01*
X64508571Y-96746190D01*
X64413333Y-96722380D01*
X64365714Y-96698571D01*
X64318095Y-96650952D01*
X64318095Y-96508095D01*
X64365714Y-96460476D01*
X64413333Y-96436666D01*
X64508571Y-96412857D01*
X64699047Y-96412857D01*
X64794285Y-96436666D01*
X66032380Y-96746190D02*
X66032380Y-96246190D01*
X66032380Y-96436666D02*
X66127619Y-96412857D01*
X66318095Y-96412857D01*
X66413333Y-96436666D01*
X66460952Y-96460476D01*
X66508571Y-96508095D01*
X66508571Y-96650952D01*
X66460952Y-96698571D01*
X66413333Y-96722380D01*
X66318095Y-96746190D01*
X66127619Y-96746190D01*
X66032380Y-96722380D01*
X66841904Y-96412857D02*
X67079999Y-96746190D01*
X67318095Y-96412857D02*
X67079999Y-96746190D01*
X66984761Y-96865238D01*
X66937142Y-96889047D01*
X66841904Y-96912857D01*
X68937142Y-96246190D02*
X68460952Y-96246190D01*
X68413333Y-96484285D01*
X68460952Y-96460476D01*
X68556190Y-96436666D01*
X68794285Y-96436666D01*
X68889523Y-96460476D01*
X68937142Y-96484285D01*
X68984761Y-96531904D01*
X68984761Y-96650952D01*
X68937142Y-96698571D01*
X68889523Y-96722380D01*
X68794285Y-96746190D01*
X68556190Y-96746190D01*
X68460952Y-96722380D01*
X68413333Y-96698571D01*
X70127619Y-96722380D02*
X70270476Y-96746190D01*
X70508571Y-96746190D01*
X70603809Y-96722380D01*
X70651428Y-96698571D01*
X70699047Y-96650952D01*
X70699047Y-96603333D01*
X70651428Y-96555714D01*
X70603809Y-96531904D01*
X70508571Y-96508095D01*
X70318095Y-96484285D01*
X70222857Y-96460476D01*
X70175238Y-96436666D01*
X70127619Y-96389047D01*
X70127619Y-96341428D01*
X70175238Y-96293809D01*
X70222857Y-96270000D01*
X70318095Y-96246190D01*
X70556190Y-96246190D01*
X70699047Y-96270000D01*
X71127619Y-96412857D02*
X71127619Y-96912857D01*
X71127619Y-96436666D02*
X71222857Y-96412857D01*
X71413333Y-96412857D01*
X71508571Y-96436666D01*
X71556190Y-96460476D01*
X71603809Y-96508095D01*
X71603809Y-96650952D01*
X71556190Y-96698571D01*
X71508571Y-96722380D01*
X71413333Y-96746190D01*
X71222857Y-96746190D01*
X71127619Y-96722380D01*
X72413333Y-96722380D02*
X72318095Y-96746190D01*
X72127619Y-96746190D01*
X72032380Y-96722380D01*
X71984761Y-96674761D01*
X71984761Y-96484285D01*
X72032380Y-96436666D01*
X72127619Y-96412857D01*
X72318095Y-96412857D01*
X72413333Y-96436666D01*
X72460952Y-96484285D01*
X72460952Y-96531904D01*
X71984761Y-96579523D01*
X73270476Y-96722380D02*
X73175238Y-96746190D01*
X72984761Y-96746190D01*
X72889523Y-96722380D01*
X72841904Y-96674761D01*
X72841904Y-96484285D01*
X72889523Y-96436666D01*
X72984761Y-96412857D01*
X73175238Y-96412857D01*
X73270476Y-96436666D01*
X73318095Y-96484285D01*
X73318095Y-96531904D01*
X72841904Y-96579523D01*
X74175238Y-96746190D02*
X74175238Y-96246190D01*
X74175238Y-96722380D02*
X74079999Y-96746190D01*
X73889523Y-96746190D01*
X73794285Y-96722380D01*
X73746666Y-96698571D01*
X73699047Y-96650952D01*
X73699047Y-96508095D01*
X73746666Y-96460476D01*
X73794285Y-96436666D01*
X73889523Y-96412857D01*
X74079999Y-96412857D01*
X74175238Y-96436666D01*
X75746666Y-96484285D02*
X75413333Y-96484285D01*
X75413333Y-96746190D02*
X75413333Y-96246190D01*
X75889523Y-96246190D01*
X76699047Y-96746190D02*
X76699047Y-96484285D01*
X76651428Y-96436666D01*
X76556190Y-96412857D01*
X76365714Y-96412857D01*
X76270476Y-96436666D01*
X76699047Y-96722380D02*
X76603809Y-96746190D01*
X76365714Y-96746190D01*
X76270476Y-96722380D01*
X76222857Y-96674761D01*
X76222857Y-96627142D01*
X76270476Y-96579523D01*
X76365714Y-96555714D01*
X76603809Y-96555714D01*
X76699047Y-96531904D01*
X77032380Y-96412857D02*
X77413333Y-96412857D01*
X77175238Y-96246190D02*
X77175238Y-96674761D01*
X77222857Y-96722380D01*
X77318095Y-96746190D01*
X77413333Y-96746190D01*
X77603809Y-96412857D02*
X77984761Y-96412857D01*
X77746666Y-96246190D02*
X77746666Y-96674761D01*
X77794285Y-96722380D01*
X77889523Y-96746190D01*
X77984761Y-96746190D01*
X78222857Y-96412857D02*
X78460952Y-96746190D01*
X78699047Y-96412857D02*
X78460952Y-96746190D01*
X78365714Y-96865238D01*
X78318095Y-96889047D01*
X78222857Y-96912857D01*
D10*
X63778095Y-94432380D02*
X63444761Y-93956190D01*
X63206666Y-94432380D02*
X63206666Y-93432380D01*
X63587619Y-93432380D01*
X63682857Y-93480000D01*
X63730476Y-93527619D01*
X63778095Y-93622857D01*
X63778095Y-93765714D01*
X63730476Y-93860952D01*
X63682857Y-93908571D01*
X63587619Y-93956190D01*
X63206666Y-93956190D01*
X64730476Y-93480000D02*
X64635238Y-93432380D01*
X64492380Y-93432380D01*
X64349523Y-93480000D01*
X64254285Y-93575238D01*
X64206666Y-93670476D01*
X64159047Y-93860952D01*
X64159047Y-94003809D01*
X64206666Y-94194285D01*
X64254285Y-94289523D01*
X64349523Y-94384761D01*
X64492380Y-94432380D01*
X64587619Y-94432380D01*
X64730476Y-94384761D01*
X64778095Y-94337142D01*
X64778095Y-94003809D01*
X64587619Y-94003809D01*
X65540000Y-93908571D02*
X65682857Y-93956190D01*
X65730476Y-94003809D01*
X65778095Y-94099047D01*
X65778095Y-94241904D01*
X65730476Y-94337142D01*
X65682857Y-94384761D01*
X65587619Y-94432380D01*
X65206666Y-94432380D01*
X65206666Y-93432380D01*
X65540000Y-93432380D01*
X65635238Y-93480000D01*
X65682857Y-93527619D01*
X65730476Y-93622857D01*
X65730476Y-93718095D01*
X65682857Y-93813333D01*
X65635238Y-93860952D01*
X65540000Y-93908571D01*
X65206666Y-93908571D01*
X66206666Y-94051428D02*
X66968571Y-94051428D01*
X67635238Y-93432380D02*
X67730476Y-93432380D01*
X67825714Y-93480000D01*
X67873333Y-93527619D01*
X67920952Y-93622857D01*
X67968571Y-93813333D01*
X67968571Y-94051428D01*
X67920952Y-94241904D01*
X67873333Y-94337142D01*
X67825714Y-94384761D01*
X67730476Y-94432380D01*
X67635238Y-94432380D01*
X67540000Y-94384761D01*
X67492380Y-94337142D01*
X67444761Y-94241904D01*
X67397142Y-94051428D01*
X67397142Y-93813333D01*
X67444761Y-93622857D01*
X67492380Y-93527619D01*
X67540000Y-93480000D01*
X67635238Y-93432380D01*
X68920952Y-94432380D02*
X68349523Y-94432380D01*
X68635238Y-94432380D02*
X68635238Y-93432380D01*
X68540000Y-93575238D01*
X68444761Y-93670476D01*
X68349523Y-93718095D01*
D12*
X227008185Y-101568893D02*
G75*
G02X227022549Y-101649800I-201471J-77496D01*
G01*
X225497395Y-101598587D02*
X225400141Y-101924154D01*
X225771267Y-100731849D02*
G75*
G02X225801688Y-100751564I-134051J-240173D01*
G01*
X226238122Y-100717969D02*
X226331727Y-100717969D01*
X224834449Y-101690900D02*
G75*
G02X224847684Y-101592240I350602J3188D01*
G01*
X225940117Y-101577929D02*
G75*
G02X225971971Y-101548880I58088J-31707D01*
G01*
X225589979Y-101022233D02*
G75*
G02X225586426Y-100993775I187840J37904D01*
G01*
X225499130Y-101598587D02*
X225497395Y-101598587D01*
X226953689Y-101188782D02*
G75*
G02X226876858Y-101175064I-998J216428D01*
G01*
X226535879Y-101453342D02*
G75*
G02X226585787Y-101462325I37J-142922D01*
G01*
X224514722Y-101924154D02*
X224421117Y-101924154D01*
X225298532Y-100906250D02*
G75*
G02X225332121Y-100910898I-14616J-229319D01*
G01*
X225400141Y-101924154D02*
X225317512Y-101924154D01*
X227455207Y-101056015D02*
G75*
G02X227407489Y-101089745I-111452J107052D01*
G01*
X225168460Y-101086033D02*
G75*
G02X225101214Y-101041168I79686J192265D01*
G01*
X225871978Y-100884813D02*
G75*
G02X225874884Y-100950148I-637101J-61068D01*
G01*
X223986045Y-101691330D02*
G75*
G02X224031987Y-101661581I84997J-80911D01*
G01*
X225112455Y-101270870D02*
X225112455Y-101924154D01*
X226799410Y-101834559D02*
G75*
G02X226763907Y-101813014I35142J97934D01*
G01*
X224031987Y-101661581D02*
G75*
G02X224095790Y-101651091I62550J-181176D01*
G01*
X223101636Y-101150453D02*
G75*
G02X223078800Y-101129607I96293J128419D01*
G01*
X226238122Y-100995550D02*
G75*
G02X226231567Y-101037779I-125627J-2122D01*
G01*
X223408993Y-101016611D02*
G75*
G02X223400278Y-101063225I-237738J20324D01*
G01*
X224824548Y-101912749D02*
G75*
G02X224773979Y-101869498I70901J134085D01*
G01*
X226904333Y-101086584D02*
G75*
G02X226866475Y-101059513I33852J87345D01*
G01*
X223308289Y-101169954D02*
G75*
G02X223269261Y-101184075I-67223J124800D01*
G01*
X226118720Y-101925875D02*
X226118720Y-101925875D01*
X224524872Y-100832660D02*
G75*
G02X224554618Y-100812810I62029J-60741D01*
G01*
X225005616Y-101594069D02*
G75*
G02X225018850Y-101690900I-343215J-96228D01*
G01*
X226211874Y-101069357D02*
G75*
G02X226182389Y-101089046I-62364J61470D01*
G01*
X223958131Y-101735602D02*
G75*
G02X223986045Y-101691330I124597J-47625D01*
G01*
X226205674Y-101567883D02*
G75*
G02X226209309Y-101607194I-228185J-40928D01*
G01*
X225992628Y-101651091D02*
X226118720Y-101651091D01*
X223338710Y-101150453D02*
G75*
G02X223308289Y-101169954I-152750J204812D01*
G01*
X226531605Y-100903670D02*
X226531605Y-101183402D01*
X225863260Y-101063224D02*
G75*
G02X225824742Y-101129607I-169751J54131D01*
G01*
X223653725Y-101092677D02*
G75*
G02X223630707Y-101083882I15932J76211D01*
G01*
X225824741Y-101129607D02*
G75*
G02X225801688Y-101150453I-120183J109743D01*
G01*
X225358826Y-101784717D02*
X225464261Y-101458721D01*
X224053181Y-101743459D02*
G75*
G02X224077928Y-101732551I41475J-60573D01*
G01*
X225221494Y-100900871D02*
X225298532Y-100906250D01*
X223122267Y-100950148D02*
X223123450Y-100993775D01*
X225801688Y-101150453D02*
G75*
G02X225771267Y-101169954I-152750J204812D01*
G01*
X225871979Y-101016611D02*
G75*
G02X225863261Y-101063225I-237740J20338D01*
G01*
X224897358Y-101833530D02*
G75*
G02X224874167Y-101825037I15802J79060D01*
G01*
X226236194Y-101134126D02*
G75*
G02X226184441Y-101175118I-109970J85675D01*
G01*
X226965095Y-101506490D02*
G75*
G02X227008186Y-101568893I-115254J-125666D01*
G01*
X226662376Y-99997881D02*
G75*
G02X226659650Y-100026399I-18636J-12608D01*
G01*
X226423814Y-99645266D02*
X226662376Y-99997881D01*
X225307028Y-100812971D02*
G75*
G02X225364373Y-100844064I-119372J-288582D01*
G01*
X225491431Y-100950148D02*
X225491431Y-100950148D01*
X226902861Y-101466629D02*
G75*
G02X226965095Y-101506490I-74875J-185410D01*
G01*
X226674021Y-101536542D02*
G75*
G02X226701178Y-101505307I114366J-72013D01*
G01*
X224605311Y-101546943D02*
G75*
G02X224636503Y-101552700I-294J-88982D01*
G01*
X224119670Y-101843462D02*
G75*
G02X224080669Y-101838889I-2689J145673D01*
G01*
X224198856Y-101555766D02*
G75*
G02X224216235Y-101574811I-25644J-40854D01*
G01*
X226655911Y-101812503D02*
G75*
G02X226643310Y-101758956I261126J89706D01*
G01*
X225333333Y-101067206D02*
G75*
G02X225313804Y-101085926I-44527J26903D01*
G01*
X225317512Y-101924154D02*
X225168821Y-101458721D01*
X224221882Y-101651091D02*
X224221882Y-101601815D01*
X224108267Y-101931254D02*
G75*
G02X224040649Y-101920119I1127J217709D01*
G01*
X227022549Y-101726834D02*
X226732715Y-101726834D01*
X225973926Y-101457362D02*
G75*
G02X226021245Y-101453772I41845J-237879D01*
G01*
X226097746Y-101461626D02*
G75*
G02X226157666Y-101486909I-42506J-184381D01*
G01*
X227001248Y-98709524D02*
G75*
G02X227019486Y-98731617I-4262J-22093D01*
G01*
X226583223Y-98628876D02*
X227001248Y-98709524D01*
X226740730Y-101603455D02*
G75*
G02X226761759Y-101569430I87090J-30315D01*
G01*
X223991856Y-101890156D02*
G75*
G02X223959576Y-101845129I87344J96703D01*
G01*
X226423814Y-99645266D02*
G75*
G02X226421663Y-99624048I18636J12608D01*
G01*
X226566698Y-99273902D02*
X226421663Y-99624048D01*
X226761759Y-101569430D02*
G75*
G02X226792855Y-101548532I65430J-63775D01*
G01*
X225960117Y-101027397D02*
X225960117Y-100717969D01*
X225564612Y-101150452D02*
G75*
G02X225541779Y-101129607I96294J128403D01*
G01*
X225683364Y-101188782D02*
G75*
G02X225633910Y-101184075I-2253J238466D01*
G01*
X224216236Y-101574811D02*
G75*
G02X224221882Y-101601815I-53074J-25189D01*
G01*
X225781706Y-100951224D02*
X225780411Y-100907972D01*
X225971971Y-101548881D02*
G75*
G02X225996181Y-101543394I40612J-123048D01*
G01*
X226113335Y-101805374D02*
G75*
G02X226106615Y-101819792I-54654J16701D01*
G01*
X224169757Y-101544685D02*
G75*
G02X224198856Y-101555766I-14778J-82558D01*
G01*
X226701178Y-101505308D02*
G75*
G02X226764692Y-101466333I153675J-179193D01*
G01*
X225018850Y-101875739D02*
G75*
G02X224964246Y-101916085I-123258J109693D01*
G01*
X226414731Y-101508428D02*
G75*
G02X226466856Y-101467113I110467J-85832D01*
G01*
X226534791Y-101552700D02*
G75*
G02X226565570Y-101569968I-43659J-113885D01*
G01*
X226976718Y-101889295D02*
G75*
G02X226935624Y-101912319I-108775J145957D01*
G01*
X224180994Y-101919635D02*
G75*
G02X224148934Y-101928350I-52625J130267D01*
G01*
X226005105Y-101931254D02*
G75*
G02X225937487Y-101920119I1127J217709D01*
G01*
X223338711Y-100751564D02*
G75*
G02X223361761Y-100772195I-102105J-137272D01*
G01*
X227340518Y-100712590D02*
G75*
G02X227412336Y-100725877I1420J-193067D01*
G01*
X226899584Y-101569429D02*
G75*
G02X226920695Y-101603455I-67530J-65463D01*
G01*
X225596605Y-101924154D02*
X225499130Y-101598587D01*
X226045772Y-101928349D02*
G75*
G02X226005105Y-101931254I-38741J256240D01*
G01*
X226066595Y-101544685D02*
G75*
G02X226095694Y-101555766I-14778J-82558D01*
G01*
X226639110Y-101693266D02*
G75*
G02X226642980Y-101630522I470610J2466D01*
G01*
X226732715Y-101649800D02*
X226732715Y-101649800D01*
X223028449Y-100950148D02*
X223028449Y-100950148D01*
X223862590Y-101070433D02*
G75*
G02X223836339Y-101128747I-135640J25996D01*
G01*
X223867754Y-101023847D02*
G75*
G02X223862590Y-101070433I-342888J14432D01*
G01*
X226585787Y-101462325D02*
G75*
G02X226633133Y-101489276I-62637J-165101D01*
G01*
X223170924Y-101184075D02*
G75*
G02X223131842Y-101169954I27514J137290D01*
G01*
X224514722Y-101644421D02*
X224514722Y-101924154D01*
X226503599Y-101546943D02*
G75*
G02X226534791Y-101552700I-295J-88982D01*
G01*
X226845242Y-101929534D02*
G75*
G02X226774690Y-101917941I158J221443D01*
G01*
X224514722Y-101458721D02*
X224514722Y-101508428D01*
X226157666Y-101486908D02*
G75*
G02X226195868Y-101534733I-63509J-89901D01*
G01*
X224847684Y-101791065D02*
G75*
G02X224834450Y-101690900I343127J96292D01*
G01*
X225018850Y-101690900D02*
G75*
G02X225005615Y-101789237I-362011J-1339D01*
G01*
X225633910Y-100717404D02*
G75*
G02X225683364Y-100712590I47207J-228502D01*
G01*
X226466856Y-101467113D02*
G75*
G02X226535879Y-101453342I66061J-151243D01*
G01*
X224773978Y-101869498D02*
G75*
G02X224747510Y-101810969I104779J82633D01*
G01*
X223220388Y-101188782D02*
G75*
G02X223170924Y-101184075I-2258J238518D01*
G01*
X225589979Y-100879784D02*
G75*
G02X225608061Y-100840406I106864J-25230D01*
G01*
X225950019Y-101743459D02*
G75*
G02X225974766Y-101732551I41475J-60573D01*
G01*
X226195867Y-101534732D02*
G75*
G02X226205673Y-101567883I-143727J-60538D01*
G01*
X224847684Y-101592239D02*
G75*
G02X224874167Y-101558268I53527J-14420D01*
G01*
X225018850Y-101270870D02*
X225112455Y-101270870D01*
X226118720Y-101728126D02*
X226009622Y-101728126D01*
X225996181Y-101543394D02*
G75*
G02X226025762Y-101541565I28361J-218582D01*
G01*
X224040650Y-101920120D02*
G75*
G02X223991857Y-101890156I40956J121403D01*
G01*
X224064522Y-101072263D02*
G75*
G02X224041122Y-101036354I60770J65181D01*
G01*
X226118720Y-101762338D02*
X226118720Y-101762338D01*
X226021245Y-101453771D02*
G75*
G02X226097746Y-101461625I6709J-311159D01*
G01*
X226413010Y-101924154D02*
X226319405Y-101924154D01*
X226740510Y-101777105D02*
G75*
G02X226732715Y-101726834I139684J47398D01*
G01*
X226868722Y-101548532D02*
G75*
G02X226899584Y-101569430I-34697J-84476D01*
G01*
X224421117Y-101924154D02*
X224421117Y-101458721D01*
X224747511Y-101572336D02*
G75*
G02X224773979Y-101513807I134086J-25389D01*
G01*
X225267811Y-101458721D02*
X225357105Y-101784717D01*
X224219940Y-101884776D02*
G75*
G02X224180994Y-101919635I-66642J35270D01*
G01*
X223078800Y-101129607D02*
G75*
G02X223040175Y-101063225I132169J121330D01*
G01*
X226945732Y-101796767D02*
X227013515Y-101854651D01*
X225928825Y-101661581D02*
G75*
G02X225992628Y-101651091I62550J-181176D01*
G01*
X226920695Y-101603455D02*
G75*
G02X226929165Y-101649800I-143486J-50168D01*
G01*
X223220389Y-101095609D02*
G75*
G02X223175846Y-101087056I-2565J106905D01*
G01*
X225932694Y-101469857D02*
G75*
G02X225973926Y-101457362I72763J-165830D01*
G01*
X223591464Y-101134126D02*
X223591467Y-101508428D01*
X223646443Y-101174041D02*
G75*
G02X223591464Y-101134126I105228J202758D01*
G01*
X224221882Y-101925875D02*
X224221882Y-101925875D01*
X224927187Y-101546944D02*
X224927187Y-101546944D01*
X224964246Y-101916084D02*
G75*
G02X224898570Y-101929533I-64024J145567D01*
G01*
X225464261Y-101458721D02*
X225532471Y-101458721D01*
X225112455Y-101924154D02*
X225018850Y-101924154D01*
X223131842Y-101169954D02*
G75*
G02X223101636Y-101150453I121272J220992D01*
G01*
X225159949Y-100856975D02*
G75*
G02X225177494Y-100816736I51996J1273D01*
G01*
X225035799Y-101105938D02*
X225101214Y-101041168D01*
X227052018Y-101046549D02*
X227052018Y-101046549D01*
X225956027Y-100089684D02*
G75*
G02X225977246Y-100091835I8611J-20787D01*
G01*
X226329860Y-100330397D02*
X225977246Y-100091835D01*
X225200410Y-100987804D02*
G75*
G02X225147472Y-100976157I11603J178872D01*
G01*
X226413010Y-101458721D02*
X226413010Y-101508428D01*
X224554618Y-100812809D02*
G75*
G02X224591360Y-100806192I35517J-91894D01*
G01*
X223869471Y-101924154D02*
X223775867Y-101924154D01*
X223869471Y-101614726D02*
X223869471Y-101924154D01*
X224516443Y-101508428D02*
G75*
G02X224568568Y-101467113I110467J-85832D01*
G01*
X226531605Y-100767676D02*
X226533326Y-100767676D01*
X225727584Y-100814746D02*
G75*
G02X225758680Y-100840406I-31600J-69966D01*
G01*
X224038542Y-101760847D02*
G75*
G02X224053181Y-101743458I39916J-18747D01*
G01*
X224637591Y-101453342D02*
G75*
G02X224687499Y-101462325I37J-142922D01*
G01*
X223869476Y-100951224D02*
X223867754Y-101023847D01*
X223867754Y-100878170D02*
X223869476Y-100951224D01*
X223317434Y-100994314D02*
G75*
G02X223313561Y-101022449I-172630J9427D01*
G01*
X224093465Y-100807780D02*
G75*
G02X224131659Y-100800813I36969J-94496D01*
G01*
X226118720Y-101925875D02*
X226118720Y-101884776D01*
X225937488Y-101920120D02*
G75*
G02X225888695Y-101890156I40956J121403D01*
G01*
X226585451Y-100726361D02*
G75*
G02X226654474Y-100712590I66062J-151243D01*
G01*
X225845659Y-101789237D02*
G75*
G02X225854968Y-101735602I149738J1635D01*
G01*
X224221882Y-101762338D02*
X224221882Y-101728126D01*
X224898570Y-101929534D02*
G75*
G02X224858550Y-101925337I-1272J180814D01*
G01*
X224200908Y-101461626D02*
G75*
G02X224260828Y-101486909I-42506J-184381D01*
G01*
X225727584Y-101087056D02*
G75*
G02X225683364Y-101095609I-41797J97501D01*
G01*
X224683023Y-101183402D02*
X224683023Y-100906250D01*
X226533326Y-100767677D02*
G75*
G02X226585451Y-100726362I110467J-85832D01*
G01*
X225776541Y-101022449D02*
G75*
G02X225758680Y-101061396I-114556J28968D01*
G01*
X226531605Y-100717969D02*
X226531605Y-100767676D01*
X224169343Y-100807780D02*
G75*
G02X224200194Y-100828678I-34702J-84450D01*
G01*
X226653386Y-100811949D02*
G75*
G02X226684165Y-100829217I-43659J-113884D01*
G01*
X224062372Y-100828679D02*
G75*
G02X224093465Y-100807780I65429J-63768D01*
G01*
X224776628Y-101183402D02*
X224683023Y-101183402D01*
X224035856Y-101469857D02*
G75*
G02X224077088Y-101457362I72763J-165830D01*
G01*
X226438000Y-101183402D02*
X226438000Y-100717969D01*
X224039134Y-101806451D02*
G75*
G02X224034025Y-101784717I42404J21436D01*
G01*
X224636503Y-101552700D02*
G75*
G02X224667282Y-101569968I-43659J-113885D01*
G01*
X224099343Y-101543394D02*
G75*
G02X224128924Y-101541565I28361J-218582D01*
G01*
X224200194Y-100828679D02*
G75*
G02X224221308Y-100862704I-67528J-65468D01*
G01*
X225018850Y-101924154D02*
X225018850Y-101875738D01*
X224874167Y-101558268D02*
G75*
G02X224897358Y-101549775I38993J-70567D01*
G01*
X226531605Y-101183402D02*
X226438000Y-101183402D01*
X226118720Y-101884776D02*
X226116778Y-101884776D01*
X224033322Y-100909049D02*
X224033322Y-100909049D01*
X225608061Y-101061397D02*
G75*
G02X225589979Y-101022233I84861J62938D01*
G01*
X224221307Y-100862704D02*
G75*
G02X224229780Y-100909049I-143483J-50177D01*
G01*
X226742587Y-100951224D02*
G75*
G02X226746663Y-100891841I404915J2036D01*
G01*
X225882884Y-101691330D02*
G75*
G02X225928825Y-101661581I84995J-80911D01*
G01*
X223127000Y-100879784D02*
G75*
G02X223145075Y-100840406I106861J-25213D01*
G01*
X226866475Y-100842450D02*
G75*
G02X226904333Y-100815257I71869J-60106D01*
G01*
X224726169Y-100753797D02*
G75*
G02X224764013Y-100804445I-81117J-100072D01*
G01*
X224221882Y-101762338D02*
X224221882Y-101762338D01*
X224621492Y-100712590D02*
G75*
G02X224674774Y-100722891I-268J-144339D01*
G01*
X223400279Y-100838578D02*
G75*
G02X223408993Y-100884814I-228270J-66963D01*
G01*
X225781706Y-100951224D02*
X225781706Y-100951224D01*
X226876858Y-101175064D02*
G75*
G02X226807794Y-101133911I84696J220666D01*
G01*
X223127000Y-101022232D02*
G75*
G02X223123450Y-100993775I187840J37884D01*
G01*
X223123450Y-100907703D02*
X223122267Y-100950148D01*
X223123450Y-100907703D02*
G75*
G02X223127000Y-100879784I186527J-9535D01*
G01*
X225856415Y-101845129D02*
G75*
G02X225845659Y-101789237I130304J54056D01*
G01*
X227003873Y-100718292D02*
G75*
G02X227048575Y-100735399I-42288J-177461D01*
G01*
X225639641Y-101784717D02*
X225728715Y-101458721D01*
X223101636Y-100751563D02*
G75*
G02X223131842Y-100731848I163048J-216811D01*
G01*
X224956534Y-101833415D02*
G75*
G02X224927187Y-101836361I-27947J130782D01*
G01*
X224927187Y-101836361D02*
G75*
G02X224897358Y-101833530I-1446J143333D01*
G01*
X224308805Y-100828142D02*
G75*
G02X224323169Y-100909049I-201471J-77496D01*
G01*
X223977543Y-101113153D02*
G75*
G02X223956529Y-101071751I136519J95325D01*
G01*
X225960117Y-101027397D02*
X225960117Y-101027397D01*
X226843766Y-100887773D02*
G75*
G02X226866475Y-100842450I115991J-29766D01*
G01*
X224221882Y-101884776D02*
X224219940Y-101884776D01*
X223308289Y-100731849D02*
G75*
G02X223338710Y-100751564I-134052J-240173D01*
G01*
X225596605Y-101924154D02*
X225596605Y-101924154D01*
X225422255Y-100775852D02*
X225364373Y-100844064D01*
X224927187Y-101546944D02*
G75*
G02X224956534Y-101549890I1398J-133728D01*
G01*
X224246348Y-101056015D02*
G75*
G02X224198633Y-101089745I-111449J107045D01*
G01*
X227008776Y-101083344D02*
G75*
G02X226957339Y-101095609I-50518J97866D01*
G01*
X224075309Y-101177190D02*
G75*
G02X224006962Y-101142411I88223J257924D01*
G01*
X226116121Y-101188782D02*
G75*
G02X226062054Y-101178534I103J148290D01*
G01*
X223974639Y-100795791D02*
G75*
G02X224001798Y-100764556I114367J-72017D01*
G01*
X224145861Y-101188782D02*
G75*
G02X224075308Y-101177189I158J221446D01*
G01*
X223269261Y-100717405D02*
G75*
G02X223308289Y-100731848I-28444J-136810D01*
G01*
X224236236Y-101171568D02*
G75*
G02X224145861Y-101188782I-89677J224965D01*
G01*
X224956534Y-101549889D02*
G75*
G02X224979395Y-101558725I-15978J-75331D01*
G01*
X226184441Y-101175118D02*
G75*
G02X226116121Y-101188782I-65428J149507D01*
G01*
X224216497Y-101805374D02*
G75*
G02X224209777Y-101819792I-54654J16701D01*
G01*
X225795693Y-100156096D02*
G75*
G02X225766252Y-100143814I-8610J20787D01*
G01*
X225956027Y-100089684D02*
X225795693Y-100156096D01*
X226774690Y-101917941D02*
G75*
G02X226706342Y-101883162I88223J257928D01*
G01*
X224740845Y-101690900D02*
X224742511Y-101618653D01*
X225339846Y-101041168D02*
G75*
G02X225333332Y-101067205I-50831J-1117D01*
G01*
X227430170Y-100862704D02*
G75*
G02X227438640Y-100909049I-143486J-50168D01*
G01*
X227378197Y-100807780D02*
G75*
G02X227409059Y-100828678I-34697J-84476D01*
G01*
X227183496Y-100795791D02*
G75*
G02X227210653Y-100764556I114366J-72012D01*
G01*
X225018850Y-101508428D02*
X225018850Y-101270870D01*
X225419432Y-101106476D02*
G75*
G02X225377387Y-101151556I-108545J59089D01*
G01*
X223713074Y-101092778D02*
G75*
G02X223683346Y-101095609I-28292J139596D01*
G01*
X225296356Y-100716893D02*
G75*
G02X225344253Y-100729805I-36461J-230543D01*
G01*
X225221494Y-100900871D02*
G75*
G02X225191610Y-100895681I7107J129543D01*
G01*
X226146459Y-101095609D02*
G75*
G02X226109717Y-101089046I-1233J99227D01*
G01*
X226654474Y-100712590D02*
G75*
G02X226704382Y-100721573I37J-142923D01*
G01*
X223318725Y-100951224D02*
X223318725Y-100951224D01*
X225683364Y-100806193D02*
G75*
G02X225727584Y-100814746I2423J-106054D01*
G01*
X223040175Y-100838577D02*
G75*
G02X223078800Y-100772195I170794J-54948D01*
G01*
X223295701Y-100840406D02*
G75*
G02X223313561Y-100879784I-101330J-69698D01*
G01*
X225977246Y-97797462D02*
G75*
G02X225956027Y-97799613I-12608J18637D01*
G01*
X225605881Y-97654577D02*
X225956027Y-97799613D01*
X224095790Y-101651091D02*
X224221882Y-101651091D01*
X225780411Y-100994314D02*
X225781706Y-100951224D01*
X224773475Y-100836849D02*
G75*
G02X224776628Y-100873974I-204782J-36092D01*
G01*
X227008555Y-100818350D02*
G75*
G02X227052018Y-100854824I-64832J-121388D01*
G01*
X223220388Y-100806193D02*
G75*
G02X223264607Y-100814746I2423J-106050D01*
G01*
X226065300Y-101840396D02*
G75*
G02X226016508Y-101843462I-41091J264113D01*
G01*
X223028449Y-100950149D02*
G75*
G02X223031381Y-100884814I634178J4276D01*
G01*
X226531605Y-100903670D02*
G75*
G02X226538614Y-100859477I125049J2818D01*
G01*
X226732715Y-101649800D02*
X226929165Y-101649800D01*
X225491430Y-100950149D02*
G75*
G02X225494364Y-100884814I634180J4261D01*
G01*
X224312471Y-101607194D02*
X224312471Y-101925875D01*
X223955239Y-100837528D02*
G75*
G02X223974639Y-100795791I176425J-56627D01*
G01*
X224203476Y-100725877D02*
G75*
G02X224265716Y-100765739I-74873J-185428D01*
G01*
X224323169Y-100986082D02*
X224033322Y-100986082D01*
X226566699Y-99273902D02*
G75*
G02X226583223Y-99260420I20786J-8610D01*
G01*
X227001248Y-99179772D02*
X226583223Y-99260420D01*
X226659650Y-97862897D02*
G75*
G02X226662376Y-97891415I-15910J-15910D01*
G01*
X226358378Y-97561625D02*
X226659650Y-97862897D01*
X224194876Y-97561625D02*
G75*
G02X224223394Y-97558899I15910J-15910D01*
G01*
X223893605Y-97862897D02*
X224194876Y-97561625D01*
X225041503Y-97220028D02*
G75*
G02X225063596Y-97201790I22093J-4262D01*
G01*
X224960856Y-97638052D02*
X225041503Y-97220027D01*
X223866318Y-101577601D02*
G75*
G02X223869471Y-101614726I-204782J-36092D01*
G01*
X223856857Y-101545197D02*
G75*
G02X223866318Y-101577601I-143036J-59344D01*
G01*
X226421663Y-98265249D02*
G75*
G02X226423814Y-98244030I20787J8611D01*
G01*
X226662376Y-97891415D02*
X226423814Y-98244030D01*
X226319405Y-101924154D02*
X226319405Y-101458721D01*
X225402135Y-100950900D02*
G75*
G02X225425615Y-100994447I-110907J-87905D01*
G01*
X224128924Y-101541565D02*
G75*
G02X224169757Y-101544685I6056J-189460D01*
G01*
X223943599Y-100889770D02*
G75*
G02X223955239Y-100837528I288394J-36837D01*
G01*
X225771267Y-101169954D02*
G75*
G02X225732239Y-101184075I-67223J124800D01*
G01*
X224277335Y-101148542D02*
G75*
G02X224236237Y-101171567I-108777J145972D01*
G01*
X226706342Y-101883162D02*
G75*
G02X226676926Y-101853905I68131J97916D01*
G01*
X224223394Y-100330397D02*
G75*
G02X224194876Y-100327671I-12608J18636D01*
G01*
X224576009Y-100091835D02*
X224223394Y-100330397D01*
X227517660Y-100828142D02*
G75*
G02X227532024Y-100909049I-201471J-77496D01*
G01*
X224043279Y-101577930D02*
X223971626Y-101521553D01*
X227019486Y-99157679D02*
G75*
G02X227001248Y-99179772I-22500J0D01*
G01*
X227019486Y-98731617D02*
X227019486Y-99157679D01*
X226836191Y-100951224D02*
G75*
G02X226843766Y-100887773I237714J3801D01*
G01*
X223313561Y-100879784D02*
G75*
G02X223317433Y-100907972I-168958J-37572D01*
G01*
X226095694Y-101555766D02*
G75*
G02X226113073Y-101574811I-25644J-40854D01*
G01*
X226904333Y-100815256D02*
G75*
G02X226957339Y-100806192I50081J-133349D01*
G01*
X226957339Y-100806192D02*
G75*
G02X227008555Y-100818350I830J-110461D01*
G01*
X224498623Y-100906250D02*
X224498623Y-101183402D01*
X227052018Y-101046549D02*
X227121096Y-101108520D01*
X225116060Y-100748955D02*
G75*
G02X225171848Y-100721681I105426J-144950D01*
G01*
X225171848Y-100721681D02*
G75*
G02X225239783Y-100712590I65503J-231121D01*
G01*
X224747510Y-101810970D02*
G75*
G02X224742511Y-101764060I353121J61353D01*
G01*
X226118720Y-101762338D02*
G75*
G02X226113335Y-101805374I-143740J-3870D01*
G01*
X226945733Y-101796767D02*
G75*
G02X226898014Y-101830497I-111453J107053D01*
G01*
X224077928Y-101732551D02*
G75*
G02X224112784Y-101728126I37462J-155603D01*
G01*
X224080669Y-101838889D02*
G75*
G02X224054476Y-101825171I15284J61051D01*
G01*
X226319405Y-101458721D02*
X226413010Y-101458721D01*
X223956530Y-101071751D02*
G75*
G02X223943922Y-101018204I261122J89740D01*
G01*
X224148934Y-101928349D02*
G75*
G02X224108267Y-101931254I-38741J256240D01*
G01*
X223711750Y-100712590D02*
G75*
G02X223751424Y-100716893I1233J-173711D01*
G01*
X223645959Y-100726145D02*
G75*
G02X223711749Y-100712590I64096J-144657D01*
G01*
X224787003Y-100143814D02*
G75*
G02X224757562Y-100156096I-20831J8505D01*
G01*
X225082187Y-99420863D02*
X224787003Y-100143814D01*
X225780412Y-100994314D02*
G75*
G02X225776542Y-101022449I-172629J9410D01*
G01*
X223890879Y-97891414D02*
G75*
G02X223893605Y-97862897I18635J12607D01*
G01*
X224129440Y-98244030D02*
X223890879Y-97891415D01*
X226025762Y-101541565D02*
G75*
G02X226066595Y-101544685I6056J-189460D01*
G01*
X227284165Y-101177189D02*
G75*
G02X227215817Y-101142411I88222J257928D01*
G01*
X223318725Y-100951224D02*
X223317433Y-100907972D01*
X225078781Y-100793927D02*
G75*
G02X225116060Y-100748955I104398J-48604D01*
G01*
X225868465Y-101521553D02*
G75*
G02X225932695Y-101469857I129573J-95239D01*
G01*
X224221882Y-101925875D02*
X224221882Y-101884776D01*
X226764692Y-101466333D02*
G75*
G02X226831043Y-101453342I66584J-164139D01*
G01*
X226420020Y-101600228D02*
G75*
G02X226441090Y-101570076I66225J-23840D01*
G01*
X225732239Y-101184075D02*
G75*
G02X225683364Y-101188782I-46736J229181D01*
G01*
X224100027Y-101093806D02*
G75*
G02X224064523Y-101072262I35141J97936D01*
G01*
X223630707Y-101083882D02*
G75*
G02X223604482Y-101048700I28976J48964D01*
G01*
X226792855Y-101548532D02*
G75*
G02X226831043Y-101541565I36966J-94482D01*
G01*
X224168462Y-101840396D02*
G75*
G02X224119670Y-101843462I-41090J264113D01*
G01*
X224312471Y-101925875D02*
X224221882Y-101925875D01*
X227121096Y-100793282D02*
X227052018Y-100854824D01*
X227052019Y-101046549D02*
G75*
G02X227008776Y-101083344I-107617J82666D01*
G01*
X223736199Y-100817598D02*
G75*
G02X223762639Y-100851810I-27503J-48578D01*
G01*
X225005616Y-101789237D02*
G75*
G02X224979395Y-101824580I-55902J14076D01*
G01*
X225801688Y-100751564D02*
G75*
G02X225824742Y-100772195I-102103J-137287D01*
G01*
X223683345Y-100806192D02*
G75*
G02X223713074Y-100809044I1431J-141454D01*
G01*
X224200357Y-101829475D02*
G75*
G02X224168462Y-101840395I-43943J76306D01*
G01*
X225177494Y-100816736D02*
G75*
G02X225201828Y-100804795I36282J-43172D01*
G01*
X223078800Y-100772195D02*
G75*
G02X223101636Y-100751564I123999J-114298D01*
G01*
X227407489Y-101089746D02*
G75*
G02X227352995Y-101100989I-53693J122558D01*
G01*
X225239783Y-100712590D02*
G75*
G02X225296356Y-100716893I1948J-348498D01*
G01*
X224314131Y-101113899D02*
G75*
G02X224277335Y-101148543I-171268J145045D01*
G01*
X225974766Y-101732551D02*
G75*
G02X226009622Y-101728126I37462J-155603D01*
G01*
X225494364Y-100884813D02*
G75*
G02X225503150Y-100838577I235030J-20710D01*
G01*
X226633133Y-101489276D02*
X226565570Y-101569968D01*
X224514723Y-101644422D02*
G75*
G02X224521732Y-101600229I125048J2818D01*
G01*
X226182389Y-101089046D02*
G75*
G02X226146459Y-101095609I-34830J89052D01*
G01*
X226060277Y-101037779D02*
G75*
G02X226053722Y-100995550I119073J40107D01*
G01*
X225758681Y-101061396D02*
G75*
G02X225727584Y-101087056I-62696J44306D01*
G01*
X226079970Y-101069357D02*
G75*
G02X226060277Y-101037779I59307J58915D01*
G01*
X225683364Y-100712590D02*
G75*
G02X225732239Y-100717405I2132J-228840D01*
G01*
X227152455Y-100889770D02*
G75*
G02X227164105Y-100837528I288398J-36897D01*
G01*
X225018850Y-101924154D02*
X225018850Y-101924154D01*
X227445098Y-101171568D02*
G75*
G02X227354716Y-101188782I-89680J224983D01*
G01*
X225344253Y-100729804D02*
G75*
G02X225422255Y-100775852I-102356J-262473D01*
G01*
X227273382Y-101072262D02*
G75*
G02X227249984Y-101036354I60770J65175D01*
G01*
X223683346Y-101095609D02*
G75*
G02X223653725Y-101092677I-1429J136665D01*
G01*
X227532024Y-100986082D02*
X227242189Y-100986082D01*
X227186401Y-101113153D02*
G75*
G02X227165386Y-101071751I136518J95330D01*
G01*
X225282819Y-100995550D02*
X225200410Y-100987804D01*
X225325593Y-101009429D02*
G75*
G02X225336279Y-101023067I-22495J-28633D01*
G01*
X224405018Y-101183402D02*
X224405018Y-101183402D01*
X224858550Y-101457644D02*
G75*
G02X224898570Y-101453342I38750J-172171D01*
G01*
X227164105Y-100837528D02*
G75*
G02X227183495Y-100795791I176420J-56588D01*
G01*
X225336279Y-101023067D02*
G75*
G02X225339846Y-101041168I-40173J-17318D01*
G01*
X225284334Y-101097224D02*
G75*
G02X225247963Y-101100989I-34892J159478D01*
G01*
X227532024Y-100909049D02*
X227532024Y-100986082D01*
X223170923Y-100717404D02*
G75*
G02X223220388Y-100712590I47213J-228553D01*
G01*
X224521732Y-101600228D02*
G75*
G02X224542802Y-101570076I66225J-23840D01*
G01*
X225679013Y-101924154D02*
X225596605Y-101924154D01*
X223361760Y-100772195D02*
G75*
G02X223400278Y-100838577I-131232J-120511D01*
G01*
X226643310Y-101758956D02*
G75*
G02X226639110Y-101693266I468280J62922D01*
G01*
X224041337Y-100862703D02*
G75*
G02X224062372Y-100828678I87094J-30328D01*
G01*
X224405018Y-101183402D02*
X224405018Y-100717969D01*
X226876859Y-100726441D02*
G75*
G02X226953690Y-100712590I75847J-200705D01*
G01*
X224963654Y-101468618D02*
G75*
G02X225018850Y-101508428I-116842J-220173D01*
G01*
X224077088Y-101457362D02*
G75*
G02X224124407Y-101453772I41845J-237879D01*
G01*
X224323169Y-100986082D02*
X224323169Y-100986082D01*
X224131592Y-99624048D02*
G75*
G02X224129440Y-99645266I-20787J-8610D01*
G01*
X223890879Y-99997881D02*
X224129440Y-99645266D01*
X225070763Y-99391919D02*
G75*
G02X225082187Y-99420863I-9407J-20439D01*
G01*
X225070763Y-99391919D02*
G75*
G02X225482491Y-99391919I205864J447271D01*
G01*
X226358378Y-100327671D02*
G75*
G02X226329860Y-100330397I-15910J15910D01*
G01*
X226659650Y-100026399D02*
X226358378Y-100327671D01*
X226413010Y-101644422D02*
G75*
G02X226420019Y-101600229I125048J2818D01*
G01*
X223400278Y-101063224D02*
G75*
G02X223361761Y-101129607I-169750J54128D01*
G01*
X225541779Y-101129607D02*
G75*
G02X225503150Y-101063225I132167J121340D01*
G01*
X226331727Y-101183402D02*
X226238122Y-101183402D01*
X226231567Y-101037779D02*
G75*
G02X226211874Y-101069357I-78999J27337D01*
G01*
X226843520Y-101841741D02*
G75*
G02X226799410Y-101834559I-1608J129179D01*
G01*
X226441090Y-101570076D02*
G75*
G02X226503598Y-101546944I62469J-72784D01*
G01*
X223175845Y-100814746D02*
G75*
G02X223220388Y-100806192I41980J-98351D01*
G01*
X225863261Y-100838578D02*
G75*
G02X225871978Y-100884814I-228269J-66977D01*
G01*
X224498623Y-100906250D02*
G75*
G02X224505178Y-100864291I124449J2049D01*
G01*
X226746663Y-100891841D02*
G75*
G02X226758892Y-100841509I264465J-37605D01*
G01*
X224627290Y-100812810D02*
G75*
G02X224656775Y-100832660I-33117J-81013D01*
G01*
X224776628Y-100873974D02*
X224776628Y-101183402D01*
X226758892Y-100841509D02*
G75*
G02X226779260Y-100800228I177416J-61871D01*
G01*
X223264607Y-100814746D02*
G75*
G02X223295701Y-100840406I-31601J-69961D01*
G01*
X223145075Y-100840406D02*
G75*
G02X223175846Y-100814746I61328J-42263D01*
G01*
X223175846Y-101087056D02*
G75*
G02X223145075Y-101061396I30556J67923D01*
G01*
X227048576Y-100735399D02*
G75*
G02X227121096Y-100793282I-123223J-228755D01*
G01*
X226746663Y-101010572D02*
G75*
G02X226742586Y-100951224I400142J57298D01*
G01*
X224742511Y-101618654D02*
G75*
G02X224747510Y-101572336I349245J-14265D01*
G01*
X226843766Y-101014392D02*
G75*
G02X226836191Y-100951224I228084J59387D01*
G01*
X226413010Y-101508428D02*
X226414731Y-101508428D01*
X224323169Y-100909049D02*
X224323169Y-100986082D01*
X226676927Y-101853905D02*
G75*
G02X226655911Y-101812503I136517J95331D01*
G01*
X225586426Y-100907703D02*
X225585242Y-100950148D01*
X223408992Y-100884814D02*
G75*
G02X223411897Y-100950148I-637099J-61054D01*
G01*
X225633910Y-101184076D02*
G75*
G02X225594827Y-101169954I27513J137296D01*
G01*
X225963257Y-101064697D02*
G75*
G02X225960117Y-101027397I207008J36208D01*
G01*
X224498623Y-101183402D02*
X224405018Y-101183402D01*
X225637699Y-101784717D02*
X225639641Y-101784717D01*
X225282819Y-100995549D02*
G75*
G02X225307773Y-101000257I-8312J-112560D01*
G01*
X224144140Y-101100989D02*
G75*
G02X224100027Y-101093807I-1609J129186D01*
G01*
X223720133Y-101553561D02*
G75*
G02X223749618Y-101573411I-33116J-81013D01*
G01*
X223749618Y-101573412D02*
G75*
G02X223769311Y-101605043I-60252J-59457D01*
G01*
X223604482Y-100853317D02*
G75*
G02X223630707Y-100817974I55453J-13745D01*
G01*
X227022549Y-101726834D02*
X227022549Y-101726834D01*
X224897358Y-101549776D02*
G75*
G02X224927187Y-101546944I28385J-140501D01*
G01*
X223313561Y-101022449D02*
G75*
G02X223295701Y-101061396I-114556J28964D01*
G01*
X224221882Y-101762338D02*
G75*
G02X224216497Y-101805374I-143740J-3870D01*
G01*
X226831043Y-101541565D02*
G75*
G02X226868722Y-101548532I1155J-99124D01*
G01*
X227249984Y-101036354D02*
G75*
G02X227242189Y-100986082I139685J47399D01*
G01*
X226053722Y-100717969D02*
X226053722Y-100995550D01*
X225854969Y-101735602D02*
G75*
G02X225882883Y-101691330I124597J-47625D01*
G01*
X223604482Y-101048700D02*
G75*
G02X223591464Y-100951224I349803J96325D01*
G01*
X224591360Y-100806192D02*
G75*
G02X224627290Y-100812810I1091J-94929D01*
G01*
X225683364Y-101095609D02*
G75*
G02X225638827Y-101087056I-2561J106892D01*
G01*
X225594826Y-101169954D02*
G75*
G02X225564612Y-101150453I121269J221052D01*
G01*
X225594827Y-100731849D02*
G75*
G02X225633910Y-100717405I66841J-120767D01*
G01*
X224514722Y-101508428D02*
X224516443Y-101508428D01*
X224656775Y-100832659D02*
G75*
G02X224676468Y-100864291I-60252J-59459D01*
G01*
X227210653Y-100764556D02*
G75*
G02X227274167Y-100725581I153675J-179193D01*
G01*
X226209309Y-101607194D02*
X226209309Y-101925875D01*
X227250205Y-100862703D02*
G75*
G02X227271234Y-100828678I87090J-30316D01*
G01*
X226319405Y-101924154D02*
X226319405Y-101924154D01*
X223948821Y-101789237D02*
G75*
G02X223958130Y-101735602I149738J1635D01*
G01*
X226953690Y-100712591D02*
G75*
G02X227003873Y-100718292I1088J-214128D01*
G01*
X227486193Y-101148543D02*
G75*
G02X227445099Y-101171567I-108775J145957D01*
G01*
X227148584Y-100952514D02*
G75*
G02X227152454Y-100889770I470611J2466D01*
G01*
X224209776Y-101819791D02*
G75*
G02X224200357Y-101829475I-29467J19241D01*
G01*
X223145075Y-101061396D02*
G75*
G02X223127000Y-101022233I84864J62920D01*
G01*
X223943922Y-101018204D02*
G75*
G02X223939719Y-100952514I468278J62941D01*
G01*
X226779260Y-100800228D02*
G75*
G02X226807794Y-100767999I128319J-84862D01*
G01*
X223762639Y-101050314D02*
G75*
G02X223736199Y-101084285I-53580J14427D01*
G01*
X226097195Y-101829475D02*
G75*
G02X226065300Y-101840395I-43943J76306D01*
G01*
X225977507Y-101838889D02*
G75*
G02X225951314Y-101825171I15284J61051D01*
G01*
X227340518Y-100800813D02*
G75*
G02X227378197Y-100807780I1155J-99124D01*
G01*
X223269260Y-101184075D02*
G75*
G02X223220388Y-101188782I-46734J229167D01*
G01*
X224065304Y-100725581D02*
G75*
G02X224131659Y-100712590I66585J-164151D01*
G01*
X226118720Y-101762338D02*
X226118720Y-101728126D01*
X223361761Y-101129608D02*
G75*
G02X223338710Y-101150453I-120182J109729D01*
G01*
X223713074Y-100809045D02*
G75*
G02X223736199Y-100817598I-15829J-78334D01*
G01*
X224198634Y-101089746D02*
G75*
G02X224144140Y-101100989I-53693J122558D01*
G01*
X227354716Y-101188782D02*
G75*
G02X227284165Y-101177189I159J221442D01*
G01*
X227352995Y-101100989D02*
G75*
G02X227308885Y-101093807I-1608J129179D01*
G01*
X227409059Y-100828678D02*
G75*
G02X227430170Y-100862704I-67530J-65463D01*
G01*
X225247963Y-101100989D02*
G75*
G02X225168460Y-101086034I-1919J208599D01*
G01*
X226898014Y-101830497D02*
G75*
G02X226843520Y-101841740I-53693J122558D01*
G01*
X224421117Y-101924154D02*
X224421117Y-101924154D01*
X223785233Y-100729804D02*
G75*
G02X223836339Y-100773055I-79652J-145938D01*
G01*
X223751424Y-100716893D02*
G75*
G02X223785233Y-100729805I-28976J-126588D01*
G01*
X226538614Y-100859477D02*
G75*
G02X226559685Y-100829324I66226J-23840D01*
G01*
X223762639Y-100851811D02*
G75*
G02X223775872Y-100951224I-342413J-96166D01*
G01*
X224129441Y-98244030D02*
G75*
G02X224131592Y-98265248I-18636J-12608D01*
G01*
X223986557Y-98615394D02*
X224131592Y-98265248D01*
X223711749Y-101188782D02*
G75*
G02X223646442Y-101174042I-2307J141823D01*
G01*
X223751423Y-101184586D02*
G75*
G02X223711749Y-101188782I-38438J173785D01*
G01*
X225951313Y-101825171D02*
G75*
G02X225935972Y-101806451I37916J46718D01*
G01*
X225239783Y-100800813D02*
G75*
G02X225307029Y-100812971I2976J-175595D01*
G01*
X224858550Y-101925337D02*
G75*
G02X224824548Y-101912749I28578J129407D01*
G01*
X227013515Y-101854651D02*
G75*
G02X226976718Y-101889295I-171269J145051D01*
G01*
X224597228Y-97799612D02*
G75*
G02X224576009Y-97797461I-8611J20787D01*
G01*
X224223394Y-97558899D02*
X224576009Y-97797461D01*
X226704382Y-100721573D02*
G75*
G02X226751728Y-100748524I-62636J-165101D01*
G01*
X226831043Y-101453342D02*
G75*
G02X226902861Y-101466629I1420J-193066D01*
G01*
X223893605Y-100026398D02*
G75*
G02X223890879Y-99997881I15909J15909D01*
G01*
X224194876Y-100327671D02*
X223893605Y-100026399D01*
X225608062Y-100840407D02*
G75*
G02X225638827Y-100814746I61325J-42252D01*
G01*
X223647461Y-101553561D02*
G75*
G02X223684204Y-101546944I35517J-91894D01*
G01*
X223684204Y-101546943D02*
G75*
G02X223720134Y-101553561I1091J-94930D01*
G01*
X225585242Y-100950148D02*
X225586426Y-100993775D01*
X223769312Y-101605043D02*
G75*
G02X223775867Y-101647002I-117894J-39910D01*
G01*
X223775867Y-101924154D02*
X223775867Y-101647002D01*
X224075133Y-101548881D02*
G75*
G02X224099343Y-101543394I40612J-123048D01*
G01*
X224960856Y-97638052D02*
G75*
G02X224947373Y-97654577I-22093J4262D01*
G01*
X224597227Y-97799613D02*
X224947373Y-97654577D01*
X224041122Y-101036353D02*
G75*
G02X224033322Y-100986082I139682J47413D01*
G01*
X224131659Y-100712590D02*
G75*
G02X224203476Y-100725877I1419J-193063D01*
G01*
X226642980Y-101630522D02*
G75*
G02X226654630Y-101578280I288398J-36896D01*
G01*
X223971627Y-101521553D02*
G75*
G02X224035857Y-101469857I129573J-95239D01*
G01*
X226559685Y-100829324D02*
G75*
G02X226622194Y-100806192I62469J-72785D01*
G01*
X225494364Y-101016611D02*
G75*
G02X225491431Y-100950148I651298J62041D01*
G01*
X223819013Y-101494547D02*
G75*
G02X223856857Y-101545196I-81118J-100073D01*
G01*
X223767618Y-101463643D02*
G75*
G02X223819013Y-101494548I-73068J-179701D01*
G01*
X226209309Y-101925875D02*
X226118720Y-101925875D01*
X225075874Y-100909560D02*
G75*
G02X225066358Y-100856114I131444J50974D01*
G01*
X225104436Y-100949826D02*
G75*
G02X225075874Y-100909560I70378J80186D01*
G01*
X227412337Y-100725877D02*
G75*
G02X227474570Y-100765739I-74876J-185410D01*
G01*
X223497862Y-100717969D02*
X223591464Y-100717969D01*
X223497862Y-101924154D02*
X223497862Y-100717969D01*
X223598021Y-101605043D02*
G75*
G02X223617715Y-101573411I79946J-27826D01*
G01*
X223617715Y-101573411D02*
G75*
G02X223647461Y-101553561I62030J-60741D01*
G01*
X226583223Y-98628877D02*
G75*
G02X226566698Y-98615394I4262J22093D01*
G01*
X226421663Y-98265248D02*
X226566698Y-98615394D01*
X226106614Y-101819791D02*
G75*
G02X226097195Y-101829475I-29467J19241D01*
G01*
X223264607Y-101087056D02*
G75*
G02X223220388Y-101095609I-41796J97498D01*
G01*
X224979395Y-101558726D02*
G75*
G02X225005615Y-101594069I-29682J-49418D01*
G01*
X225972704Y-101097196D02*
G75*
G02X225963257Y-101064697I143727J59403D01*
G01*
X223031380Y-100884813D02*
G75*
G02X223040175Y-100838577I235035J-20756D01*
G01*
X227003873Y-101183134D02*
G75*
G02X226953690Y-101188782I-49095J210428D01*
G01*
X225960117Y-100717969D02*
X226053722Y-100717969D01*
X225824741Y-100772194D02*
G75*
G02X225863261Y-100838577I-131232J-120516D01*
G01*
X226238122Y-101134126D02*
X226236194Y-101134126D01*
X225541779Y-100772195D02*
G75*
G02X225564612Y-100751564I123998J-114282D01*
G01*
X223533769Y-98731617D02*
G75*
G02X223552007Y-98709524I22500J0D01*
G01*
X223533769Y-99157679D02*
X223533769Y-98731617D01*
X227121096Y-101108520D02*
G75*
G02X227048575Y-101166188I-193331J168691D01*
G01*
X223775872Y-100951224D02*
G75*
G02X223762639Y-101050314I-352234J-3389D01*
G01*
X225360586Y-100919888D02*
G75*
G02X225402135Y-100950900I-39609J-96406D01*
G01*
X226438000Y-100717969D02*
X226531605Y-100717969D01*
X223653725Y-100809138D02*
G75*
G02X223683346Y-100806192I28195J-133118D01*
G01*
X223295701Y-101061397D02*
G75*
G02X223264607Y-101087056I-62694J44302D01*
G01*
X226622194Y-100806192D02*
G75*
G02X226653386Y-100811949I-294J-88982D01*
G01*
X226758892Y-101060803D02*
G75*
G02X226746663Y-101010572I250734J87646D01*
G01*
X224500345Y-100767676D02*
G75*
G02X224552470Y-100726362I110466J-85833D01*
G01*
X224405018Y-100717969D02*
X224498623Y-100717969D01*
X224131659Y-100800813D02*
G75*
G02X224169343Y-100807780I1157J-99138D01*
G01*
X224043279Y-101577929D02*
G75*
G02X224075133Y-101548880I58088J-31707D01*
G01*
X224552469Y-100726361D02*
G75*
G02X224621492Y-100712590I66062J-151243D01*
G01*
X226109717Y-101089046D02*
G75*
G02X226079971Y-101069357I32052J80740D01*
G01*
X226238122Y-101183402D02*
X226238122Y-101134126D01*
X225332120Y-100910898D02*
G75*
G02X225360586Y-100919888I-32817J-153474D01*
G01*
X226116778Y-101884776D02*
G75*
G02X226077832Y-101919635I-66642J35270D01*
G01*
X224421117Y-101458721D02*
X224514722Y-101458721D01*
X225758680Y-100840406D02*
G75*
G02X225776542Y-100879784I-101329J-69702D01*
G01*
X226077832Y-101919635D02*
G75*
G02X226045772Y-101928350I-52625J130267D01*
G01*
X224734845Y-101489276D02*
X224667282Y-101569968D01*
X223970032Y-99260419D02*
G75*
G02X223986557Y-99273902I-4263J-22093D01*
G01*
X224131592Y-99624048D02*
X223986557Y-99273902D01*
X226329860Y-97558899D02*
G75*
G02X226358378Y-97561625I12608J-18636D01*
G01*
X225977246Y-97797461D02*
X226329860Y-97558899D01*
X225503150Y-100838577D02*
G75*
G02X225541779Y-100772195I170796J-54958D01*
G01*
X224124407Y-101453771D02*
G75*
G02X224200908Y-101461625I6709J-311159D01*
G01*
X226732715Y-101649800D02*
G75*
G02X226740730Y-101603455I148704J-1852D01*
G01*
X225433451Y-101045687D02*
G75*
G02X225419432Y-101106476I-127936J-2506D01*
G01*
X227308885Y-101093807D02*
G75*
G02X227273382Y-101072262I35142J97933D01*
G01*
X227242189Y-100909049D02*
X227242189Y-100909049D01*
X223630707Y-100817974D02*
G75*
G02X223653725Y-100809138I38982J-67150D01*
G01*
X226751728Y-100748524D02*
X226684165Y-100829217D01*
X223131842Y-100731848D02*
G75*
G02X223170924Y-100717405I66840J-120764D01*
G01*
X223939718Y-100952514D02*
G75*
G02X223943599Y-100889770I470616J2384D01*
G01*
X224006962Y-101142411D02*
G75*
G02X223977543Y-101113153I68130J97924D01*
G01*
X223317433Y-100994314D02*
X223318725Y-100951224D01*
X223552007Y-99179772D02*
G75*
G02X223533769Y-99157679I4262J22093D01*
G01*
X223970032Y-99260420D02*
X223552007Y-99179772D01*
X224568568Y-101467113D02*
G75*
G02X224637591Y-101453342I66062J-151243D01*
G01*
X225586425Y-100907703D02*
G75*
G02X225589979Y-100879784I186530J-9553D01*
G01*
X226413010Y-101644421D02*
X226413010Y-101924154D01*
X225776541Y-100879784D02*
G75*
G02X225780411Y-100907972I-168959J-37556D01*
G01*
X225638827Y-101087056D02*
G75*
G02X225608061Y-101061396I30559J67913D01*
G01*
X226118720Y-101651091D02*
X226118720Y-101601815D01*
X224034025Y-101784717D02*
G75*
G02X224038542Y-101760847I53510J2237D01*
G01*
X225147473Y-100976157D02*
G75*
G02X225104437Y-100949825I52991J134940D01*
G01*
X226062054Y-101178534D02*
G75*
G02X226010466Y-101147790I71310J178313D01*
G01*
X225605881Y-97654577D02*
G75*
G02X225592399Y-97638052I8611J20787D01*
G01*
X225511751Y-97220027D02*
X225592399Y-97638052D01*
X225489658Y-97201790D02*
G75*
G02X225511751Y-97220027I1J-22500D01*
G01*
X225063596Y-97201790D02*
X225489659Y-97201790D01*
X224498623Y-100717969D02*
X224498623Y-100767676D01*
X223591467Y-101647002D02*
X223591467Y-101924154D01*
X223591467Y-101647002D02*
G75*
G02X223598022Y-101605043I124448J2049D01*
G01*
X223220389Y-100712590D02*
G75*
G02X223269261Y-100717405I2130J-228827D01*
G01*
X224221882Y-101728126D02*
X224112784Y-101728126D01*
X226763906Y-101813013D02*
G75*
G02X226740509Y-101777105I60771J65174D01*
G01*
X225564612Y-100751563D02*
G75*
G02X225594827Y-100731848I163052J-216876D01*
G01*
X225930863Y-101784717D02*
G75*
G02X225935380Y-101760847I53510J2237D01*
G01*
X225307773Y-101000257D02*
G75*
G02X225325593Y-101009429I-16228J-53427D01*
G01*
X225425615Y-100994447D02*
G75*
G02X225433451Y-101045687I-154599J-49862D01*
G01*
X224260828Y-101486908D02*
G75*
G02X224299030Y-101534733I-63509J-89901D01*
G01*
X224674774Y-100722892D02*
G75*
G02X224726169Y-100753796I-73067J-179701D01*
G01*
X225035799Y-101105938D02*
X225035799Y-101105938D01*
X227532024Y-100986082D02*
X227532024Y-100986082D01*
X227522990Y-101113899D02*
G75*
G02X227486193Y-101148543I-171269J145051D01*
G01*
X224033323Y-100909049D02*
G75*
G02X224041337Y-100862704I148703J-1851D01*
G01*
X223031381Y-101016611D02*
G75*
G02X223028449Y-100950148I651298J62026D01*
G01*
X226331727Y-100717969D02*
X226331727Y-101183402D01*
X223040176Y-101063225D02*
G75*
G02X223031381Y-101016611I226984J66966D01*
G01*
X224773979Y-101513807D02*
G75*
G02X224824548Y-101470556I126018J-96152D01*
G01*
X227302330Y-100807780D02*
G75*
G02X227340518Y-100800813I36966J-94482D01*
G01*
X224299030Y-101534732D02*
G75*
G02X224308835Y-101567883I-143727J-60538D01*
G01*
X225191610Y-100895680D02*
G75*
G02X225172977Y-100885271I12358J44000D01*
G01*
X227152785Y-101018204D02*
G75*
G02X227148585Y-100952514I468280J62921D01*
G01*
X223736199Y-101084285D02*
G75*
G02X223713074Y-101092778I-38909J70214D01*
G01*
X224033322Y-100909049D02*
X224229780Y-100909049D01*
X223593188Y-101508428D02*
G75*
G02X223645313Y-101467113I110467J-85832D01*
G01*
X223591467Y-101508428D02*
X223593188Y-101508428D01*
X225935972Y-101806451D02*
G75*
G02X225930863Y-101784717I42404J21436D01*
G01*
X225168821Y-101458721D02*
X225267811Y-101458721D01*
X225172977Y-100885271D02*
G75*
G02X225163213Y-100871688I32967J33999D01*
G01*
X224308836Y-101567883D02*
G75*
G02X224312471Y-101607194I-228185J-40928D01*
G01*
X223497862Y-101924154D02*
X223497862Y-101924154D01*
X223591467Y-101924154D02*
X223497862Y-101924154D01*
X223785233Y-101171998D02*
G75*
G02X223751424Y-101184586I-62499J116162D01*
G01*
X223836339Y-101128747D02*
G75*
G02X223785233Y-101171998I-125825J96857D01*
G01*
X225377388Y-101151556D02*
G75*
G02X225315182Y-101179475I-116965J177344D01*
G01*
X227165386Y-101071751D02*
G75*
G02X227152785Y-101018204I261126J89706D01*
G01*
X223591464Y-100766815D02*
G75*
G02X223645959Y-100726146I123195J-108232D01*
G01*
X223591464Y-100717969D02*
X223591464Y-100766814D01*
X225940117Y-101577930D02*
X225868464Y-101521553D01*
X225888694Y-101890156D02*
G75*
G02X225856414Y-101845129I87344J96703D01*
G01*
X225163213Y-100871689D02*
G75*
G02X225159949Y-100856975I31560J14720D01*
G01*
X227474570Y-100765738D02*
G75*
G02X227517661Y-100828141I-115254J-125666D01*
G01*
X224898570Y-101453341D02*
G75*
G02X224963654Y-101468619I1929J-138058D01*
G01*
X225315181Y-101179475D02*
G75*
G02X225240650Y-101188782I-72031J273766D01*
G01*
X226438000Y-101183402D02*
X226438000Y-101183402D01*
X225240650Y-101188782D02*
G75*
G02X225131332Y-101168071I-1909J288784D01*
G01*
X224824548Y-101470556D02*
G75*
G02X224858550Y-101457644I62863J-114314D01*
G01*
X227271234Y-100828678D02*
G75*
G02X227302330Y-100807780I65430J-63775D01*
G01*
X227242190Y-100909049D02*
G75*
G02X227250204Y-100862704I148703J-1851D01*
G01*
X223986557Y-98615394D02*
G75*
G02X223970032Y-98628876I-20788J8610D01*
G01*
X223552007Y-98709524D02*
X223970032Y-98628876D01*
X225471069Y-99420864D02*
G75*
G02X225482491Y-99391919I20830J8506D01*
G01*
X225766252Y-100143814D02*
X225471068Y-99420863D01*
X223411897Y-100950149D02*
G75*
G02X223408993Y-101016611I-660242J-4442D01*
G01*
X226866475Y-101059513D02*
G75*
G02X226843766Y-101014392I92534J74847D01*
G01*
X225066358Y-100856114D02*
G75*
G02X225078780Y-100793927I146333J3104D01*
G01*
X224764013Y-100804445D02*
G75*
G02X224773474Y-100836849I-143035J-59345D01*
G01*
X223959577Y-101845129D02*
G75*
G02X223948821Y-101789237I130304J54056D01*
G01*
X225201829Y-100804794D02*
G75*
G02X225239783Y-100800813I35073J-151458D01*
G01*
X226807794Y-100767999D02*
G75*
G02X226876858Y-100726442I154364J-178370D01*
G01*
X226935623Y-101912319D02*
G75*
G02X226845241Y-101929533I-89680J224982D01*
G01*
X226779260Y-101101917D02*
G75*
G02X226758892Y-101060804I155266J102524D01*
G01*
X226010467Y-101147789D02*
G75*
G02X225972705Y-101097196I80413J99406D01*
G01*
X224542802Y-101570076D02*
G75*
G02X224605311Y-101546944I62469J-72784D01*
G01*
X224265715Y-100765738D02*
G75*
G02X224308805Y-100828141I-115254J-125663D01*
G01*
X223862589Y-100831584D02*
G75*
G02X223867754Y-100878170I-334954J-60711D01*
G01*
X223836339Y-100773055D02*
G75*
G02X223862590Y-100831584I-112560J-85637D01*
G01*
X225532471Y-101458721D02*
X225637699Y-101784717D01*
X225357105Y-101784717D02*
X225358826Y-101784717D01*
X224001797Y-100764556D02*
G75*
G02X224065303Y-100725581I153672J-179168D01*
G01*
X225935380Y-101760847D02*
G75*
G02X225950019Y-101743458I39916J-18747D01*
G01*
X227455207Y-101056015D02*
X227522990Y-101113899D01*
X224874167Y-101825037D02*
G75*
G02X224847684Y-101791066I27044J48391D01*
G01*
X224498623Y-100767676D02*
X224500344Y-100767676D01*
X223683346Y-101095609D02*
X223683346Y-101095609D01*
X225131332Y-101168071D02*
G75*
G02X225035799Y-101105938I118365J286501D01*
G01*
X224676468Y-100864291D02*
G75*
G02X224683023Y-100906250I-117893J-39910D01*
G01*
X224505177Y-100864292D02*
G75*
G02X224524871Y-100832660I79946J-27826D01*
G01*
X224687499Y-101462325D02*
G75*
G02X224734845Y-101489276I-62636J-165101D01*
G01*
X226238122Y-100995550D02*
X226238122Y-100717969D01*
X226016508Y-101843462D02*
G75*
G02X225977507Y-101838889I-2689J145673D01*
G01*
X224979395Y-101824579D02*
G75*
G02X224956534Y-101833415I-38839J66494D01*
G01*
X223714336Y-101453341D02*
G75*
G02X223767618Y-101463643I-269J-144340D01*
G01*
X223645313Y-101467113D02*
G75*
G02X223714336Y-101453342I66061J-151243D01*
G01*
X224246349Y-101056015D02*
X224314131Y-101113899D01*
X227242189Y-100909049D02*
X227438640Y-100909049D01*
X223591464Y-100951224D02*
G75*
G02X223604482Y-100853317I365994J1155D01*
G01*
X225874884Y-100950148D02*
G75*
G02X225871978Y-101016611I-660244J-4429D01*
G01*
X224054475Y-101825171D02*
G75*
G02X224039134Y-101806451I37916J46718D01*
G01*
X224742511Y-101764060D02*
X224740845Y-101690900D01*
X225638827Y-100814745D02*
G75*
G02X225683364Y-100806192I41976J-98339D01*
G01*
X227274167Y-100725581D02*
G75*
G02X227340518Y-100712590I66583J-164140D01*
G01*
X226654630Y-101578279D02*
G75*
G02X226674020Y-101536542I176420J-56589D01*
G01*
X224576009Y-100091835D02*
G75*
G02X224597227Y-100089684I12608J-18636D01*
G01*
X224757562Y-100156096D02*
X224597227Y-100089684D01*
X227022549Y-101649800D02*
X227022549Y-101726834D01*
X225728715Y-101458721D02*
X225827911Y-101458721D01*
X227215817Y-101142411D02*
G75*
G02X227186401Y-101113153I68131J97916D01*
G01*
X225313804Y-101085926D02*
G75*
G02X225284333Y-101097223I-52045J91684D01*
G01*
X225827911Y-101458721D02*
X225679013Y-101924154D01*
X226807795Y-101133911D02*
G75*
G02X226779260Y-101101917I98020J116142D01*
G01*
X226957340Y-101095609D02*
G75*
G02X226904333Y-101086585I-2930J142983D01*
G01*
X225732239Y-100717405D02*
G75*
G02X225771267Y-100731848I-28444J-136810D01*
G01*
X225503150Y-101063225D02*
G75*
G02X225494364Y-101016611I226990J66920D01*
G01*
X227048575Y-101166187D02*
G75*
G02X227003873Y-101183133I-86838J161643D01*
G01*
X226113074Y-101574811D02*
G75*
G02X226118720Y-101601815I-53074J-25189D01*
G01*
D10*
X187437142Y-98512380D02*
X188008571Y-98512380D01*
X187722857Y-99512380D02*
X187722857Y-98512380D01*
X188341904Y-99512380D02*
X188341904Y-98845714D01*
X188341904Y-99036190D02*
X188389523Y-98940952D01*
X188437142Y-98893333D01*
X188532380Y-98845714D01*
X188627619Y-98845714D01*
X189389523Y-98845714D02*
X189389523Y-99512380D01*
X188960952Y-98845714D02*
X188960952Y-99369523D01*
X189008571Y-99464761D01*
X189103809Y-99512380D01*
X189246666Y-99512380D01*
X189341904Y-99464761D01*
X189389523Y-99417142D01*
X189818095Y-99464761D02*
X189913333Y-99512380D01*
X190103809Y-99512380D01*
X190199047Y-99464761D01*
X190246666Y-99369523D01*
X190246666Y-99321904D01*
X190199047Y-99226666D01*
X190103809Y-99179047D01*
X189960952Y-99179047D01*
X189865714Y-99131428D01*
X189818095Y-99036190D01*
X189818095Y-98988571D01*
X189865714Y-98893333D01*
X189960952Y-98845714D01*
X190103809Y-98845714D01*
X190199047Y-98893333D01*
X190532380Y-98845714D02*
X190913333Y-98845714D01*
X190675238Y-98512380D02*
X190675238Y-99369523D01*
X190722857Y-99464761D01*
X190818095Y-99512380D01*
X190913333Y-99512380D01*
X192199047Y-99036190D02*
X192199047Y-99512380D01*
X191865714Y-98512380D02*
X192199047Y-99036190D01*
X192532380Y-98512380D01*
X193008571Y-99512380D02*
X192913333Y-99464761D01*
X192865714Y-99417142D01*
X192818095Y-99321904D01*
X192818095Y-99036190D01*
X192865714Y-98940952D01*
X192913333Y-98893333D01*
X193008571Y-98845714D01*
X193151428Y-98845714D01*
X193246666Y-98893333D01*
X193294285Y-98940952D01*
X193341904Y-99036190D01*
X193341904Y-99321904D01*
X193294285Y-99417142D01*
X193246666Y-99464761D01*
X193151428Y-99512380D01*
X193008571Y-99512380D01*
X194199047Y-98845714D02*
X194199047Y-99512380D01*
X193770476Y-98845714D02*
X193770476Y-99369523D01*
X193818095Y-99464761D01*
X193913333Y-99512380D01*
X194056190Y-99512380D01*
X194151428Y-99464761D01*
X194199047Y-99417142D01*
X194675238Y-99512380D02*
X194675238Y-98845714D01*
X194675238Y-99036190D02*
X194722857Y-98940952D01*
X194770476Y-98893333D01*
X194865714Y-98845714D01*
X194960952Y-98845714D01*
X195913333Y-98512380D02*
X196484761Y-98512380D01*
X196199047Y-99512380D02*
X196199047Y-98512380D01*
X197199047Y-99464761D02*
X197103809Y-99512380D01*
X196913333Y-99512380D01*
X196818095Y-99464761D01*
X196770476Y-99369523D01*
X196770476Y-98988571D01*
X196818095Y-98893333D01*
X196913333Y-98845714D01*
X197103809Y-98845714D01*
X197199047Y-98893333D01*
X197246666Y-98988571D01*
X197246666Y-99083809D01*
X196770476Y-99179047D01*
X198103809Y-99464761D02*
X198008571Y-99512380D01*
X197818095Y-99512380D01*
X197722857Y-99464761D01*
X197675238Y-99417142D01*
X197627619Y-99321904D01*
X197627619Y-99036190D01*
X197675238Y-98940952D01*
X197722857Y-98893333D01*
X197818095Y-98845714D01*
X198008571Y-98845714D01*
X198103809Y-98893333D01*
X198532380Y-99512380D02*
X198532380Y-98512380D01*
X198960952Y-99512380D02*
X198960952Y-98988571D01*
X198913333Y-98893333D01*
X198818095Y-98845714D01*
X198675238Y-98845714D01*
X198580000Y-98893333D01*
X198532380Y-98940952D01*
X199437142Y-98845714D02*
X199437142Y-99512380D01*
X199437142Y-98940952D02*
X199484761Y-98893333D01*
X199580000Y-98845714D01*
X199722857Y-98845714D01*
X199818095Y-98893333D01*
X199865714Y-98988571D01*
X199865714Y-99512380D01*
X200484761Y-99512380D02*
X200389523Y-99464761D01*
X200341904Y-99417142D01*
X200294285Y-99321904D01*
X200294285Y-99036190D01*
X200341904Y-98940952D01*
X200389523Y-98893333D01*
X200484761Y-98845714D01*
X200627619Y-98845714D01*
X200722857Y-98893333D01*
X200770476Y-98940952D01*
X200818095Y-99036190D01*
X200818095Y-99321904D01*
X200770476Y-99417142D01*
X200722857Y-99464761D01*
X200627619Y-99512380D01*
X200484761Y-99512380D01*
X201389523Y-99512380D02*
X201294285Y-99464761D01*
X201246666Y-99369523D01*
X201246666Y-98512380D01*
X202199047Y-98845714D02*
X202199047Y-99512380D01*
X201770476Y-98845714D02*
X201770476Y-99369523D01*
X201818095Y-99464761D01*
X201913333Y-99512380D01*
X202056190Y-99512380D01*
X202151428Y-99464761D01*
X202199047Y-99417142D01*
X202627619Y-99464761D02*
X202722857Y-99512380D01*
X202913333Y-99512380D01*
X203008571Y-99464761D01*
X203056190Y-99369523D01*
X203056190Y-99321904D01*
X203008571Y-99226666D01*
X202913333Y-99179047D01*
X202770476Y-99179047D01*
X202675238Y-99131428D01*
X202627619Y-99036190D01*
X202627619Y-98988571D01*
X202675238Y-98893333D01*
X202770476Y-98845714D01*
X202913333Y-98845714D01*
X203008571Y-98893333D01*
X203341904Y-98845714D02*
X203722857Y-98845714D01*
X203484761Y-98512380D02*
X203484761Y-99369523D01*
X203532380Y-99464761D01*
X203627619Y-99512380D01*
X203722857Y-99512380D01*
D13*
X48260000Y-95310000D02*
X46930000Y-95310000D01*
X46930000Y-95310000D02*
X46930000Y-93980000D01*
X46930000Y-92710000D02*
X46930000Y-87570000D01*
X49590000Y-87570000D02*
X46930000Y-87570000D01*
X49590000Y-92710000D02*
X49590000Y-87570000D01*
X49590000Y-92710000D02*
X46930000Y-92710000D01*
X103080000Y-89060000D02*
X103080000Y-96360000D01*
X97580000Y-89060000D02*
X97580000Y-96360000D01*
X97580000Y-96360000D02*
X98730000Y-96360000D01*
X106470000Y-96360000D02*
X107620000Y-96360000D01*
X106470000Y-89060000D02*
X106470000Y-96360000D01*
X111970000Y-89060000D02*
X111970000Y-96360000D01*
X124250000Y-96360000D02*
X125400000Y-96360000D01*
X124250000Y-89060000D02*
X124250000Y-96360000D01*
X129750000Y-89060000D02*
X129750000Y-96360000D01*
X156420000Y-89060000D02*
X156420000Y-96360000D01*
X150920000Y-89060000D02*
X150920000Y-96360000D01*
X150920000Y-96360000D02*
X152070000Y-96360000D01*
X195370000Y-96360000D02*
X196520000Y-96360000D01*
X195370000Y-89060000D02*
X195370000Y-96360000D01*
X200870000Y-89060000D02*
X200870000Y-96360000D01*
D14*
X54610000Y-87630000D02*
X52070000Y-87630000D01*
X52070000Y-87630000D02*
X52070000Y-90170000D01*
X52070000Y-90170000D02*
X52070000Y-97790000D01*
X52070000Y-97790000D02*
X57150000Y-97790000D01*
X57150000Y-97790000D02*
X57150000Y-87630000D01*
X57150000Y-87630000D02*
X54610000Y-87630000D01*
D13*
X88690000Y-96360000D02*
X89840000Y-96360000D01*
X88690000Y-89060000D02*
X88690000Y-96360000D01*
X94190000Y-89060000D02*
X94190000Y-96360000D01*
X29150000Y-92710000D02*
X31810000Y-92710000D01*
X29150000Y-92710000D02*
X29150000Y-97850000D01*
X29150000Y-97850000D02*
X31810000Y-97850000D01*
X31810000Y-92710000D02*
X31810000Y-97850000D01*
X31810000Y-90110000D02*
X31810000Y-91440000D01*
X30480000Y-90110000D02*
X31810000Y-90110000D01*
X224730000Y-91440000D02*
X227390000Y-91440000D01*
X224730000Y-91440000D02*
X224730000Y-96580000D01*
X224730000Y-96580000D02*
X227390000Y-96580000D01*
X227390000Y-91440000D02*
X227390000Y-96580000D01*
X227390000Y-88840000D02*
X227390000Y-90170000D01*
X226060000Y-88840000D02*
X227390000Y-88840000D01*
X85300000Y-89060000D02*
X85300000Y-96360000D01*
X79800000Y-89060000D02*
X79800000Y-96360000D01*
X79800000Y-96360000D02*
X80950000Y-96360000D01*
X120860000Y-89060000D02*
X120860000Y-96360000D01*
X115360000Y-89060000D02*
X115360000Y-96360000D01*
X115360000Y-96360000D02*
X116510000Y-96360000D01*
X138640000Y-89060000D02*
X138640000Y-96360000D01*
X133140000Y-89060000D02*
X133140000Y-96360000D01*
X133140000Y-96360000D02*
X134290000Y-96360000D01*
X142030000Y-96360000D02*
X143180000Y-96360000D01*
X142030000Y-89060000D02*
X142030000Y-96360000D01*
X147530000Y-89060000D02*
X147530000Y-96360000D01*
X159810000Y-96360000D02*
X160960000Y-96360000D01*
X159810000Y-89060000D02*
X159810000Y-96360000D01*
X165310000Y-89060000D02*
X165310000Y-96360000D01*
X174200000Y-89060000D02*
X174200000Y-96360000D01*
X168700000Y-89060000D02*
X168700000Y-96360000D01*
X168700000Y-96360000D02*
X169850000Y-96360000D01*
X177590000Y-96360000D02*
X178740000Y-96360000D01*
X177590000Y-89060000D02*
X177590000Y-96360000D01*
X183090000Y-89060000D02*
X183090000Y-96360000D01*
X191980000Y-89060000D02*
X191980000Y-96360000D01*
X186480000Y-89060000D02*
X186480000Y-96360000D01*
X186480000Y-96360000D02*
X187630000Y-96360000D01*
X209125000Y-89060000D02*
X209125000Y-96360000D01*
X203625000Y-89060000D02*
X203625000Y-96360000D01*
X203625000Y-96360000D02*
X204775000Y-96360000D01*
D10*
X47498095Y-96202380D02*
X47498095Y-97011904D01*
X47545714Y-97107142D01*
X47593333Y-97154761D01*
X47688571Y-97202380D01*
X47879047Y-97202380D01*
X47974285Y-97154761D01*
X48021904Y-97107142D01*
X48069523Y-97011904D01*
X48069523Y-96202380D01*
X49069523Y-97202380D02*
X48498095Y-97202380D01*
X48783809Y-97202380D02*
X48783809Y-96202380D01*
X48688571Y-96345238D01*
X48593333Y-96440476D01*
X48498095Y-96488095D01*
X104282380Y-93448095D02*
X103282380Y-93448095D01*
X103282380Y-93210000D01*
X103330000Y-93067142D01*
X103425238Y-92971904D01*
X103520476Y-92924285D01*
X103710952Y-92876666D01*
X103853809Y-92876666D01*
X104044285Y-92924285D01*
X104139523Y-92971904D01*
X104234761Y-93067142D01*
X104282380Y-93210000D01*
X104282380Y-93448095D01*
X103282380Y-92543333D02*
X103282380Y-91924285D01*
X103663333Y-92257619D01*
X103663333Y-92114761D01*
X103710952Y-92019523D01*
X103758571Y-91971904D01*
X103853809Y-91924285D01*
X104091904Y-91924285D01*
X104187142Y-91971904D01*
X104234761Y-92019523D01*
X104282380Y-92114761D01*
X104282380Y-92400476D01*
X104234761Y-92495714D01*
X104187142Y-92543333D01*
X102382380Y-88274285D02*
X102382380Y-88845714D01*
X102382380Y-88560000D02*
X101382380Y-88560000D01*
X101525238Y-88655238D01*
X101620476Y-88750476D01*
X101668095Y-88845714D01*
X113172380Y-93448095D02*
X112172380Y-93448095D01*
X112172380Y-93210000D01*
X112220000Y-93067142D01*
X112315238Y-92971904D01*
X112410476Y-92924285D01*
X112600952Y-92876666D01*
X112743809Y-92876666D01*
X112934285Y-92924285D01*
X113029523Y-92971904D01*
X113124761Y-93067142D01*
X113172380Y-93210000D01*
X113172380Y-93448095D01*
X112505714Y-92019523D02*
X113172380Y-92019523D01*
X112124761Y-92257619D02*
X112839047Y-92495714D01*
X112839047Y-91876666D01*
X111272380Y-88274285D02*
X111272380Y-88845714D01*
X111272380Y-88560000D02*
X110272380Y-88560000D01*
X110415238Y-88655238D01*
X110510476Y-88750476D01*
X110558095Y-88845714D01*
X130952380Y-93448095D02*
X129952380Y-93448095D01*
X129952380Y-93210000D01*
X130000000Y-93067142D01*
X130095238Y-92971904D01*
X130190476Y-92924285D01*
X130380952Y-92876666D01*
X130523809Y-92876666D01*
X130714285Y-92924285D01*
X130809523Y-92971904D01*
X130904761Y-93067142D01*
X130952380Y-93210000D01*
X130952380Y-93448095D01*
X129952380Y-92019523D02*
X129952380Y-92210000D01*
X130000000Y-92305238D01*
X130047619Y-92352857D01*
X130190476Y-92448095D01*
X130380952Y-92495714D01*
X130761904Y-92495714D01*
X130857142Y-92448095D01*
X130904761Y-92400476D01*
X130952380Y-92305238D01*
X130952380Y-92114761D01*
X130904761Y-92019523D01*
X130857142Y-91971904D01*
X130761904Y-91924285D01*
X130523809Y-91924285D01*
X130428571Y-91971904D01*
X130380952Y-92019523D01*
X130333333Y-92114761D01*
X130333333Y-92305238D01*
X130380952Y-92400476D01*
X130428571Y-92448095D01*
X130523809Y-92495714D01*
X129052380Y-88274285D02*
X129052380Y-88845714D01*
X129052380Y-88560000D02*
X128052380Y-88560000D01*
X128195238Y-88655238D01*
X128290476Y-88750476D01*
X128338095Y-88845714D01*
X157622380Y-93448095D02*
X156622380Y-93448095D01*
X156622380Y-93210000D01*
X156670000Y-93067142D01*
X156765238Y-92971904D01*
X156860476Y-92924285D01*
X157050952Y-92876666D01*
X157193809Y-92876666D01*
X157384285Y-92924285D01*
X157479523Y-92971904D01*
X157574761Y-93067142D01*
X157622380Y-93210000D01*
X157622380Y-93448095D01*
X157622380Y-92400476D02*
X157622380Y-92210000D01*
X157574761Y-92114761D01*
X157527142Y-92067142D01*
X157384285Y-91971904D01*
X157193809Y-91924285D01*
X156812857Y-91924285D01*
X156717619Y-91971904D01*
X156670000Y-92019523D01*
X156622380Y-92114761D01*
X156622380Y-92305238D01*
X156670000Y-92400476D01*
X156717619Y-92448095D01*
X156812857Y-92495714D01*
X157050952Y-92495714D01*
X157146190Y-92448095D01*
X157193809Y-92400476D01*
X157241428Y-92305238D01*
X157241428Y-92114761D01*
X157193809Y-92019523D01*
X157146190Y-91971904D01*
X157050952Y-91924285D01*
X155722380Y-88274285D02*
X155722380Y-88845714D01*
X155722380Y-88560000D02*
X154722380Y-88560000D01*
X154865238Y-88655238D01*
X154960476Y-88750476D01*
X155008095Y-88845714D01*
X202072380Y-93924285D02*
X201072380Y-93924285D01*
X201072380Y-93686190D01*
X201120000Y-93543333D01*
X201215238Y-93448095D01*
X201310476Y-93400476D01*
X201500952Y-93352857D01*
X201643809Y-93352857D01*
X201834285Y-93400476D01*
X201929523Y-93448095D01*
X202024761Y-93543333D01*
X202072380Y-93686190D01*
X202072380Y-93924285D01*
X202072380Y-92400476D02*
X202072380Y-92971904D01*
X202072380Y-92686190D02*
X201072380Y-92686190D01*
X201215238Y-92781428D01*
X201310476Y-92876666D01*
X201358095Y-92971904D01*
X201405714Y-91543333D02*
X202072380Y-91543333D01*
X201024761Y-91781428D02*
X201739047Y-92019523D01*
X201739047Y-91400476D01*
X200172380Y-88274285D02*
X200172380Y-88845714D01*
X200172380Y-88560000D02*
X199172380Y-88560000D01*
X199315238Y-88655238D01*
X199410476Y-88750476D01*
X199458095Y-88845714D01*
X52832095Y-83780380D02*
X52832095Y-84589904D01*
X52879714Y-84685142D01*
X52927333Y-84732761D01*
X53022571Y-84780380D01*
X53213047Y-84780380D01*
X53308285Y-84732761D01*
X53355904Y-84685142D01*
X53403523Y-84589904D01*
X53403523Y-83780380D01*
X53832095Y-83875619D02*
X53879714Y-83828000D01*
X53974952Y-83780380D01*
X54213047Y-83780380D01*
X54308285Y-83828000D01*
X54355904Y-83875619D01*
X54403523Y-83970857D01*
X54403523Y-84066095D01*
X54355904Y-84208952D01*
X53784476Y-84780380D01*
X54403523Y-84780380D01*
X95392380Y-93448095D02*
X94392380Y-93448095D01*
X94392380Y-93210000D01*
X94440000Y-93067142D01*
X94535238Y-92971904D01*
X94630476Y-92924285D01*
X94820952Y-92876666D01*
X94963809Y-92876666D01*
X95154285Y-92924285D01*
X95249523Y-92971904D01*
X95344761Y-93067142D01*
X95392380Y-93210000D01*
X95392380Y-93448095D01*
X94487619Y-92495714D02*
X94440000Y-92448095D01*
X94392380Y-92352857D01*
X94392380Y-92114761D01*
X94440000Y-92019523D01*
X94487619Y-91971904D01*
X94582857Y-91924285D01*
X94678095Y-91924285D01*
X94820952Y-91971904D01*
X95392380Y-92543333D01*
X95392380Y-91924285D01*
X93492380Y-88274285D02*
X93492380Y-88845714D01*
X93492380Y-88560000D02*
X92492380Y-88560000D01*
X92635238Y-88655238D01*
X92730476Y-88750476D01*
X92778095Y-88845714D01*
X30146666Y-88122380D02*
X30146666Y-88836666D01*
X30099047Y-88979523D01*
X30003809Y-89074761D01*
X29860952Y-89122380D01*
X29765714Y-89122380D01*
X31146666Y-89122380D02*
X30575238Y-89122380D01*
X30860952Y-89122380D02*
X30860952Y-88122380D01*
X30765714Y-88265238D01*
X30670476Y-88360476D01*
X30575238Y-88408095D01*
X225726666Y-86852380D02*
X225726666Y-87566666D01*
X225679047Y-87709523D01*
X225583809Y-87804761D01*
X225440952Y-87852380D01*
X225345714Y-87852380D01*
X226107619Y-86852380D02*
X226726666Y-86852380D01*
X226393333Y-87233333D01*
X226536190Y-87233333D01*
X226631428Y-87280952D01*
X226679047Y-87328571D01*
X226726666Y-87423809D01*
X226726666Y-87661904D01*
X226679047Y-87757142D01*
X226631428Y-87804761D01*
X226536190Y-87852380D01*
X226250476Y-87852380D01*
X226155238Y-87804761D01*
X226107619Y-87757142D01*
X86502380Y-93448095D02*
X85502380Y-93448095D01*
X85502380Y-93210000D01*
X85550000Y-93067142D01*
X85645238Y-92971904D01*
X85740476Y-92924285D01*
X85930952Y-92876666D01*
X86073809Y-92876666D01*
X86264285Y-92924285D01*
X86359523Y-92971904D01*
X86454761Y-93067142D01*
X86502380Y-93210000D01*
X86502380Y-93448095D01*
X86502380Y-91924285D02*
X86502380Y-92495714D01*
X86502380Y-92210000D02*
X85502380Y-92210000D01*
X85645238Y-92305238D01*
X85740476Y-92400476D01*
X85788095Y-92495714D01*
X84602380Y-88274285D02*
X84602380Y-88845714D01*
X84602380Y-88560000D02*
X83602380Y-88560000D01*
X83745238Y-88655238D01*
X83840476Y-88750476D01*
X83888095Y-88845714D01*
X122062380Y-93448095D02*
X121062380Y-93448095D01*
X121062380Y-93210000D01*
X121110000Y-93067142D01*
X121205238Y-92971904D01*
X121300476Y-92924285D01*
X121490952Y-92876666D01*
X121633809Y-92876666D01*
X121824285Y-92924285D01*
X121919523Y-92971904D01*
X122014761Y-93067142D01*
X122062380Y-93210000D01*
X122062380Y-93448095D01*
X121062380Y-91971904D02*
X121062380Y-92448095D01*
X121538571Y-92495714D01*
X121490952Y-92448095D01*
X121443333Y-92352857D01*
X121443333Y-92114761D01*
X121490952Y-92019523D01*
X121538571Y-91971904D01*
X121633809Y-91924285D01*
X121871904Y-91924285D01*
X121967142Y-91971904D01*
X122014761Y-92019523D01*
X122062380Y-92114761D01*
X122062380Y-92352857D01*
X122014761Y-92448095D01*
X121967142Y-92495714D01*
X120162380Y-88274285D02*
X120162380Y-88845714D01*
X120162380Y-88560000D02*
X119162380Y-88560000D01*
X119305238Y-88655238D01*
X119400476Y-88750476D01*
X119448095Y-88845714D01*
X139842380Y-93448095D02*
X138842380Y-93448095D01*
X138842380Y-93210000D01*
X138890000Y-93067142D01*
X138985238Y-92971904D01*
X139080476Y-92924285D01*
X139270952Y-92876666D01*
X139413809Y-92876666D01*
X139604285Y-92924285D01*
X139699523Y-92971904D01*
X139794761Y-93067142D01*
X139842380Y-93210000D01*
X139842380Y-93448095D01*
X138842380Y-92543333D02*
X138842380Y-91876666D01*
X139842380Y-92305238D01*
X137942380Y-88274285D02*
X137942380Y-88845714D01*
X137942380Y-88560000D02*
X136942380Y-88560000D01*
X137085238Y-88655238D01*
X137180476Y-88750476D01*
X137228095Y-88845714D01*
X148732380Y-93448095D02*
X147732380Y-93448095D01*
X147732380Y-93210000D01*
X147780000Y-93067142D01*
X147875238Y-92971904D01*
X147970476Y-92924285D01*
X148160952Y-92876666D01*
X148303809Y-92876666D01*
X148494285Y-92924285D01*
X148589523Y-92971904D01*
X148684761Y-93067142D01*
X148732380Y-93210000D01*
X148732380Y-93448095D01*
X148160952Y-92305238D02*
X148113333Y-92400476D01*
X148065714Y-92448095D01*
X147970476Y-92495714D01*
X147922857Y-92495714D01*
X147827619Y-92448095D01*
X147780000Y-92400476D01*
X147732380Y-92305238D01*
X147732380Y-92114761D01*
X147780000Y-92019523D01*
X147827619Y-91971904D01*
X147922857Y-91924285D01*
X147970476Y-91924285D01*
X148065714Y-91971904D01*
X148113333Y-92019523D01*
X148160952Y-92114761D01*
X148160952Y-92305238D01*
X148208571Y-92400476D01*
X148256190Y-92448095D01*
X148351428Y-92495714D01*
X148541904Y-92495714D01*
X148637142Y-92448095D01*
X148684761Y-92400476D01*
X148732380Y-92305238D01*
X148732380Y-92114761D01*
X148684761Y-92019523D01*
X148637142Y-91971904D01*
X148541904Y-91924285D01*
X148351428Y-91924285D01*
X148256190Y-91971904D01*
X148208571Y-92019523D01*
X148160952Y-92114761D01*
X146832380Y-88274285D02*
X146832380Y-88845714D01*
X146832380Y-88560000D02*
X145832380Y-88560000D01*
X145975238Y-88655238D01*
X146070476Y-88750476D01*
X146118095Y-88845714D01*
X166512380Y-93924285D02*
X165512380Y-93924285D01*
X165512380Y-93686190D01*
X165560000Y-93543333D01*
X165655238Y-93448095D01*
X165750476Y-93400476D01*
X165940952Y-93352857D01*
X166083809Y-93352857D01*
X166274285Y-93400476D01*
X166369523Y-93448095D01*
X166464761Y-93543333D01*
X166512380Y-93686190D01*
X166512380Y-93924285D01*
X166512380Y-92400476D02*
X166512380Y-92971904D01*
X166512380Y-92686190D02*
X165512380Y-92686190D01*
X165655238Y-92781428D01*
X165750476Y-92876666D01*
X165798095Y-92971904D01*
X165512380Y-91781428D02*
X165512380Y-91686190D01*
X165560000Y-91590952D01*
X165607619Y-91543333D01*
X165702857Y-91495714D01*
X165893333Y-91448095D01*
X166131428Y-91448095D01*
X166321904Y-91495714D01*
X166417142Y-91543333D01*
X166464761Y-91590952D01*
X166512380Y-91686190D01*
X166512380Y-91781428D01*
X166464761Y-91876666D01*
X166417142Y-91924285D01*
X166321904Y-91971904D01*
X166131428Y-92019523D01*
X165893333Y-92019523D01*
X165702857Y-91971904D01*
X165607619Y-91924285D01*
X165560000Y-91876666D01*
X165512380Y-91781428D01*
X164612380Y-88274285D02*
X164612380Y-88845714D01*
X164612380Y-88560000D02*
X163612380Y-88560000D01*
X163755238Y-88655238D01*
X163850476Y-88750476D01*
X163898095Y-88845714D01*
X175402380Y-93924285D02*
X174402380Y-93924285D01*
X174402380Y-93686190D01*
X174450000Y-93543333D01*
X174545238Y-93448095D01*
X174640476Y-93400476D01*
X174830952Y-93352857D01*
X174973809Y-93352857D01*
X175164285Y-93400476D01*
X175259523Y-93448095D01*
X175354761Y-93543333D01*
X175402380Y-93686190D01*
X175402380Y-93924285D01*
X175402380Y-92400476D02*
X175402380Y-92971904D01*
X175402380Y-92686190D02*
X174402380Y-92686190D01*
X174545238Y-92781428D01*
X174640476Y-92876666D01*
X174688095Y-92971904D01*
X175402380Y-91448095D02*
X175402380Y-92019523D01*
X175402380Y-91733809D02*
X174402380Y-91733809D01*
X174545238Y-91829047D01*
X174640476Y-91924285D01*
X174688095Y-92019523D01*
X173502380Y-88274285D02*
X173502380Y-88845714D01*
X173502380Y-88560000D02*
X172502380Y-88560000D01*
X172645238Y-88655238D01*
X172740476Y-88750476D01*
X172788095Y-88845714D01*
X184292380Y-93924285D02*
X183292380Y-93924285D01*
X183292380Y-93686190D01*
X183340000Y-93543333D01*
X183435238Y-93448095D01*
X183530476Y-93400476D01*
X183720952Y-93352857D01*
X183863809Y-93352857D01*
X184054285Y-93400476D01*
X184149523Y-93448095D01*
X184244761Y-93543333D01*
X184292380Y-93686190D01*
X184292380Y-93924285D01*
X184292380Y-92400476D02*
X184292380Y-92971904D01*
X184292380Y-92686190D02*
X183292380Y-92686190D01*
X183435238Y-92781428D01*
X183530476Y-92876666D01*
X183578095Y-92971904D01*
X183387619Y-92019523D02*
X183340000Y-91971904D01*
X183292380Y-91876666D01*
X183292380Y-91638571D01*
X183340000Y-91543333D01*
X183387619Y-91495714D01*
X183482857Y-91448095D01*
X183578095Y-91448095D01*
X183720952Y-91495714D01*
X184292380Y-92067142D01*
X184292380Y-91448095D01*
X182392380Y-88274285D02*
X182392380Y-88845714D01*
X182392380Y-88560000D02*
X181392380Y-88560000D01*
X181535238Y-88655238D01*
X181630476Y-88750476D01*
X181678095Y-88845714D01*
X193182380Y-93924285D02*
X192182380Y-93924285D01*
X192182380Y-93686190D01*
X192230000Y-93543333D01*
X192325238Y-93448095D01*
X192420476Y-93400476D01*
X192610952Y-93352857D01*
X192753809Y-93352857D01*
X192944285Y-93400476D01*
X193039523Y-93448095D01*
X193134761Y-93543333D01*
X193182380Y-93686190D01*
X193182380Y-93924285D01*
X193182380Y-92400476D02*
X193182380Y-92971904D01*
X193182380Y-92686190D02*
X192182380Y-92686190D01*
X192325238Y-92781428D01*
X192420476Y-92876666D01*
X192468095Y-92971904D01*
X192182380Y-92067142D02*
X192182380Y-91448095D01*
X192563333Y-91781428D01*
X192563333Y-91638571D01*
X192610952Y-91543333D01*
X192658571Y-91495714D01*
X192753809Y-91448095D01*
X192991904Y-91448095D01*
X193087142Y-91495714D01*
X193134761Y-91543333D01*
X193182380Y-91638571D01*
X193182380Y-91924285D01*
X193134761Y-92019523D01*
X193087142Y-92067142D01*
X191282380Y-88274285D02*
X191282380Y-88845714D01*
X191282380Y-88560000D02*
X190282380Y-88560000D01*
X190425238Y-88655238D01*
X190520476Y-88750476D01*
X190568095Y-88845714D01*
X210327380Y-93924285D02*
X209327380Y-93924285D01*
X209327380Y-93686190D01*
X209375000Y-93543333D01*
X209470238Y-93448095D01*
X209565476Y-93400476D01*
X209755952Y-93352857D01*
X209898809Y-93352857D01*
X210089285Y-93400476D01*
X210184523Y-93448095D01*
X210279761Y-93543333D01*
X210327380Y-93686190D01*
X210327380Y-93924285D01*
X210327380Y-92400476D02*
X210327380Y-92971904D01*
X210327380Y-92686190D02*
X209327380Y-92686190D01*
X209470238Y-92781428D01*
X209565476Y-92876666D01*
X209613095Y-92971904D01*
X209327380Y-91495714D02*
X209327380Y-91971904D01*
X209803571Y-92019523D01*
X209755952Y-91971904D01*
X209708333Y-91876666D01*
X209708333Y-91638571D01*
X209755952Y-91543333D01*
X209803571Y-91495714D01*
X209898809Y-91448095D01*
X210136904Y-91448095D01*
X210232142Y-91495714D01*
X210279761Y-91543333D01*
X210327380Y-91638571D01*
X210327380Y-91876666D01*
X210279761Y-91971904D01*
X210232142Y-92019523D01*
X208427380Y-88274285D02*
X208427380Y-88845714D01*
X208427380Y-88560000D02*
X207427380Y-88560000D01*
X207570238Y-88655238D01*
X207665476Y-88750476D01*
X207713095Y-88845714D01*
M02*
