G04 #@! TF.GenerationSoftware,KiCad,Pcbnew,5.1.5+dfsg1-2build2*
G04 #@! TF.CreationDate,2020-06-16T21:05:42-04:00*
G04 #@! TF.ProjectId,RE_light,52455f6c-6967-4687-942e-6b696361645f,rev?*
G04 #@! TF.SameCoordinates,Original*
G04 #@! TF.FileFunction,Soldermask,Bot*
G04 #@! TF.FilePolarity,Negative*
%FSLAX46Y46*%
G04 Gerber Fmt 4.6, Leading zero omitted, Abs format (unit mm)*
G04 Created by KiCad (PCBNEW 5.1.5+dfsg1-2build2) date 2020-06-16 21:05:42*
%MOMM*%
%LPD*%
G04 APERTURE LIST*
%ADD10C,0.100000*%
G04 APERTURE END LIST*
D10*
G36*
X56146778Y-95640547D02*
G01*
X56313224Y-95709491D01*
X56463022Y-95809583D01*
X56590417Y-95936978D01*
X56690509Y-96086776D01*
X56759453Y-96253222D01*
X56794600Y-96429918D01*
X56794600Y-96610082D01*
X56759453Y-96786778D01*
X56690509Y-96953224D01*
X56590417Y-97103022D01*
X56463022Y-97230417D01*
X56313224Y-97330509D01*
X56146778Y-97399453D01*
X55970082Y-97434600D01*
X55789918Y-97434600D01*
X55613222Y-97399453D01*
X55446776Y-97330509D01*
X55296978Y-97230417D01*
X55169583Y-97103022D01*
X55069491Y-96953224D01*
X55000547Y-96786778D01*
X54965400Y-96610082D01*
X54965400Y-96429918D01*
X55000547Y-96253222D01*
X55069491Y-96086776D01*
X55169583Y-95936978D01*
X55296978Y-95809583D01*
X55446776Y-95709491D01*
X55613222Y-95640547D01*
X55789918Y-95605400D01*
X55970082Y-95605400D01*
X56146778Y-95640547D01*
G37*
G36*
X53606778Y-95640547D02*
G01*
X53773224Y-95709491D01*
X53923022Y-95809583D01*
X54050417Y-95936978D01*
X54150509Y-96086776D01*
X54219453Y-96253222D01*
X54254600Y-96429918D01*
X54254600Y-96610082D01*
X54219453Y-96786778D01*
X54150509Y-96953224D01*
X54050417Y-97103022D01*
X53923022Y-97230417D01*
X53773224Y-97330509D01*
X53606778Y-97399453D01*
X53430082Y-97434600D01*
X53249918Y-97434600D01*
X53073222Y-97399453D01*
X52906776Y-97330509D01*
X52756978Y-97230417D01*
X52629583Y-97103022D01*
X52529491Y-96953224D01*
X52460547Y-96786778D01*
X52425400Y-96610082D01*
X52425400Y-96429918D01*
X52460547Y-96253222D01*
X52529491Y-96086776D01*
X52629583Y-95936978D01*
X52756978Y-95809583D01*
X52906776Y-95709491D01*
X53073222Y-95640547D01*
X53249918Y-95605400D01*
X53430082Y-95605400D01*
X53606778Y-95640547D01*
G37*
G36*
X30593512Y-95623927D02*
G01*
X30742812Y-95653624D01*
X30906784Y-95721544D01*
X31054354Y-95820147D01*
X31179853Y-95945646D01*
X31278456Y-96093216D01*
X31346376Y-96257188D01*
X31381000Y-96431259D01*
X31381000Y-96608741D01*
X31346376Y-96782812D01*
X31278456Y-96946784D01*
X31179853Y-97094354D01*
X31054354Y-97219853D01*
X30906784Y-97318456D01*
X30742812Y-97386376D01*
X30593512Y-97416073D01*
X30568742Y-97421000D01*
X30391258Y-97421000D01*
X30366488Y-97416073D01*
X30217188Y-97386376D01*
X30053216Y-97318456D01*
X29905646Y-97219853D01*
X29780147Y-97094354D01*
X29681544Y-96946784D01*
X29613624Y-96782812D01*
X29579000Y-96608741D01*
X29579000Y-96431259D01*
X29613624Y-96257188D01*
X29681544Y-96093216D01*
X29780147Y-95945646D01*
X29905646Y-95820147D01*
X30053216Y-95721544D01*
X30217188Y-95653624D01*
X30366488Y-95623927D01*
X30391258Y-95619000D01*
X30568742Y-95619000D01*
X30593512Y-95623927D01*
G37*
G36*
X217957852Y-91382797D02*
G01*
X218449402Y-91586404D01*
X218449403Y-91586405D01*
X218891787Y-91881996D01*
X219268004Y-92258213D01*
X219394273Y-92447188D01*
X219563596Y-92700598D01*
X219767203Y-93192148D01*
X219871000Y-93713973D01*
X219871000Y-94246027D01*
X219767203Y-94767852D01*
X219563596Y-95259402D01*
X219465512Y-95406195D01*
X219268004Y-95701787D01*
X218891787Y-96078004D01*
X218629556Y-96253221D01*
X218449402Y-96373596D01*
X217957852Y-96577203D01*
X217436027Y-96681000D01*
X216903973Y-96681000D01*
X216382148Y-96577203D01*
X215890598Y-96373596D01*
X215710444Y-96253221D01*
X215448213Y-96078004D01*
X215071996Y-95701787D01*
X214874488Y-95406195D01*
X214776404Y-95259402D01*
X214572797Y-94767852D01*
X214469000Y-94246027D01*
X214469000Y-93713973D01*
X214572797Y-93192148D01*
X214776404Y-92700598D01*
X214945727Y-92447188D01*
X215071996Y-92258213D01*
X215448213Y-91881996D01*
X215890597Y-91586405D01*
X215890598Y-91586404D01*
X216382148Y-91382797D01*
X216903973Y-91279000D01*
X217436027Y-91279000D01*
X217957852Y-91382797D01*
G37*
G36*
X41427852Y-91382797D02*
G01*
X41919402Y-91586404D01*
X41919403Y-91586405D01*
X42361787Y-91881996D01*
X42738004Y-92258213D01*
X42864273Y-92447188D01*
X43033596Y-92700598D01*
X43237203Y-93192148D01*
X43341000Y-93713973D01*
X43341000Y-94246027D01*
X43237203Y-94767852D01*
X43033596Y-95259402D01*
X42935512Y-95406195D01*
X42738004Y-95701787D01*
X42361787Y-96078004D01*
X42099556Y-96253221D01*
X41919402Y-96373596D01*
X41427852Y-96577203D01*
X40906027Y-96681000D01*
X40373973Y-96681000D01*
X39852148Y-96577203D01*
X39360598Y-96373596D01*
X39180444Y-96253221D01*
X38918213Y-96078004D01*
X38541996Y-95701787D01*
X38344488Y-95406195D01*
X38246404Y-95259402D01*
X38042797Y-94767852D01*
X37939000Y-94246027D01*
X37939000Y-93713973D01*
X38042797Y-93192148D01*
X38246404Y-92700598D01*
X38415727Y-92447188D01*
X38541996Y-92258213D01*
X38918213Y-91881996D01*
X39360597Y-91586405D01*
X39360598Y-91586404D01*
X39852148Y-91382797D01*
X40373973Y-91279000D01*
X40906027Y-91279000D01*
X41427852Y-91382797D01*
G37*
G36*
X226173512Y-94353927D02*
G01*
X226322812Y-94383624D01*
X226486784Y-94451544D01*
X226634354Y-94550147D01*
X226759853Y-94675646D01*
X226858456Y-94823216D01*
X226926376Y-94987188D01*
X226961000Y-95161259D01*
X226961000Y-95338741D01*
X226926376Y-95512812D01*
X226858456Y-95676784D01*
X226759853Y-95824354D01*
X226634354Y-95949853D01*
X226486784Y-96048456D01*
X226322812Y-96116376D01*
X226173512Y-96146073D01*
X226148742Y-96151000D01*
X225971258Y-96151000D01*
X225946488Y-96146073D01*
X225797188Y-96116376D01*
X225633216Y-96048456D01*
X225485646Y-95949853D01*
X225360147Y-95824354D01*
X225261544Y-95676784D01*
X225193624Y-95512812D01*
X225159000Y-95338741D01*
X225159000Y-95161259D01*
X225193624Y-94987188D01*
X225261544Y-94823216D01*
X225360147Y-94675646D01*
X225485646Y-94550147D01*
X225633216Y-94451544D01*
X225797188Y-94383624D01*
X225946488Y-94353927D01*
X225971258Y-94349000D01*
X226148742Y-94349000D01*
X226173512Y-94353927D01*
G37*
G36*
X56146778Y-93100547D02*
G01*
X56313224Y-93169491D01*
X56463022Y-93269583D01*
X56590417Y-93396978D01*
X56690509Y-93546776D01*
X56759453Y-93713222D01*
X56794600Y-93889918D01*
X56794600Y-94070082D01*
X56759453Y-94246778D01*
X56690509Y-94413224D01*
X56590417Y-94563022D01*
X56463022Y-94690417D01*
X56313224Y-94790509D01*
X56146778Y-94859453D01*
X55970082Y-94894600D01*
X55789918Y-94894600D01*
X55613222Y-94859453D01*
X55446776Y-94790509D01*
X55296978Y-94690417D01*
X55169583Y-94563022D01*
X55069491Y-94413224D01*
X55000547Y-94246778D01*
X54965400Y-94070082D01*
X54965400Y-93889918D01*
X55000547Y-93713222D01*
X55069491Y-93546776D01*
X55169583Y-93396978D01*
X55296978Y-93269583D01*
X55446776Y-93169491D01*
X55613222Y-93100547D01*
X55789918Y-93065400D01*
X55970082Y-93065400D01*
X56146778Y-93100547D01*
G37*
G36*
X53606778Y-93100547D02*
G01*
X53773224Y-93169491D01*
X53923022Y-93269583D01*
X54050417Y-93396978D01*
X54150509Y-93546776D01*
X54219453Y-93713222D01*
X54254600Y-93889918D01*
X54254600Y-94070082D01*
X54219453Y-94246778D01*
X54150509Y-94413224D01*
X54050417Y-94563022D01*
X53923022Y-94690417D01*
X53773224Y-94790509D01*
X53606778Y-94859453D01*
X53430082Y-94894600D01*
X53249918Y-94894600D01*
X53073222Y-94859453D01*
X52906776Y-94790509D01*
X52756978Y-94690417D01*
X52629583Y-94563022D01*
X52529491Y-94413224D01*
X52460547Y-94246778D01*
X52425400Y-94070082D01*
X52425400Y-93889918D01*
X52460547Y-93713222D01*
X52529491Y-93546776D01*
X52629583Y-93396978D01*
X52756978Y-93269583D01*
X52906776Y-93169491D01*
X53073222Y-93100547D01*
X53249918Y-93065400D01*
X53430082Y-93065400D01*
X53606778Y-93100547D01*
G37*
G36*
X49161000Y-94881000D02*
G01*
X47359000Y-94881000D01*
X47359000Y-93079000D01*
X49161000Y-93079000D01*
X49161000Y-94881000D01*
G37*
G36*
X30593512Y-93083927D02*
G01*
X30742812Y-93113624D01*
X30906784Y-93181544D01*
X31054354Y-93280147D01*
X31179853Y-93405646D01*
X31278456Y-93553216D01*
X31346376Y-93717188D01*
X31381000Y-93891259D01*
X31381000Y-94068741D01*
X31346376Y-94242812D01*
X31278456Y-94406784D01*
X31179853Y-94554354D01*
X31054354Y-94679853D01*
X30906784Y-94778456D01*
X30742812Y-94846376D01*
X30593512Y-94876073D01*
X30568742Y-94881000D01*
X30391258Y-94881000D01*
X30366488Y-94876073D01*
X30217188Y-94846376D01*
X30053216Y-94778456D01*
X29905646Y-94679853D01*
X29780147Y-94554354D01*
X29681544Y-94406784D01*
X29613624Y-94242812D01*
X29579000Y-94068741D01*
X29579000Y-93891259D01*
X29613624Y-93717188D01*
X29681544Y-93553216D01*
X29780147Y-93405646D01*
X29905646Y-93280147D01*
X30053216Y-93181544D01*
X30217188Y-93113624D01*
X30366488Y-93083927D01*
X30391258Y-93079000D01*
X30568742Y-93079000D01*
X30593512Y-93083927D01*
G37*
G36*
X226173512Y-91813927D02*
G01*
X226322812Y-91843624D01*
X226486784Y-91911544D01*
X226634354Y-92010147D01*
X226759853Y-92135646D01*
X226858456Y-92283216D01*
X226926376Y-92447188D01*
X226961000Y-92621259D01*
X226961000Y-92798741D01*
X226926376Y-92972812D01*
X226858456Y-93136784D01*
X226759853Y-93284354D01*
X226634354Y-93409853D01*
X226486784Y-93508456D01*
X226322812Y-93576376D01*
X226173512Y-93606073D01*
X226148742Y-93611000D01*
X225971258Y-93611000D01*
X225946488Y-93606073D01*
X225797188Y-93576376D01*
X225633216Y-93508456D01*
X225485646Y-93409853D01*
X225360147Y-93284354D01*
X225261544Y-93136784D01*
X225193624Y-92972812D01*
X225159000Y-92798741D01*
X225159000Y-92621259D01*
X225193624Y-92447188D01*
X225261544Y-92283216D01*
X225360147Y-92135646D01*
X225485646Y-92010147D01*
X225633216Y-91911544D01*
X225797188Y-91843624D01*
X225946488Y-91813927D01*
X225971258Y-91809000D01*
X226148742Y-91809000D01*
X226173512Y-91813927D01*
G37*
G36*
X53606778Y-90560547D02*
G01*
X53773224Y-90629491D01*
X53923022Y-90729583D01*
X54050417Y-90856978D01*
X54150509Y-91006776D01*
X54219453Y-91173222D01*
X54254600Y-91349918D01*
X54254600Y-91530082D01*
X54219453Y-91706778D01*
X54150509Y-91873224D01*
X54050417Y-92023022D01*
X53923022Y-92150417D01*
X53773224Y-92250509D01*
X53606778Y-92319453D01*
X53430082Y-92354600D01*
X53249918Y-92354600D01*
X53073222Y-92319453D01*
X52906776Y-92250509D01*
X52756978Y-92150417D01*
X52629583Y-92023022D01*
X52529491Y-91873224D01*
X52460547Y-91706778D01*
X52425400Y-91530082D01*
X52425400Y-91349918D01*
X52460547Y-91173222D01*
X52529491Y-91006776D01*
X52629583Y-90856978D01*
X52756978Y-90729583D01*
X52906776Y-90629491D01*
X53073222Y-90560547D01*
X53249918Y-90525400D01*
X53430082Y-90525400D01*
X53606778Y-90560547D01*
G37*
G36*
X56146778Y-90560547D02*
G01*
X56313224Y-90629491D01*
X56463022Y-90729583D01*
X56590417Y-90856978D01*
X56690509Y-91006776D01*
X56759453Y-91173222D01*
X56794600Y-91349918D01*
X56794600Y-91530082D01*
X56759453Y-91706778D01*
X56690509Y-91873224D01*
X56590417Y-92023022D01*
X56463022Y-92150417D01*
X56313224Y-92250509D01*
X56146778Y-92319453D01*
X55970082Y-92354600D01*
X55789918Y-92354600D01*
X55613222Y-92319453D01*
X55446776Y-92250509D01*
X55296978Y-92150417D01*
X55169583Y-92023022D01*
X55069491Y-91873224D01*
X55000547Y-91706778D01*
X54965400Y-91530082D01*
X54965400Y-91349918D01*
X55000547Y-91173222D01*
X55069491Y-91006776D01*
X55169583Y-90856978D01*
X55296978Y-90729583D01*
X55446776Y-90629491D01*
X55613222Y-90560547D01*
X55789918Y-90525400D01*
X55970082Y-90525400D01*
X56146778Y-90560547D01*
G37*
G36*
X48373512Y-90543927D02*
G01*
X48522812Y-90573624D01*
X48686784Y-90641544D01*
X48834354Y-90740147D01*
X48959853Y-90865646D01*
X49058456Y-91013216D01*
X49126376Y-91177188D01*
X49161000Y-91351259D01*
X49161000Y-91528741D01*
X49126376Y-91702812D01*
X49058456Y-91866784D01*
X48959853Y-92014354D01*
X48834354Y-92139853D01*
X48686784Y-92238456D01*
X48522812Y-92306376D01*
X48373512Y-92336073D01*
X48348742Y-92341000D01*
X48171258Y-92341000D01*
X48146488Y-92336073D01*
X47997188Y-92306376D01*
X47833216Y-92238456D01*
X47685646Y-92139853D01*
X47560147Y-92014354D01*
X47461544Y-91866784D01*
X47393624Y-91702812D01*
X47359000Y-91528741D01*
X47359000Y-91351259D01*
X47393624Y-91177188D01*
X47461544Y-91013216D01*
X47560147Y-90865646D01*
X47685646Y-90740147D01*
X47833216Y-90641544D01*
X47997188Y-90573624D01*
X48146488Y-90543927D01*
X48171258Y-90539000D01*
X48348742Y-90539000D01*
X48373512Y-90543927D01*
G37*
G36*
X31381000Y-92341000D02*
G01*
X29579000Y-92341000D01*
X29579000Y-90539000D01*
X31381000Y-90539000D01*
X31381000Y-92341000D01*
G37*
G36*
X226961000Y-91071000D02*
G01*
X225159000Y-91071000D01*
X225159000Y-89269000D01*
X226961000Y-89269000D01*
X226961000Y-91071000D01*
G37*
G36*
X56146778Y-88020547D02*
G01*
X56313224Y-88089491D01*
X56463022Y-88189583D01*
X56590417Y-88316978D01*
X56690509Y-88466776D01*
X56759453Y-88633222D01*
X56794600Y-88809918D01*
X56794600Y-88990082D01*
X56759453Y-89166778D01*
X56690509Y-89333224D01*
X56590417Y-89483022D01*
X56463022Y-89610417D01*
X56313224Y-89710509D01*
X56146778Y-89779453D01*
X55970082Y-89814600D01*
X55789918Y-89814600D01*
X55613222Y-89779453D01*
X55446776Y-89710509D01*
X55296978Y-89610417D01*
X55169583Y-89483022D01*
X55069491Y-89333224D01*
X55000547Y-89166778D01*
X54965400Y-88990082D01*
X54965400Y-88809918D01*
X55000547Y-88633222D01*
X55069491Y-88466776D01*
X55169583Y-88316978D01*
X55296978Y-88189583D01*
X55446776Y-88089491D01*
X55613222Y-88020547D01*
X55789918Y-87985400D01*
X55970082Y-87985400D01*
X56146778Y-88020547D01*
G37*
G36*
X54254600Y-89814600D02*
G01*
X52425400Y-89814600D01*
X52425400Y-87985400D01*
X54254600Y-87985400D01*
X54254600Y-89814600D01*
G37*
G36*
X48373512Y-88003927D02*
G01*
X48522812Y-88033624D01*
X48686784Y-88101544D01*
X48834354Y-88200147D01*
X48959853Y-88325646D01*
X49058456Y-88473216D01*
X49126376Y-88637188D01*
X49161000Y-88811259D01*
X49161000Y-88988741D01*
X49126376Y-89162812D01*
X49058456Y-89326784D01*
X48959853Y-89474354D01*
X48834354Y-89599853D01*
X48686784Y-89698456D01*
X48522812Y-89766376D01*
X48373512Y-89796073D01*
X48348742Y-89801000D01*
X48171258Y-89801000D01*
X48146488Y-89796073D01*
X47997188Y-89766376D01*
X47833216Y-89698456D01*
X47685646Y-89599853D01*
X47560147Y-89474354D01*
X47461544Y-89326784D01*
X47393624Y-89162812D01*
X47359000Y-88988741D01*
X47359000Y-88811259D01*
X47393624Y-88637188D01*
X47461544Y-88473216D01*
X47560147Y-88325646D01*
X47685646Y-88200147D01*
X47833216Y-88101544D01*
X47997188Y-88033624D01*
X48146488Y-88003927D01*
X48171258Y-87999000D01*
X48348742Y-87999000D01*
X48373512Y-88003927D01*
G37*
M02*
