G04 #@! TF.GenerationSoftware,KiCad,Pcbnew,5.1.5+dfsg1-2build2*
G04 #@! TF.CreationDate,2020-06-17T01:27:21-04:00*
G04 #@! TF.ProjectId,RE_light,52455f6c-6967-4687-942e-6b696361645f,rev?*
G04 #@! TF.SameCoordinates,Original*
G04 #@! TF.FileFunction,Paste,Top*
G04 #@! TF.FilePolarity,Positive*
%FSLAX46Y46*%
G04 Gerber Fmt 4.6, Leading zero omitted, Abs format (unit mm)*
G04 Created by KiCad (PCBNEW 5.1.5+dfsg1-2build2) date 2020-06-17 01:27:21*
%MOMM*%
%LPD*%
G04 APERTURE LIST*
%ADD10R,1.000000X1.500000*%
G04 APERTURE END LIST*
D10*
X98730000Y-95160000D03*
X101930000Y-95160000D03*
X98730000Y-90260000D03*
X101930000Y-90260000D03*
X110820000Y-90260000D03*
X107620000Y-90260000D03*
X110820000Y-95160000D03*
X107620000Y-95160000D03*
X128600000Y-90260000D03*
X125400000Y-90260000D03*
X128600000Y-95160000D03*
X125400000Y-95160000D03*
X152070000Y-95160000D03*
X155270000Y-95160000D03*
X152070000Y-90260000D03*
X155270000Y-90260000D03*
X199720000Y-90260000D03*
X196520000Y-90260000D03*
X199720000Y-95160000D03*
X196520000Y-95160000D03*
X93040000Y-90260000D03*
X89840000Y-90260000D03*
X93040000Y-95160000D03*
X89840000Y-95160000D03*
X80950000Y-95160000D03*
X84150000Y-95160000D03*
X80950000Y-90260000D03*
X84150000Y-90260000D03*
X116510000Y-95160000D03*
X119710000Y-95160000D03*
X116510000Y-90260000D03*
X119710000Y-90260000D03*
X134290000Y-95160000D03*
X137490000Y-95160000D03*
X134290000Y-90260000D03*
X137490000Y-90260000D03*
X146380000Y-90260000D03*
X143180000Y-90260000D03*
X146380000Y-95160000D03*
X143180000Y-95160000D03*
X164160000Y-90260000D03*
X160960000Y-90260000D03*
X164160000Y-95160000D03*
X160960000Y-95160000D03*
X169850000Y-95160000D03*
X173050000Y-95160000D03*
X169850000Y-90260000D03*
X173050000Y-90260000D03*
X181940000Y-90260000D03*
X178740000Y-90260000D03*
X181940000Y-95160000D03*
X178740000Y-95160000D03*
X187630000Y-95160000D03*
X190830000Y-95160000D03*
X187630000Y-90260000D03*
X190830000Y-90260000D03*
X204775000Y-95160000D03*
X207975000Y-95160000D03*
X204775000Y-90260000D03*
X207975000Y-90260000D03*
M02*
