G04 #@! TF.GenerationSoftware,KiCad,Pcbnew,5.1.5+dfsg1-2build2*
G04 #@! TF.CreationDate,2020-06-17T01:27:21-04:00*
G04 #@! TF.ProjectId,RE_light,52455f6c-6967-4687-942e-6b696361645f,rev?*
G04 #@! TF.SameCoordinates,Original*
G04 #@! TF.FileFunction,Legend,Bot*
G04 #@! TF.FilePolarity,Positive*
%FSLAX46Y46*%
G04 Gerber Fmt 4.6, Leading zero omitted, Abs format (unit mm)*
G04 Created by KiCad (PCBNEW 5.1.5+dfsg1-2build2) date 2020-06-17 01:27:21*
%MOMM*%
%LPD*%
G04 APERTURE LIST*
%ADD10C,0.150000*%
G04 APERTURE END LIST*
D10*
X155485714Y-99512380D02*
X155485714Y-98512380D01*
X155152380Y-98845714D02*
X154771428Y-98845714D01*
X155009523Y-99512380D02*
X155009523Y-98655238D01*
X154961904Y-98560000D01*
X154866666Y-98512380D01*
X154771428Y-98512380D01*
X153771428Y-98845714D02*
X153533333Y-99512380D01*
X153295238Y-98845714D02*
X153533333Y-99512380D01*
X153628571Y-99750476D01*
X153676190Y-99798095D01*
X153771428Y-99845714D01*
X152771428Y-99512380D02*
X152866666Y-99464761D01*
X152914285Y-99417142D01*
X152961904Y-99321904D01*
X152961904Y-99036190D01*
X152914285Y-98940952D01*
X152866666Y-98893333D01*
X152771428Y-98845714D01*
X152628571Y-98845714D01*
X152533333Y-98893333D01*
X152485714Y-98940952D01*
X152438095Y-99036190D01*
X152438095Y-99321904D01*
X152485714Y-99417142D01*
X152533333Y-99464761D01*
X152628571Y-99512380D01*
X152771428Y-99512380D01*
X151580952Y-98845714D02*
X151580952Y-99512380D01*
X152009523Y-98845714D02*
X152009523Y-99369523D01*
X151961904Y-99464761D01*
X151866666Y-99512380D01*
X151723809Y-99512380D01*
X151628571Y-99464761D01*
X151580952Y-99417142D01*
X149914285Y-99464761D02*
X150009523Y-99512380D01*
X150200000Y-99512380D01*
X150295238Y-99464761D01*
X150342857Y-99417142D01*
X150390476Y-99321904D01*
X150390476Y-99036190D01*
X150342857Y-98940952D01*
X150295238Y-98893333D01*
X150200000Y-98845714D01*
X150009523Y-98845714D01*
X149914285Y-98893333D01*
X149057142Y-99512380D02*
X149057142Y-98988571D01*
X149104761Y-98893333D01*
X149200000Y-98845714D01*
X149390476Y-98845714D01*
X149485714Y-98893333D01*
X149057142Y-99464761D02*
X149152380Y-99512380D01*
X149390476Y-99512380D01*
X149485714Y-99464761D01*
X149533333Y-99369523D01*
X149533333Y-99274285D01*
X149485714Y-99179047D01*
X149390476Y-99131428D01*
X149152380Y-99131428D01*
X149057142Y-99083809D01*
X148580952Y-98845714D02*
X148580952Y-99512380D01*
X148580952Y-98940952D02*
X148533333Y-98893333D01*
X148438095Y-98845714D01*
X148295238Y-98845714D01*
X148200000Y-98893333D01*
X148152380Y-98988571D01*
X148152380Y-99512380D01*
X146914285Y-99512380D02*
X146914285Y-98845714D01*
X146914285Y-99036190D02*
X146866666Y-98940952D01*
X146819047Y-98893333D01*
X146723809Y-98845714D01*
X146628571Y-98845714D01*
X145914285Y-99464761D02*
X146009523Y-99512380D01*
X146200000Y-99512380D01*
X146295238Y-99464761D01*
X146342857Y-99369523D01*
X146342857Y-98988571D01*
X146295238Y-98893333D01*
X146200000Y-98845714D01*
X146009523Y-98845714D01*
X145914285Y-98893333D01*
X145866666Y-98988571D01*
X145866666Y-99083809D01*
X146342857Y-99179047D01*
X145009523Y-99512380D02*
X145009523Y-98988571D01*
X145057142Y-98893333D01*
X145152380Y-98845714D01*
X145342857Y-98845714D01*
X145438095Y-98893333D01*
X145009523Y-99464761D02*
X145104761Y-99512380D01*
X145342857Y-99512380D01*
X145438095Y-99464761D01*
X145485714Y-99369523D01*
X145485714Y-99274285D01*
X145438095Y-99179047D01*
X145342857Y-99131428D01*
X145104761Y-99131428D01*
X145009523Y-99083809D01*
X144104761Y-99512380D02*
X144104761Y-98512380D01*
X144104761Y-99464761D02*
X144200000Y-99512380D01*
X144390476Y-99512380D01*
X144485714Y-99464761D01*
X144533333Y-99417142D01*
X144580952Y-99321904D01*
X144580952Y-99036190D01*
X144533333Y-98940952D01*
X144485714Y-98893333D01*
X144390476Y-98845714D01*
X144200000Y-98845714D01*
X144104761Y-98893333D01*
X143009523Y-98845714D02*
X142628571Y-98845714D01*
X142866666Y-98512380D02*
X142866666Y-99369523D01*
X142819047Y-99464761D01*
X142723809Y-99512380D01*
X142628571Y-99512380D01*
X142295238Y-99512380D02*
X142295238Y-98512380D01*
X141866666Y-99512380D02*
X141866666Y-98988571D01*
X141914285Y-98893333D01*
X142009523Y-98845714D01*
X142152380Y-98845714D01*
X142247619Y-98893333D01*
X142295238Y-98940952D01*
X141390476Y-99512380D02*
X141390476Y-98845714D01*
X141390476Y-98512380D02*
X141438095Y-98560000D01*
X141390476Y-98607619D01*
X141342857Y-98560000D01*
X141390476Y-98512380D01*
X141390476Y-98607619D01*
X140961904Y-99464761D02*
X140866666Y-99512380D01*
X140676190Y-99512380D01*
X140580952Y-99464761D01*
X140533333Y-99369523D01*
X140533333Y-99321904D01*
X140580952Y-99226666D01*
X140676190Y-99179047D01*
X140819047Y-99179047D01*
X140914285Y-99131428D01*
X140961904Y-99036190D01*
X140961904Y-98988571D01*
X140914285Y-98893333D01*
X140819047Y-98845714D01*
X140676190Y-98845714D01*
X140580952Y-98893333D01*
X140057142Y-99464761D02*
X140057142Y-99512380D01*
X140104761Y-99607619D01*
X140152380Y-99655238D01*
X139009523Y-98512380D02*
X138438095Y-98512380D01*
X138723809Y-99512380D02*
X138723809Y-98512380D01*
X138104761Y-99512380D02*
X138104761Y-98512380D01*
X137676190Y-99512380D02*
X137676190Y-98988571D01*
X137723809Y-98893333D01*
X137819047Y-98845714D01*
X137961904Y-98845714D01*
X138057142Y-98893333D01*
X138104761Y-98940952D01*
X136819047Y-99464761D02*
X136914285Y-99512380D01*
X137104761Y-99512380D01*
X137200000Y-99464761D01*
X137247619Y-99369523D01*
X137247619Y-98988571D01*
X137200000Y-98893333D01*
X137104761Y-98845714D01*
X136914285Y-98845714D01*
X136819047Y-98893333D01*
X136771428Y-98988571D01*
X136771428Y-99083809D01*
X137247619Y-99179047D01*
X135580952Y-99512380D02*
X135580952Y-98512380D01*
X135247619Y-99226666D01*
X134914285Y-98512380D01*
X134914285Y-99512380D01*
X134009523Y-99512380D02*
X134009523Y-98988571D01*
X134057142Y-98893333D01*
X134152380Y-98845714D01*
X134342857Y-98845714D01*
X134438095Y-98893333D01*
X134009523Y-99464761D02*
X134104761Y-99512380D01*
X134342857Y-99512380D01*
X134438095Y-99464761D01*
X134485714Y-99369523D01*
X134485714Y-99274285D01*
X134438095Y-99179047D01*
X134342857Y-99131428D01*
X134104761Y-99131428D01*
X134009523Y-99083809D01*
X133676190Y-98845714D02*
X133295238Y-98845714D01*
X133533333Y-98512380D02*
X133533333Y-99369523D01*
X133485714Y-99464761D01*
X133390476Y-99512380D01*
X133295238Y-99512380D01*
X132961904Y-99512380D02*
X132961904Y-98845714D01*
X132961904Y-99036190D02*
X132914285Y-98940952D01*
X132866666Y-98893333D01*
X132771428Y-98845714D01*
X132676190Y-98845714D01*
X132342857Y-99512380D02*
X132342857Y-98845714D01*
X132342857Y-98512380D02*
X132390476Y-98560000D01*
X132342857Y-98607619D01*
X132295238Y-98560000D01*
X132342857Y-98512380D01*
X132342857Y-98607619D01*
X131961904Y-99512380D02*
X131438095Y-98845714D01*
X131961904Y-98845714D02*
X131438095Y-99512380D01*
X130295238Y-99512380D02*
X130295238Y-98512380D01*
X130295238Y-98988571D02*
X129723809Y-98988571D01*
X129723809Y-99512380D02*
X129723809Y-98512380D01*
X128819047Y-99512380D02*
X128819047Y-98988571D01*
X128866666Y-98893333D01*
X128961904Y-98845714D01*
X129152380Y-98845714D01*
X129247619Y-98893333D01*
X128819047Y-99464761D02*
X128914285Y-99512380D01*
X129152380Y-99512380D01*
X129247619Y-99464761D01*
X129295238Y-99369523D01*
X129295238Y-99274285D01*
X129247619Y-99179047D01*
X129152380Y-99131428D01*
X128914285Y-99131428D01*
X128819047Y-99083809D01*
X128390476Y-99464761D02*
X128295238Y-99512380D01*
X128104761Y-99512380D01*
X128009523Y-99464761D01*
X127961904Y-99369523D01*
X127961904Y-99321904D01*
X128009523Y-99226666D01*
X128104761Y-99179047D01*
X128247619Y-99179047D01*
X128342857Y-99131428D01*
X128390476Y-99036190D01*
X128390476Y-98988571D01*
X128342857Y-98893333D01*
X128247619Y-98845714D01*
X128104761Y-98845714D01*
X128009523Y-98893333D01*
X126104761Y-98845714D02*
X125866666Y-99512380D01*
X125628571Y-98845714D02*
X125866666Y-99512380D01*
X125961904Y-99750476D01*
X126009523Y-99798095D01*
X126104761Y-99845714D01*
X125104761Y-99512380D02*
X125200000Y-99464761D01*
X125247619Y-99417142D01*
X125295238Y-99321904D01*
X125295238Y-99036190D01*
X125247619Y-98940952D01*
X125200000Y-98893333D01*
X125104761Y-98845714D01*
X124961904Y-98845714D01*
X124866666Y-98893333D01*
X124819047Y-98940952D01*
X124771428Y-99036190D01*
X124771428Y-99321904D01*
X124819047Y-99417142D01*
X124866666Y-99464761D01*
X124961904Y-99512380D01*
X125104761Y-99512380D01*
X123914285Y-98845714D02*
X123914285Y-99512380D01*
X124342857Y-98845714D02*
X124342857Y-99369523D01*
X124295238Y-99464761D01*
X124200000Y-99512380D01*
X124057142Y-99512380D01*
X123961904Y-99464761D01*
X123914285Y-99417142D01*
M02*
